<svg xmlns="http://www.w3.org/2000/svg" width="640" height="400" viewBox="0 0 640 400" role="img" aria-label="Golden kitchen-sink" class="gg-plot" font-family="&quot;Roboto Condensed&quot;, &quot;Arial Narrow&quot;, Arial, sans-serif" font-size="11.5" font-weight="300" text-rendering="optimizeLegibility" shape-rendering="geometricPrecision"><title>Golden kitchen-sink</title><rect class="gg-paper" width="640" height="400" fill="var(--gg-paper, #ffffff)"/><text class="gg-title" x="38" y="18" font-size="18" font-weight="700" fill="var(--gg-ink, #262626)">Golden kitchen-sink</text><text class="gg-subtitle" x="38" y="34" font-size="13" font-weight="300" fill="var(--gg-ink, #262626)">covers marks+chrome</text><defs><clipPath id="gg-clip-0"><rect width="272.5" height="280"/></clipPath><clipPath id="gg-clip-1"><rect width="272.5" height="280"/></clipPath></defs><g class="gg-panel" data-panel="0" transform="translate(38,68)"><rect class="gg-panel-background" width="272.5" height="280" fill="var(--gg-panel, #ffffff)"/><g class="gg-grid" stroke="var(--gg-grid, #cccccc)" stroke-width="0.4" vector-effect="non-scaling-stroke"><line x1="45.42" y1="0" x2="45.42" y2="280"/><line x1="136.25" y1="0" x2="136.25" y2="280"/><line x1="227.08" y1="0" x2="227.08" y2="280"/><line x1="0" y1="280" x2="272.5" y2="280"/><line x1="0" y1="233.33" x2="272.5" y2="233.33"/><line x1="0" y1="186.67" x2="272.5" y2="186.67"/><line x1="0" y1="140" x2="272.5" y2="140"/><line x1="0" y1="93.33" x2="272.5" y2="93.33"/><line x1="0" y1="46.67" x2="272.5" y2="46.67"/><line x1="0" y1="0" x2="272.5" y2="0"/></g><g class="gg-marks" clip-path="url(#gg-clip-0)"><g class="gg-batch gg-points" data-layer="0" opacity="0.9"><rect x="42.42" y="183.67" width="6" height="6" fill="#4269d0"/><rect x="133.25" y="90.33" width="6" height="6" fill="#efb118"/><rect x="224.08" y="109" width="6" height="6" fill="#4269d0"/></g><g class="gg-batch gg-paths" data-layer="1"><path d="M45.42 186.67L136.25 186.67L136.25 112L227.08 112" fill="none" stroke="#4269d0" stroke-width="1.5" stroke-linejoin="round" stroke-linecap="round"/><path d="M136.25 93.33" fill="none" stroke="#efb118" stroke-width="1.5" stroke-linejoin="round" stroke-linecap="round"/></g><g class="gg-batch gg-areas" data-layer="2" opacity="0.2"><path d="M45.42 186.67L227.08 112L227.08 280L45.42 280Z" fill="var(--gg-accent, #4385be)" stroke="none"/><path d="M136.25 93.33L136.25 280Z" fill="var(--gg-accent, #4385be)" stroke="none"/></g><g class="gg-batch gg-rects" data-layer="3" opacity="0.35"><rect x="4.54" y="186.67" width="81.75" height="93.33" fill="var(--gg-accent, #4385be)"/><rect x="95.38" y="93.33" width="81.75" height="186.67" fill="var(--gg-accent, #4385be)"/><rect x="186.21" y="112" width="81.75" height="168" fill="var(--gg-accent, #4385be)"/></g><g class="gg-batch gg-segments" data-layer="4"><line x1="45.42" y1="205.33" x2="45.42" y2="168" stroke="#4269d0" stroke-width="1"/><line x1="4.54" y1="205.33" x2="86.29" y2="205.33" stroke="#4269d0" stroke-width="1"/><line x1="4.54" y1="168" x2="86.29" y2="168" stroke="#4269d0" stroke-width="1"/><line x1="136.25" y1="130.67" x2="136.25" y2="56" stroke="#efb118" stroke-width="1"/><line x1="95.38" y1="130.67" x2="177.13" y2="130.67" stroke="#efb118" stroke-width="1"/><line x1="95.38" y1="56" x2="177.13" y2="56" stroke="#efb118" stroke-width="1"/><line x1="227.08" y1="149.33" x2="227.08" y2="74.67" stroke="#4269d0" stroke-width="1"/><line x1="186.21" y1="149.33" x2="267.96" y2="149.33" stroke="#4269d0" stroke-width="1"/><line x1="186.21" y1="74.67" x2="267.96" y2="74.67" stroke="#4269d0" stroke-width="1"/></g><g class="gg-batch gg-glyphs" data-layer="5" font-size="10" text-anchor="middle"><text x="45.42" y="186.67" dy="0.32em" fill="#4269d0">A</text><text x="136.25" y="93.33" dy="0.32em" fill="#efb118">B</text><text x="227.08" y="112" dy="0.32em" fill="#4269d0">E</text></g></g></g><g class="gg-strip" transform="translate(38,50)"><rect width="272.5" height="16" fill="var(--gg-grid, #cccccc)"/><text x="136.25" y="8" dy="0.32em" text-anchor="middle" fill="var(--gg-ink, #262626)" font-size="12" font-weight="400">a</text></g><g class="gg-axis gg-axis-x" transform="translate(38,348)"><g class="gg-tick" transform="translate(45.42,0)"><text y="3" dy="0.71em" text-anchor="middle" fill="var(--gg-axisText, #4d4d4d)" font-size="11.5" font-weight="300">1</text></g><g class="gg-tick" transform="translate(136.25,0)"><text y="3" dy="0.71em" text-anchor="middle" fill="var(--gg-axisText, #4d4d4d)" font-size="11.5" font-weight="300">2</text></g><g class="gg-tick" transform="translate(227.08,0)"><text y="3" dy="0.71em" text-anchor="middle" fill="var(--gg-axisText, #4d4d4d)" font-size="11.5" font-weight="300">3</text></g></g><g class="gg-axis gg-axis-y" transform="translate(38,68)"><g class="gg-tick" transform="translate(0,280)"><text x="-3" dy="0.32em" text-anchor="end" fill="var(--gg-axisText, #4d4d4d)" font-size="11.5" font-weight="300">0</text></g><g class="gg-tick" transform="translate(0,233.33)"><text x="-3" dy="0.32em" text-anchor="end" fill="var(--gg-axisText, #4d4d4d)" font-size="11.5" font-weight="300">5</text></g><g class="gg-tick" transform="translate(0,186.67)"><text x="-3" dy="0.32em" text-anchor="end" fill="var(--gg-axisText, #4d4d4d)" font-size="11.5" font-weight="300">10</text></g><g class="gg-tick" transform="translate(0,140)"><text x="-3" dy="0.32em" text-anchor="end" fill="var(--gg-axisText, #4d4d4d)" font-size="11.5" font-weight="300">15</text></g><g class="gg-tick" transform="translate(0,93.33)"><text x="-3" dy="0.32em" text-anchor="end" fill="var(--gg-axisText, #4d4d4d)" font-size="11.5" font-weight="300">20</text></g><g class="gg-tick" transform="translate(0,46.67)"><text x="-3" dy="0.32em" text-anchor="end" fill="var(--gg-axisText, #4d4d4d)" font-size="11.5" font-weight="300">25</text></g><g class="gg-tick" transform="translate(0,0)"><text x="-3" dy="0.32em" text-anchor="end" fill="var(--gg-axisText, #4d4d4d)" font-size="11.5" font-weight="300">30</text></g></g><g class="gg-panel" data-panel="1" transform="translate(318.5,68)"><rect class="gg-panel-background" width="272.5" height="280" fill="var(--gg-panel, #ffffff)"/><g class="gg-grid" stroke="var(--gg-grid, #cccccc)" stroke-width="0.4" vector-effect="non-scaling-stroke"><line x1="45.42" y1="0" x2="45.42" y2="280"/><line x1="136.25" y1="0" x2="136.25" y2="280"/><line x1="227.08" y1="0" x2="227.08" y2="280"/><line x1="0" y1="280" x2="272.5" y2="280"/><line x1="0" y1="233.33" x2="272.5" y2="233.33"/><line x1="0" y1="186.67" x2="272.5" y2="186.67"/><line x1="0" y1="140" x2="272.5" y2="140"/><line x1="0" y1="93.33" x2="272.5" y2="93.33"/><line x1="0" y1="46.67" x2="272.5" y2="46.67"/><line x1="0" y1="0" x2="272.5" y2="0"/></g><g class="gg-marks" clip-path="url(#gg-clip-1)"><g class="gg-batch gg-points" data-layer="0" opacity="0.9"><rect x="42.42" y="137" width="6" height="6" fill="#4269d0"/><rect x="133.25" y="43.67" width="6" height="6" fill="#efb118"/><rect x="224.08" y="71.67" width="6" height="6" fill="#efb118"/></g><g class="gg-batch gg-paths" data-layer="1"><path d="M45.42 140" fill="none" stroke="#4269d0" stroke-width="1.5" stroke-linejoin="round" stroke-linecap="round"/><path d="M136.25 46.67L181.67 46.67L181.67 74.67L227.08 74.67" fill="none" stroke="#efb118" stroke-width="1.5" stroke-linejoin="round" stroke-linecap="round"/></g><g class="gg-batch gg-areas" data-layer="2" opacity="0.2"><path d="M45.42 140L45.42 280Z" fill="var(--gg-accent, #4385be)" stroke="none"/><path d="M136.25 46.67L227.08 74.67L227.08 280L136.25 280Z" fill="var(--gg-accent, #4385be)" stroke="none"/></g><g class="gg-batch gg-rects" data-layer="3" opacity="0.35"><rect x="4.54" y="140" width="81.75" height="140" fill="var(--gg-accent, #4385be)"/><rect x="95.38" y="46.67" width="81.75" height="233.33" fill="var(--gg-accent, #4385be)"/><rect x="186.21" y="74.67" width="81.75" height="205.33" fill="var(--gg-accent, #4385be)"/></g><g class="gg-batch gg-segments" data-layer="4"><line x1="45.42" y1="168" x2="45.42" y2="112" stroke="#4269d0" stroke-width="1"/><line x1="4.54" y1="168" x2="86.29" y2="168" stroke="#4269d0" stroke-width="1"/><line x1="4.54" y1="112" x2="86.29" y2="112" stroke="#4269d0" stroke-width="1"/><line x1="136.25" y1="93.33" x2="136.25" y2="0" stroke="#efb118" stroke-width="1"/><line x1="95.38" y1="93.33" x2="177.13" y2="93.33" stroke="#efb118" stroke-width="1"/><line x1="95.38" y1="0" x2="177.13" y2="0" stroke="#efb118" stroke-width="1"/><line x1="227.08" y1="112" x2="227.08" y2="37.33" stroke="#efb118" stroke-width="1"/><line x1="186.21" y1="112" x2="267.96" y2="112" stroke="#efb118" stroke-width="1"/><line x1="186.21" y1="37.33" x2="267.96" y2="37.33" stroke="#efb118" stroke-width="1"/></g><g class="gg-batch gg-glyphs" data-layer="5" font-size="10" text-anchor="middle"><text x="45.42" y="140" dy="0.32em" fill="#4269d0">C</text><text x="136.25" y="46.67" dy="0.32em" fill="#efb118">D</text><text x="227.08" y="74.67" dy="0.32em" fill="#efb118">F</text></g></g></g><g class="gg-strip" transform="translate(318.5,50)"><rect width="272.5" height="16" fill="var(--gg-grid, #cccccc)"/><text x="136.25" y="8" dy="0.32em" text-anchor="middle" fill="var(--gg-ink, #262626)" font-size="12" font-weight="400">b</text></g><g class="gg-axis gg-axis-x" transform="translate(318.5,348)"><g class="gg-tick" transform="translate(45.42,0)"><text y="3" dy="0.71em" text-anchor="middle" fill="var(--gg-axisText, #4d4d4d)" font-size="11.5" font-weight="300">1</text></g><g class="gg-tick" transform="translate(136.25,0)"><text y="3" dy="0.71em" text-anchor="middle" fill="var(--gg-axisText, #4d4d4d)" font-size="11.5" font-weight="300">2</text></g><g class="gg-tick" transform="translate(227.08,0)"><text y="3" dy="0.71em" text-anchor="middle" fill="var(--gg-axisText, #4d4d4d)" font-size="11.5" font-weight="300">3</text></g></g><text class="gg-axis-title" x="314.5" y="380" text-anchor="middle" fill="var(--gg-ink, #262626)" font-size="9" font-weight="400">X axis</text><text class="gg-axis-title" transform="translate(12,208) rotate(-90)" text-anchor="middle" fill="var(--gg-ink, #262626)" font-size="9" font-weight="400">Y axis</text><g class="gg-legend gg-legend-color" transform="translate(607,68)"><text class="gg-legend-title" x="4" y="11" font-weight="bold" fill="var(--gg-ink, #262626)">cls</text><rect class="gg-legend-swatch" x="4" y="25" width="10" height="10" fill="#4269d0"/><text class="gg-legend-label" x="20" y="30" dy="0.32em" fill="var(--gg-ink, #262626)">u</text><rect class="gg-legend-swatch" x="4" y="49" width="10" height="10" fill="#efb118"/><text class="gg-legend-label" x="20" y="54" dy="0.32em" fill="var(--gg-ink, #262626)">v</text></g><text class="gg-caption" x="636" y="396" font-size="9" text-anchor="end" fill="var(--gg-ink, #262626)">fixture v1</text></svg>