<svg xmlns="http://www.w3.org/2000/svg" width="640" height="400" viewBox="0 0 640 400" role="img" aria-label="Electricity generation mix" class="gg-plot" font-family="&quot;Roboto Condensed&quot;, &quot;Arial Narrow&quot;, Arial, sans-serif" font-size="11.5" font-weight="300" text-rendering="optimizeLegibility" shape-rendering="geometricPrecision"><title>Electricity generation mix</title><style>
@font-face{font-family:"Roboto Condensed";src:url("../../../packages/svelte/src/lib/fonts/RobotoCondensed-Light.ttf") format("truetype");font-weight:300;font-style:normal}
@font-face{font-family:"Roboto Condensed";src:url("../../../packages/svelte/src/lib/fonts/RobotoCondensed-Regular.ttf") format("truetype");font-weight:400;font-style:normal}
@font-face{font-family:"Roboto Condensed";src:url("../../../packages/svelte/src/lib/fonts/RobotoCondensed-Bold.ttf") format("truetype");font-weight:700;font-style:normal}
</style><rect class="gg-paper" width="640" height="400" fill="var(--gg-paper, #ffffff)"/><text class="gg-title" x="44" y="18" font-size="18" font-weight="700" fill="var(--gg-ink, #262626)">Electricity generation mix</text><defs><clipPath id="gg-clip-0"><rect width="488" height="327"/></clipPath></defs><g class="gg-panel" data-panel="0" transform="translate(44,33)"><rect class="gg-panel-background" width="488" height="327" fill="var(--gg-panel, #ffffff)"/><g class="gg-grid" stroke="var(--gg-grid, #cccccc)" stroke-width="0.4" vector-effect="non-scaling-stroke"><line x1="0" y1="0" x2="0" y2="327"/><line x1="88.73" y1="0" x2="88.73" y2="327"/><line x1="177.45" y1="0" x2="177.45" y2="327"/><line x1="266.18" y1="0" x2="266.18" y2="327"/><line x1="354.91" y1="0" x2="354.91" y2="327"/><line x1="443.64" y1="0" x2="443.64" y2="327"/><line x1="0" y1="327" x2="488" y2="327"/><line x1="0" y1="286.13" x2="488" y2="286.13"/><line x1="0" y1="245.25" x2="488" y2="245.25"/><line x1="0" y1="204.38" x2="488" y2="204.38"/><line x1="0" y1="163.5" x2="488" y2="163.5"/><line x1="0" y1="122.63" x2="488" y2="122.63"/><line x1="0" y1="81.75" x2="488" y2="81.75"/><line x1="0" y1="40.88" x2="488" y2="40.88"/><line x1="0" y1="0" x2="488" y2="0"/></g><g class="gg-marks" clip-path="url(#gg-clip-0)"><g class="gg-batch gg-areas" data-layer="0" opacity="0.9"><path d="M0 49.05L44.36 47.01L88.73 47.01L133.09 40.88L177.45 40.88L221.82 38.83L266.18 44.96L310.55 40.88L354.91 32.7L399.27 26.57L443.64 16.35L488 4.09L488 75.62L443.64 100.14L399.27 124.67L354.91 145.11L310.55 163.5L266.18 179.85L221.82 190.07L177.45 204.38L133.09 214.59L88.73 224.81L44.36 230.94L0 237.07Z" fill="#4269d0" stroke="none"/><path d="M0 237.07L44.36 230.94L88.73 224.81L133.09 214.59L177.45 204.38L221.82 190.07L266.18 179.85L310.55 163.5L354.91 145.11L399.27 124.67L443.64 100.14L488 75.62L488 124.67L443.64 151.24L399.27 175.76L354.91 198.24L310.55 216.64L266.18 235.03L221.82 247.29L177.45 261.6L133.09 273.86L88.73 284.08L44.36 292.26L0 298.39Z" fill="#efb118" stroke="none"/><path d="M0 298.39L44.36 292.26L88.73 284.08L133.09 273.86L177.45 261.6L221.82 247.29L266.18 235.03L310.55 216.64L354.91 198.24L399.27 175.76L443.64 151.24L488 124.67L488 327L443.64 327L399.27 327L354.91 327L310.55 327L266.18 327L221.82 327L177.45 327L133.09 327L88.73 327L44.36 327L0 327Z" fill="#ff725c" stroke="none"/></g></g></g><g class="gg-axis gg-axis-x" transform="translate(44,360)"><g class="gg-tick" transform="translate(0,0)"><text y="3" dy="0.71em" text-anchor="middle" fill="var(--gg-axisText, #4d4d4d)" font-size="11.5" font-weight="300">2014</text></g><g class="gg-tick" transform="translate(88.73,0)"><text y="3" dy="0.71em" text-anchor="middle" fill="var(--gg-axisText, #4d4d4d)" font-size="11.5" font-weight="300">2016</text></g><g class="gg-tick" transform="translate(177.45,0)"><text y="3" dy="0.71em" text-anchor="middle" fill="var(--gg-axisText, #4d4d4d)" font-size="11.5" font-weight="300">2018</text></g><g class="gg-tick" transform="translate(266.18,0)"><text y="3" dy="0.71em" text-anchor="middle" fill="var(--gg-axisText, #4d4d4d)" font-size="11.5" font-weight="300">2020</text></g><g class="gg-tick" transform="translate(354.91,0)"><text y="3" dy="0.71em" text-anchor="middle" fill="var(--gg-axisText, #4d4d4d)" font-size="11.5" font-weight="300">2022</text></g><g class="gg-tick" transform="translate(443.64,0)"><text y="3" dy="0.71em" text-anchor="middle" fill="var(--gg-axisText, #4d4d4d)" font-size="11.5" font-weight="300">2024</text></g></g><g class="gg-axis gg-axis-y" transform="translate(44,33)"><g class="gg-tick" transform="translate(0,327)"><text x="-3" dy="0.32em" text-anchor="end" fill="var(--gg-axisText, #4d4d4d)" font-size="11.5" font-weight="300">0</text></g><g class="gg-tick" transform="translate(0,286.13)"><text x="-3" dy="0.32em" text-anchor="end" fill="var(--gg-axisText, #4d4d4d)" font-size="11.5" font-weight="300">20</text></g><g class="gg-tick" transform="translate(0,245.25)"><text x="-3" dy="0.32em" text-anchor="end" fill="var(--gg-axisText, #4d4d4d)" font-size="11.5" font-weight="300">40</text></g><g class="gg-tick" transform="translate(0,204.38)"><text x="-3" dy="0.32em" text-anchor="end" fill="var(--gg-axisText, #4d4d4d)" font-size="11.5" font-weight="300">60</text></g><g class="gg-tick" transform="translate(0,163.5)"><text x="-3" dy="0.32em" text-anchor="end" fill="var(--gg-axisText, #4d4d4d)" font-size="11.5" font-weight="300">80</text></g><g class="gg-tick" transform="translate(0,122.63)"><text x="-3" dy="0.32em" text-anchor="end" fill="var(--gg-axisText, #4d4d4d)" font-size="11.5" font-weight="300">100</text></g><g class="gg-tick" transform="translate(0,81.75)"><text x="-3" dy="0.32em" text-anchor="end" fill="var(--gg-axisText, #4d4d4d)" font-size="11.5" font-weight="300">120</text></g><g class="gg-tick" transform="translate(0,40.88)"><text x="-3" dy="0.32em" text-anchor="end" fill="var(--gg-axisText, #4d4d4d)" font-size="11.5" font-weight="300">140</text></g><g class="gg-tick" transform="translate(0,0)"><text x="-3" dy="0.32em" text-anchor="end" fill="var(--gg-axisText, #4d4d4d)" font-size="11.5" font-weight="300">160</text></g></g><text class="gg-axis-title" x="288" y="392" text-anchor="middle" fill="var(--gg-ink, #262626)" font-size="9" font-weight="400">Year</text><text class="gg-axis-title" transform="translate(12,196.5) rotate(-90)" text-anchor="middle" fill="var(--gg-ink, #262626)" font-size="9" font-weight="400">Generation (TWh)</text><g class="gg-legend gg-legend-fill" transform="translate(557,33)"><text class="gg-legend-title" x="4" y="11" font-weight="bold" fill="var(--gg-ink, #262626)">Source</text><rect class="gg-legend-swatch" x="4" y="22" width="10" height="10" fill="#4269d0"/><text class="gg-legend-label" x="20" y="27" dy="0.32em" fill="var(--gg-ink, #262626)">fossil</text><rect class="gg-legend-swatch" x="4" y="40" width="10" height="10" fill="#efb118"/><text class="gg-legend-label" x="20" y="45" dy="0.32em" fill="var(--gg-ink, #262626)">nuclear</text><rect class="gg-legend-swatch" x="4" y="58" width="10" height="10" fill="#ff725c"/><text class="gg-legend-label" x="20" y="63" dy="0.32em" fill="var(--gg-ink, #262626)">renewables</text></g></svg>