<svg xmlns="http://www.w3.org/2000/svg" width="640" height="400" viewBox="0 0 640 400" role="img" aria-label="Reading spread by instrument" class="gg-plot" font-family="&quot;Roboto Condensed&quot;, &quot;Arial Narrow&quot;, Arial, sans-serif" font-size="11.5" font-weight="300" text-rendering="optimizeLegibility" shape-rendering="geometricPrecision"><title>Reading spread by instrument</title><style>
@font-face{font-family:"Roboto Condensed";src:url("../../../packages/svelte/src/lib/fonts/RobotoCondensed-Light.ttf") format("truetype");font-weight:300;font-style:normal}
@font-face{font-family:"Roboto Condensed";src:url("../../../packages/svelte/src/lib/fonts/RobotoCondensed-Regular.ttf") format("truetype");font-weight:400;font-style:normal}
@font-face{font-family:"Roboto Condensed";src:url("../../../packages/svelte/src/lib/fonts/RobotoCondensed-Bold.ttf") format("truetype");font-weight:700;font-style:normal}
</style><rect class="gg-paper" width="640" height="400" fill="var(--gg-paper, #ffffff)"/><text class="gg-title" x="36" y="18" font-size="18" font-weight="700" fill="var(--gg-ink, #262626)">Reading spread by instrument</text><defs><clipPath id="gg-clip-0"><rect width="584" height="327"/></clipPath></defs><g class="gg-panel" data-panel="0" transform="translate(36,33)"><rect class="gg-panel-background" width="584" height="327" fill="var(--gg-panel, #ffffff)"/><g class="gg-grid" stroke="var(--gg-grid, #cccccc)" stroke-width="0.4" vector-effect="non-scaling-stroke"><line x1="97.33" y1="0" x2="97.33" y2="327"/><line x1="292" y1="0" x2="292" y2="327"/><line x1="486.67" y1="0" x2="486.67" y2="327"/><line x1="0" y1="327" x2="584" y2="327"/><line x1="0" y1="286.13" x2="584" y2="286.13"/><line x1="0" y1="245.25" x2="584" y2="245.25"/><line x1="0" y1="204.38" x2="584" y2="204.38"/><line x1="0" y1="163.5" x2="584" y2="163.5"/><line x1="0" y1="122.63" x2="584" y2="122.63"/><line x1="0" y1="81.75" x2="584" y2="81.75"/><line x1="0" y1="40.88" x2="584" y2="40.88"/><line x1="0" y1="0" x2="584" y2="0"/></g><g class="gg-marks" clip-path="url(#gg-clip-0)"><g class="gg-batch gg-segments" data-layer="0"><line x1="97.33" y1="152.5" x2="97.33" y2="129.61" stroke="var(--gg-ink, #262626)" stroke-width="1"/><line x1="97.33" y1="173.22" x2="97.33" y2="189.29" stroke="var(--gg-ink, #262626)" stroke-width="1"/><line x1="292" y1="82.84" x2="292" y2="29.68" stroke="var(--gg-ink, #262626)" stroke-width="1"/><line x1="292" y1="120.27" x2="292" y2="144.13" stroke="var(--gg-ink, #262626)" stroke-width="1"/><line x1="486.67" y1="125.36" x2="486.67" y2="109.14" stroke="var(--gg-ink, #262626)" stroke-width="1"/><line x1="486.67" y1="138.61" x2="486.67" y2="151.07" stroke="var(--gg-ink, #262626)" stroke-width="1"/></g><g class="gg-batch gg-rects" data-layer="0"><rect x="9.73" y="152.5" width="175.2" height="20.71" fill="var(--gg-paper, #ffffff)" stroke="var(--gg-ink, #262626)" stroke-width="1"/><rect x="204.4" y="82.84" width="175.2" height="37.43" fill="var(--gg-paper, #ffffff)" stroke="var(--gg-ink, #262626)" stroke-width="1"/><rect x="399.07" y="125.36" width="175.2" height="13.24" fill="var(--gg-paper, #ffffff)" stroke="var(--gg-ink, #262626)" stroke-width="1"/></g><g class="gg-batch gg-segments" data-layer="0"><line x1="9.73" y1="166.71" x2="184.93" y2="166.71" stroke="var(--gg-ink, #262626)" stroke-width="2"/><line x1="204.4" y1="95.83" x2="379.6" y2="95.83" stroke="var(--gg-ink, #262626)" stroke-width="2"/><line x1="399.07" y1="133.29" x2="574.27" y2="133.29" stroke="var(--gg-ink, #262626)" stroke-width="2"/></g><g class="gg-batch gg-points" data-layer="0"><circle cx="97.33" cy="8.18" r="1.5" fill="var(--gg-ink, #262626)"/><circle cx="97.33" cy="306.56" r="1.5" fill="var(--gg-ink, #262626)"/><circle cx="486.67" cy="34.74" r="1.5" fill="var(--gg-ink, #262626)"/></g></g></g><g class="gg-axis gg-axis-x" transform="translate(36,360)"><g class="gg-tick" transform="translate(97.33,0)"><text y="3" dy="0.71em" text-anchor="middle" fill="var(--gg-axisText, #4d4d4d)" font-size="11.5" font-weight="300">alpha</text></g><g class="gg-tick" transform="translate(292,0)"><text y="3" dy="0.71em" text-anchor="middle" fill="var(--gg-axisText, #4d4d4d)" font-size="11.5" font-weight="300">beta</text></g><g class="gg-tick" transform="translate(486.67,0)"><text y="3" dy="0.71em" text-anchor="middle" fill="var(--gg-axisText, #4d4d4d)" font-size="11.5" font-weight="300">gamma</text></g></g><g class="gg-axis gg-axis-y" transform="translate(36,33)"><g class="gg-tick" transform="translate(0,327)"><text x="-3" dy="0.32em" text-anchor="end" fill="var(--gg-axisText, #4d4d4d)" font-size="11.5" font-weight="300">0</text></g><g class="gg-tick" transform="translate(0,286.13)"><text x="-3" dy="0.32em" text-anchor="end" fill="var(--gg-axisText, #4d4d4d)" font-size="11.5" font-weight="300">10</text></g><g class="gg-tick" transform="translate(0,245.25)"><text x="-3" dy="0.32em" text-anchor="end" fill="var(--gg-axisText, #4d4d4d)" font-size="11.5" font-weight="300">20</text></g><g class="gg-tick" transform="translate(0,204.38)"><text x="-3" dy="0.32em" text-anchor="end" fill="var(--gg-axisText, #4d4d4d)" font-size="11.5" font-weight="300">30</text></g><g class="gg-tick" transform="translate(0,163.5)"><text x="-3" dy="0.32em" text-anchor="end" fill="var(--gg-axisText, #4d4d4d)" font-size="11.5" font-weight="300">40</text></g><g class="gg-tick" transform="translate(0,122.63)"><text x="-3" dy="0.32em" text-anchor="end" fill="var(--gg-axisText, #4d4d4d)" font-size="11.5" font-weight="300">50</text></g><g class="gg-tick" transform="translate(0,81.75)"><text x="-3" dy="0.32em" text-anchor="end" fill="var(--gg-axisText, #4d4d4d)" font-size="11.5" font-weight="300">60</text></g><g class="gg-tick" transform="translate(0,40.88)"><text x="-3" dy="0.32em" text-anchor="end" fill="var(--gg-axisText, #4d4d4d)" font-size="11.5" font-weight="300">70</text></g><g class="gg-tick" transform="translate(0,0)"><text x="-3" dy="0.32em" text-anchor="end" fill="var(--gg-axisText, #4d4d4d)" font-size="11.5" font-weight="300">80</text></g></g><text class="gg-axis-title" x="328" y="392" text-anchor="middle" fill="var(--gg-ink, #262626)" font-size="9" font-weight="400">Instrument</text><text class="gg-axis-title" transform="translate(12,196.5) rotate(-90)" text-anchor="middle" fill="var(--gg-ink, #262626)" font-size="9" font-weight="400">Reading</text></svg>