<svg xmlns="http://www.w3.org/2000/svg" width="640" height="400" viewBox="0 0 640 400" role="img" aria-label="Primary language for data visualisation" class="gg-plot" font-family="&quot;Roboto Condensed&quot;, &quot;Arial Narrow&quot;, Arial, sans-serif" font-size="11.5" font-weight="300" text-rendering="optimizeLegibility" shape-rendering="geometricPrecision"><title>Primary language for data visualisation</title><style>
@font-face{font-family:"Roboto Condensed";src:url("../../../packages/svelte/src/lib/fonts/RobotoCondensed-Light.ttf") format("truetype");font-weight:300;font-style:normal}
@font-face{font-family:"Roboto Condensed";src:url("../../../packages/svelte/src/lib/fonts/RobotoCondensed-Regular.ttf") format("truetype");font-weight:400;font-style:normal}
@font-face{font-family:"Roboto Condensed";src:url("../../../packages/svelte/src/lib/fonts/RobotoCondensed-Bold.ttf") format("truetype");font-weight:700;font-style:normal}
</style><rect class="gg-paper" width="640" height="400" fill="var(--gg-paper, #ffffff)"/><text class="gg-title" x="44" y="18" font-size="18" font-weight="700" fill="var(--gg-ink, #262626)">Primary language for data visualisation</text><defs><clipPath id="gg-clip-0"><rect width="580" height="327"/></clipPath></defs><g class="gg-panel" data-panel="0" transform="translate(44,33)"><rect class="gg-panel-background" width="580" height="327" fill="var(--gg-panel, #ffffff)"/><g class="gg-grid" stroke="var(--gg-grid, #cccccc)" stroke-width="0.4" vector-effect="non-scaling-stroke"><line x1="36.25" y1="0" x2="36.25" y2="327"/><line x1="108.75" y1="0" x2="108.75" y2="327"/><line x1="181.25" y1="0" x2="181.25" y2="327"/><line x1="253.75" y1="0" x2="253.75" y2="327"/><line x1="326.25" y1="0" x2="326.25" y2="327"/><line x1="398.75" y1="0" x2="398.75" y2="327"/><line x1="471.25" y1="0" x2="471.25" y2="327"/><line x1="543.75" y1="0" x2="543.75" y2="327"/><line x1="0" y1="327" x2="580" y2="327"/><line x1="0" y1="276.69" x2="580" y2="276.69"/><line x1="0" y1="226.38" x2="580" y2="226.38"/><line x1="0" y1="176.08" x2="580" y2="176.08"/><line x1="0" y1="125.77" x2="580" y2="125.77"/><line x1="0" y1="75.46" x2="580" y2="75.46"/><line x1="0" y1="25.15" x2="580" y2="25.15"/></g><g class="gg-marks" clip-path="url(#gg-clip-0)"><g class="gg-batch gg-rects" data-layer="0"><rect x="3.63" y="19.12" width="65.25" height="307.88" fill="var(--gg-accent, #4385be)"/><rect x="76.13" y="83.51" width="65.25" height="243.49" fill="var(--gg-accent, #4385be)"/><rect x="148.63" y="127.78" width="65.25" height="199.22" fill="var(--gg-accent, #4385be)"/><rect x="221.13" y="199.22" width="65.25" height="127.78" fill="var(--gg-accent, #4385be)"/><rect x="293.63" y="277.7" width="65.25" height="49.3" fill="var(--gg-accent, #4385be)"/><rect x="366.13" y="284.74" width="65.25" height="42.26" fill="var(--gg-accent, #4385be)"/><rect x="438.63" y="303.86" width="65.25" height="23.14" fill="var(--gg-accent, #4385be)"/><rect x="511.13" y="313.92" width="65.25" height="13.08" fill="var(--gg-accent, #4385be)"/></g></g></g><g class="gg-axis gg-axis-x" transform="translate(44,360)"><g class="gg-tick" transform="translate(36.25,0)"><text y="3" dy="0.71em" text-anchor="middle" fill="var(--gg-axisText, #4d4d4d)" font-size="11.5" font-weight="300">TypeScript</text></g><g class="gg-tick" transform="translate(108.75,0)"><text y="3" dy="0.71em" text-anchor="middle" fill="var(--gg-axisText, #4d4d4d)" font-size="11.5" font-weight="300">Python</text></g><g class="gg-tick" transform="translate(181.25,0)"><text y="3" dy="0.71em" text-anchor="middle" fill="var(--gg-axisText, #4d4d4d)" font-size="11.5" font-weight="300">JavaScript</text></g><g class="gg-tick" transform="translate(253.75,0)"><text y="3" dy="0.71em" text-anchor="middle" fill="var(--gg-axisText, #4d4d4d)" font-size="11.5" font-weight="300">R</text></g><g class="gg-tick" transform="translate(326.25,0)"><text y="3" dy="0.71em" text-anchor="middle" fill="var(--gg-axisText, #4d4d4d)" font-size="11.5" font-weight="300">Rust</text></g><g class="gg-tick" transform="translate(398.75,0)"><text y="3" dy="0.71em" text-anchor="middle" fill="var(--gg-axisText, #4d4d4d)" font-size="11.5" font-weight="300">Go</text></g><g class="gg-tick" transform="translate(471.25,0)"><text y="3" dy="0.71em" text-anchor="middle" fill="var(--gg-axisText, #4d4d4d)" font-size="11.5" font-weight="300">Julia</text></g><g class="gg-tick" transform="translate(543.75,0)"><text y="3" dy="0.71em" text-anchor="middle" fill="var(--gg-axisText, #4d4d4d)" font-size="11.5" font-weight="300">Other</text></g></g><g class="gg-axis gg-axis-y" transform="translate(44,33)"><g class="gg-tick" transform="translate(0,327)"><text x="-3" dy="0.32em" text-anchor="end" fill="var(--gg-axisText, #4d4d4d)" font-size="11.5" font-weight="300">0</text></g><g class="gg-tick" transform="translate(0,276.69)"><text x="-3" dy="0.32em" text-anchor="end" fill="var(--gg-axisText, #4d4d4d)" font-size="11.5" font-weight="300">100</text></g><g class="gg-tick" transform="translate(0,226.38)"><text x="-3" dy="0.32em" text-anchor="end" fill="var(--gg-axisText, #4d4d4d)" font-size="11.5" font-weight="300">200</text></g><g class="gg-tick" transform="translate(0,176.08)"><text x="-3" dy="0.32em" text-anchor="end" fill="var(--gg-axisText, #4d4d4d)" font-size="11.5" font-weight="300">300</text></g><g class="gg-tick" transform="translate(0,125.77)"><text x="-3" dy="0.32em" text-anchor="end" fill="var(--gg-axisText, #4d4d4d)" font-size="11.5" font-weight="300">400</text></g><g class="gg-tick" transform="translate(0,75.46)"><text x="-3" dy="0.32em" text-anchor="end" fill="var(--gg-axisText, #4d4d4d)" font-size="11.5" font-weight="300">500</text></g><g class="gg-tick" transform="translate(0,25.15)"><text x="-3" dy="0.32em" text-anchor="end" fill="var(--gg-axisText, #4d4d4d)" font-size="11.5" font-weight="300">600</text></g></g><text class="gg-axis-title" x="334" y="392" text-anchor="middle" fill="var(--gg-ink, #262626)" font-size="9" font-weight="400">Language</text><text class="gg-axis-title" transform="translate(12,196.5) rotate(-90)" text-anchor="middle" fill="var(--gg-ink, #262626)" font-size="9" font-weight="400">Respondents</text></svg>