<svg xmlns="http://www.w3.org/2000/svg" width="640" height="400" viewBox="0 0 640 400" role="img" aria-label="It gets colder as you climb" class="gg-plot" font-family="&quot;Roboto Condensed&quot;, &quot;Arial Narrow&quot;, Arial, sans-serif" font-size="11.5" font-weight="300" text-rendering="optimizeLegibility" shape-rendering="geometricPrecision"><title>It gets colder as you climb</title><style>
@font-face{font-family:"Roboto Condensed";src:url("../../../packages/svelte/src/lib/fonts/RobotoCondensed-Light.ttf") format("truetype");font-weight:300;font-style:normal}
@font-face{font-family:"Roboto Condensed";src:url("../../../packages/svelte/src/lib/fonts/RobotoCondensed-Regular.ttf") format("truetype");font-weight:400;font-style:normal}
@font-face{font-family:"Roboto Condensed";src:url("../../../packages/svelte/src/lib/fonts/RobotoCondensed-Bold.ttf") format("truetype");font-weight:700;font-style:normal}
</style><rect class="gg-paper" width="640" height="400" fill="var(--gg-paper, #ffffff)"/><text class="gg-title" x="36" y="18" font-size="18" font-weight="700" fill="var(--gg-ink, #262626)">It gets colder as you climb</text><defs><clipPath id="gg-clip-0"><rect width="500" height="327"/></clipPath></defs><g class="gg-panel" data-panel="0" transform="translate(36,33)"><rect class="gg-panel-background" width="500" height="327" fill="var(--gg-panel, #ffffff)"/><g class="gg-grid" stroke="var(--gg-grid, #cccccc)" stroke-width="0.4" vector-effect="non-scaling-stroke"><line x1="53.57" y1="0" x2="53.57" y2="327"/><line x1="142.86" y1="0" x2="142.86" y2="327"/><line x1="232.14" y1="0" x2="232.14" y2="327"/><line x1="321.43" y1="0" x2="321.43" y2="327"/><line x1="410.71" y1="0" x2="410.71" y2="327"/><line x1="500" y1="0" x2="500" y2="327"/><line x1="0" y1="327" x2="500" y2="327"/><line x1="0" y1="297.27" x2="500" y2="297.27"/><line x1="0" y1="267.55" x2="500" y2="267.55"/><line x1="0" y1="237.82" x2="500" y2="237.82"/><line x1="0" y1="208.09" x2="500" y2="208.09"/><line x1="0" y1="178.36" x2="500" y2="178.36"/><line x1="0" y1="148.64" x2="500" y2="148.64"/><line x1="0" y1="118.91" x2="500" y2="118.91"/><line x1="0" y1="89.18" x2="500" y2="89.18"/><line x1="0" y1="59.45" x2="500" y2="59.45"/><line x1="0" y1="29.73" x2="500" y2="29.73"/><line x1="0" y1="0" x2="500" y2="0"/></g><g class="gg-marks" clip-path="url(#gg-clip-0)"><g class="gg-batch gg-points" data-layer="0"><circle cx="1.79" cy="1.49" r="4" fill="#440154"/><circle cx="25" cy="17.84" r="4" fill="#461163"/><circle cx="48.21" cy="31.21" r="4" fill="#472272"/><circle cx="75" cy="49.05" r="4" fill="#45337e"/><circle cx="103.57" cy="65.4" r="4" fill="#404486"/><circle cx="125.89" cy="75.8" r="4" fill="#3b518a"/><circle cx="150" cy="92.15" r="4" fill="#355e8c"/><circle cx="181.25" cy="108.5" r="4" fill="#2e6f8e"/><circle cx="208.93" cy="124.85" r="4" fill="#297c8e"/><circle cx="239.29" cy="142.69" r="4" fill="#248b8c"/><circle cx="271.43" cy="162.01" r="4" fill="#209b8a"/><circle cx="302.68" cy="179.85" r="4" fill="#29a982"/><circle cx="334.82" cy="199.17" r="4" fill="#37b878"/><circle cx="367.86" cy="219.98" r="4" fill="#59c664"/><circle cx="400" cy="239.3" r="4" fill="#7ed24e"/><circle cx="434.82" cy="261.6" r="4" fill="#aadc32"/><circle cx="466.07" cy="280.92" r="4" fill="#d3e228"/><circle cx="498.21" cy="301.73" r="4" fill="#fde725"/></g></g></g><g class="gg-axis gg-axis-x" transform="translate(36,360)"><g class="gg-tick" transform="translate(53.57,0)"><text y="3" dy="0.71em" text-anchor="middle" fill="var(--gg-axisText, #4d4d4d)" font-size="11.5" font-weight="300">500</text></g><g class="gg-tick" transform="translate(142.86,0)"><text y="3" dy="0.71em" text-anchor="middle" fill="var(--gg-axisText, #4d4d4d)" font-size="11.5" font-weight="300">1,000</text></g><g class="gg-tick" transform="translate(232.14,0)"><text y="3" dy="0.71em" text-anchor="middle" fill="var(--gg-axisText, #4d4d4d)" font-size="11.5" font-weight="300">1,500</text></g><g class="gg-tick" transform="translate(321.43,0)"><text y="3" dy="0.71em" text-anchor="middle" fill="var(--gg-axisText, #4d4d4d)" font-size="11.5" font-weight="300">2,000</text></g><g class="gg-tick" transform="translate(410.71,0)"><text y="3" dy="0.71em" text-anchor="middle" fill="var(--gg-axisText, #4d4d4d)" font-size="11.5" font-weight="300">2,500</text></g><g class="gg-tick" transform="translate(500,0)"><text y="3" dy="0.71em" text-anchor="middle" fill="var(--gg-axisText, #4d4d4d)" font-size="11.5" font-weight="300">3,000</text></g></g><g class="gg-axis gg-axis-y" transform="translate(36,33)"><g class="gg-tick" transform="translate(0,327)"><text x="-3" dy="0.32em" text-anchor="end" fill="var(--gg-axisText, #4d4d4d)" font-size="11.5" font-weight="300">2</text></g><g class="gg-tick" transform="translate(0,297.27)"><text x="-3" dy="0.32em" text-anchor="end" fill="var(--gg-axisText, #4d4d4d)" font-size="11.5" font-weight="300">4</text></g><g class="gg-tick" transform="translate(0,267.55)"><text x="-3" dy="0.32em" text-anchor="end" fill="var(--gg-axisText, #4d4d4d)" font-size="11.5" font-weight="300">6</text></g><g class="gg-tick" transform="translate(0,237.82)"><text x="-3" dy="0.32em" text-anchor="end" fill="var(--gg-axisText, #4d4d4d)" font-size="11.5" font-weight="300">8</text></g><g class="gg-tick" transform="translate(0,208.09)"><text x="-3" dy="0.32em" text-anchor="end" fill="var(--gg-axisText, #4d4d4d)" font-size="11.5" font-weight="300">10</text></g><g class="gg-tick" transform="translate(0,178.36)"><text x="-3" dy="0.32em" text-anchor="end" fill="var(--gg-axisText, #4d4d4d)" font-size="11.5" font-weight="300">12</text></g><g class="gg-tick" transform="translate(0,148.64)"><text x="-3" dy="0.32em" text-anchor="end" fill="var(--gg-axisText, #4d4d4d)" font-size="11.5" font-weight="300">14</text></g><g class="gg-tick" transform="translate(0,118.91)"><text x="-3" dy="0.32em" text-anchor="end" fill="var(--gg-axisText, #4d4d4d)" font-size="11.5" font-weight="300">16</text></g><g class="gg-tick" transform="translate(0,89.18)"><text x="-3" dy="0.32em" text-anchor="end" fill="var(--gg-axisText, #4d4d4d)" font-size="11.5" font-weight="300">18</text></g><g class="gg-tick" transform="translate(0,59.45)"><text x="-3" dy="0.32em" text-anchor="end" fill="var(--gg-axisText, #4d4d4d)" font-size="11.5" font-weight="300">20</text></g><g class="gg-tick" transform="translate(0,29.73)"><text x="-3" dy="0.32em" text-anchor="end" fill="var(--gg-axisText, #4d4d4d)" font-size="11.5" font-weight="300">22</text></g><g class="gg-tick" transform="translate(0,0)"><text x="-3" dy="0.32em" text-anchor="end" fill="var(--gg-axisText, #4d4d4d)" font-size="11.5" font-weight="300">24</text></g></g><text class="gg-axis-title" x="286" y="392" text-anchor="middle" fill="var(--gg-ink, #262626)" font-size="9" font-weight="400">Elevation (m)</text><text class="gg-axis-title" transform="translate(12,196.5) rotate(-90)" text-anchor="middle" fill="var(--gg-ink, #262626)" font-size="9" font-weight="400">July mean temperature (°C)</text><g class="gg-legend gg-legend-color" transform="translate(565,33)"><text class="gg-legend-title" x="4" y="11" font-weight="bold" fill="var(--gg-ink, #262626)">Elevation (m)</text><defs><linearGradient id="gg-ramp-color" x1="0" y1="0" x2="0" y2="1"><stop offset="0%" stop-color="#fde725"/><stop offset="11.11%" stop-color="#b5de2b"/><stop offset="22.22%" stop-color="#6ece58"/><stop offset="33.33%" stop-color="#35b779"/><stop offset="44.44%" stop-color="#1f9e89"/><stop offset="55.56%" stop-color="#26828e"/><stop offset="66.67%" stop-color="#31688e"/><stop offset="77.78%" stop-color="#3e4989"/><stop offset="88.89%" stop-color="#482878"/><stop offset="100%" stop-color="#440154"/></linearGradient></defs><rect class="gg-legend-ramp" x="4" y="18" width="12" height="96" fill="url(#gg-ramp-color)"/><text class="gg-legend-label" x="22" y="103.99" dy="0.32em" fill="var(--gg-ink, #262626)">500</text><text class="gg-legend-label" x="22" y="86.72" dy="0.32em" fill="var(--gg-ink, #262626)">1,000</text><text class="gg-legend-label" x="22" y="69.45" dy="0.32em" fill="var(--gg-ink, #262626)">1,500</text><text class="gg-legend-label" x="22" y="52.19" dy="0.32em" fill="var(--gg-ink, #262626)">2,000</text><text class="gg-legend-label" x="22" y="34.92" dy="0.32em" fill="var(--gg-ink, #262626)">2,500</text></g></svg>