<svg xmlns="http://www.w3.org/2000/svg" width="640" height="400" viewBox="0 0 640 400" role="img" aria-label="Session length by cohort" class="gg-plot" font-family="&quot;Roboto Condensed&quot;, &quot;Arial Narrow&quot;, Arial, sans-serif" font-size="11.5" font-weight="300" text-rendering="optimizeLegibility" shape-rendering="geometricPrecision"><title>Session length by cohort</title><style>
@font-face{font-family:"Roboto Condensed";src:url("../../../packages/svelte/src/lib/fonts/RobotoCondensed-Light.ttf") format("truetype");font-weight:300;font-style:normal}
@font-face{font-family:"Roboto Condensed";src:url("../../../packages/svelte/src/lib/fonts/RobotoCondensed-Regular.ttf") format("truetype");font-weight:400;font-style:normal}
@font-face{font-family:"Roboto Condensed";src:url("../../../packages/svelte/src/lib/fonts/RobotoCondensed-Bold.ttf") format("truetype");font-weight:700;font-style:normal}
</style><rect class="gg-paper" width="640" height="400" fill="var(--gg-paper, #ffffff)"/><text class="gg-title" x="48" y="18" font-size="18" font-weight="700" fill="var(--gg-ink, #262626)">Session length by cohort</text><defs><clipPath id="gg-clip-0"><rect width="508" height="327"/></clipPath></defs><g class="gg-panel" data-panel="0" transform="translate(48,33)"><rect class="gg-panel-background" width="508" height="327" fill="var(--gg-panel, #ffffff)"/><g class="gg-grid" stroke="var(--gg-grid, #cccccc)" stroke-width="0.4" vector-effect="non-scaling-stroke"><line x1="0" y1="0" x2="0" y2="327"/><line x1="97.69" y1="0" x2="97.69" y2="327"/><line x1="195.38" y1="0" x2="195.38" y2="327"/><line x1="293.08" y1="0" x2="293.08" y2="327"/><line x1="390.77" y1="0" x2="390.77" y2="327"/><line x1="488.46" y1="0" x2="488.46" y2="327"/><line x1="0" y1="327" x2="508" y2="327"/><line x1="0" y1="294.3" x2="508" y2="294.3"/><line x1="0" y1="261.6" x2="508" y2="261.6"/><line x1="0" y1="228.9" x2="508" y2="228.9"/><line x1="0" y1="196.2" x2="508" y2="196.2"/><line x1="0" y1="163.5" x2="508" y2="163.5"/><line x1="0" y1="130.8" x2="508" y2="130.8"/><line x1="0" y1="98.1" x2="508" y2="98.1"/><line x1="0" y1="65.4" x2="508" y2="65.4"/><line x1="0" y1="32.7" x2="508" y2="32.7"/><line x1="0" y1="0" x2="508" y2="0"/></g><g class="gg-marks" clip-path="url(#gg-clip-0)"><g class="gg-batch gg-areas" data-layer="0" opacity="0.45"><path d="M36.11 326.87L36.67 326.86L37.23 326.84L37.79 326.82L38.36 326.8L38.92 326.77L39.48 326.74L40.04 326.71L40.6 326.68L41.16 326.64L41.73 326.6L42.29 326.55L42.85 326.5L43.41 326.45L43.97 326.39L44.54 326.32L45.1 326.25L45.66 326.17L46.22 326.08L46.78 325.98L47.34 325.88L47.91 325.76L48.47 325.64L49.03 325.51L49.59 325.36L50.15 325.2L50.72 325.03L51.28 324.85L51.84 324.65L52.4 324.44L52.96 324.21L53.53 323.96L54.09 323.69L54.65 323.41L55.21 323.11L55.77 322.78L56.33 322.43L56.9 322.06L57.46 321.67L58.02 321.25L58.58 320.81L59.14 320.34L59.71 319.84L60.27 319.31L60.83 318.75L61.39 318.16L61.95 317.54L62.51 316.88L63.08 316.2L63.64 315.47L64.2 314.72L64.76 313.92L65.32 313.09L65.89 312.22L66.45 311.32L67.01 310.37L67.57 309.39L68.13 308.37L68.69 307.3L69.26 306.2L69.82 305.06L70.38 303.88L70.94 302.66L71.5 301.4L72.07 300.1L72.63 298.76L73.19 297.38L73.75 295.97L74.31 294.51L74.87 293.02L75.44 291.5L76 289.94L76.56 288.35L77.12 286.72L77.68 285.07L78.25 283.38L78.81 281.67L79.37 279.93L79.93 278.16L80.49 276.37L81.05 274.56L81.62 272.73L82.18 270.88L82.74 269.01L83.3 267.14L83.86 265.24L84.43 263.34L84.99 261.44L85.55 259.52L86.11 257.6L86.67 255.68L87.23 253.77L87.8 251.85L88.36 249.94L88.92 248.04L89.48 246.15L90.04 244.27L90.61 242.4L91.17 240.55L91.73 238.71L92.29 236.9L92.85 235.11L93.42 233.34L93.98 231.59L94.54 229.87L95.1 228.18L95.66 226.53L96.22 224.9L96.79 223.3L97.35 221.74L97.91 220.21L98.47 218.72L99.03 217.27L99.6 215.85L100.16 214.47L100.72 213.13L101.28 211.83L101.84 210.57L102.4 209.34L102.97 208.16L103.53 207.01L104.09 205.9L104.65 204.83L105.21 203.8L105.78 202.8L106.34 201.84L106.9 200.91L107.46 200.02L108.02 199.15L108.58 198.32L109.15 197.51L109.71 196.73L110.27 195.97L110.83 195.24L111.39 194.52L111.96 193.82L112.52 193.14L113.08 192.47L113.64 191.81L114.2 191.15L114.76 190.5L115.33 189.85L115.89 189.2L116.45 188.55L117.01 187.89L117.57 187.21L118.14 186.53L118.7 185.83L119.26 185.11L119.82 184.37L120.38 183.61L120.94 182.82L121.51 182L122.07 181.15L122.63 180.27L123.19 179.35L123.75 178.4L124.32 177.41L124.88 176.38L125.44 175.3L126 174.19L126.56 173.03L127.12 171.83L127.69 170.58L128.25 169.29L128.81 167.96L129.37 166.57L129.93 165.15L130.5 163.68L131.06 162.16L131.62 160.61L132.18 159.01L132.74 157.37L133.31 155.69L133.87 153.97L134.43 152.21L134.99 150.42L135.55 148.59L136.11 146.74L136.68 144.85L137.24 142.93L137.8 140.99L138.36 139.02L138.92 137.03L139.49 135.02L140.05 132.99L140.61 130.95L141.17 128.88L141.73 126.81L142.29 124.72L142.86 122.63L143.42 120.53L143.98 118.42L144.54 116.3L145.1 114.19L145.67 112.07L146.23 109.95L146.79 107.83L147.35 105.71L147.91 103.6L148.47 101.49L149.04 99.39L149.6 97.29L150.16 95.2L150.72 93.12L151.28 91.04L151.85 88.98L152.41 86.93L152.97 84.88L153.53 82.86L154.09 80.84L154.65 78.84L155.22 76.85L155.78 74.88L156.34 72.93L156.9 70.99L157.46 69.08L158.03 67.18L158.59 65.31L159.15 63.46L159.71 61.64L160.27 59.85L160.83 58.09L161.4 56.36L161.96 54.66L162.52 53L163.08 51.38L163.64 49.8L164.21 48.27L164.77 46.78L165.33 45.35L165.89 43.97L166.45 42.64L167.01 41.37L167.58 40.17L168.14 39.04L168.7 37.97L169.26 36.98L169.82 36.06L170.39 35.22L170.95 34.46L171.51 33.79L172.07 33.21L172.63 32.72L173.2 32.32L173.76 32.02L174.32 31.81L174.88 31.71L175.44 31.71L176 31.81L176.57 32.02L177.13 32.33L177.69 32.75L178.25 33.28L178.81 33.91L179.38 34.65L179.94 35.5L180.5 36.45L181.06 37.5L181.62 38.66L182.18 39.91L182.75 41.27L183.31 42.71L183.87 44.25L184.43 45.88L184.99 47.59L185.56 49.39L186.12 51.26L186.68 53.2L187.24 55.22L187.8 57.29L188.36 59.43L188.93 61.62L189.49 63.86L190.05 66.14L190.61 68.46L191.17 70.81L191.74 73.2L192.3 75.6L192.86 78.03L193.42 80.46L193.98 82.91L194.54 85.35L195.11 87.8L195.67 90.24L196.23 92.67L196.79 95.08L197.35 97.48L197.92 99.85L198.48 102.2L199.04 104.52L199.6 106.81L200.16 109.07L200.72 111.29L201.29 113.47L201.85 115.62L202.41 117.72L202.97 119.78L203.53 121.8L204.1 123.78L204.66 125.71L205.22 127.6L205.78 129.45L206.34 131.25L206.9 133.02L207.47 134.74L208.03 136.43L208.59 138.08L209.15 139.7L209.71 141.28L210.28 142.84L210.84 144.36L211.4 145.87L211.96 147.34L212.52 148.8L213.09 150.24L213.65 151.67L214.21 153.08L214.77 154.49L215.33 155.89L215.89 157.29L216.46 158.69L217.02 160.09L217.58 161.5L218.14 162.92L218.7 164.34L219.27 165.78L219.83 167.24L220.39 168.72L220.95 170.21L221.51 171.73L222.07 173.27L222.64 174.84L223.2 176.43L223.76 178.05L224.32 179.71L224.88 181.38L225.45 183.09L226.01 184.83L226.57 186.61L227.13 188.41L227.69 190.24L228.25 192.1L228.82 193.98L229.38 195.9L229.94 197.84L230.5 199.81L231.06 201.8L231.63 203.81L232.19 205.85L232.75 207.9L233.31 209.97L233.87 212.05L234.43 214.14L235 216.25L235.56 218.36L236.12 220.47L236.68 222.59L237.24 224.7L237.81 226.82L238.37 228.93L238.93 231.03L239.49 233.12L240.05 235.19L240.61 237.25L241.18 239.29L241.74 241.32L242.3 243.31L242.86 245.29L243.42 247.24L243.99 249.15L244.55 251.04L245.11 252.9L245.67 254.72L246.23 256.5L246.79 258.25L247.36 259.96L247.92 261.63L248.48 263.26L249.04 264.85L249.6 266.39L250.17 267.9L250.73 269.36L251.29 270.78L251.85 272.15L252.41 273.48L252.98 274.77L253.54 276.01L254.1 277.22L254.66 278.38L255.22 279.5L255.78 280.57L256.35 281.61L256.91 282.61L257.47 283.57L258.03 284.5L258.59 285.38L259.16 286.24L259.72 287.06L260.28 287.85L260.84 288.61L261.4 289.34L261.96 290.05L262.53 290.72L263.09 291.38L263.65 292.01L264.21 292.63L264.77 293.22L265.34 293.8L265.9 294.36L266.46 294.91L267.02 295.44L267.58 295.96L268.14 296.48L268.71 296.98L269.27 297.48L269.83 297.98L270.39 298.46L270.95 298.95L271.52 299.43L272.08 299.92L272.64 300.4L273.2 300.88L273.76 301.36L274.32 301.85L274.89 302.33L275.45 302.82L276.01 303.32L276.57 303.81L277.13 304.31L277.7 304.82L278.26 305.32L278.82 305.83L279.38 306.35L279.94 306.86L280.5 307.38L281.07 307.9L281.63 308.42L282.19 308.95L282.75 309.47L283.31 310L283.88 310.52L284.44 311.04L285 311.57L285.56 312.08L286.12 312.6L286.69 313.11L287.25 313.62L287.81 314.12L288.37 314.62L288.93 315.11L289.49 315.6L290.06 316.07L290.62 316.54L291.18 317L291.74 317.45L292.3 317.89L292.87 318.32L293.43 318.73L293.99 319.14L294.55 319.54L295.11 319.92L295.67 320.3L296.24 320.66L296.8 321.01L297.36 321.34L297.92 321.67L298.48 321.98L299.05 322.28L299.61 322.56L300.17 322.84L300.73 323.1L301.29 323.35L301.85 323.59L302.42 323.81L302.98 324.03L303.54 324.23L304.1 324.43L304.66 324.61L305.23 324.78L305.79 324.95L306.35 325.1L306.91 325.24L307.47 325.38L308.03 325.51L308.6 325.62L309.16 325.74L309.72 325.84L310.28 325.94L310.84 326.02L311.41 326.11L311.97 326.19L312.53 326.26L313.09 326.32L313.65 326.38L314.21 326.44L314.78 326.49L315.34 326.54L315.9 326.58L316.46 326.62L317.02 326.66L317.59 326.69L318.15 326.72L318.71 326.75L319.27 326.78L319.83 326.8L320.39 326.82L320.96 326.84L321.52 326.86L322.08 326.87L322.64 326.89L323.2 326.9L323.2 327L322.64 327L322.08 327L321.52 327L320.96 327L320.39 327L319.83 327L319.27 327L318.71 327L318.15 327L317.59 327L317.02 327L316.46 327L315.9 327L315.34 327L314.78 327L314.21 327L313.65 327L313.09 327L312.53 327L311.97 327L311.41 327L310.84 327L310.28 327L309.72 327L309.16 327L308.6 327L308.03 327L307.47 327L306.91 327L306.35 327L305.79 327L305.23 327L304.66 327L304.1 327L303.54 327L302.98 327L302.42 327L301.85 327L301.29 327L300.73 327L300.17 327L299.61 327L299.05 327L298.48 327L297.92 327L297.36 327L296.8 327L296.24 327L295.67 327L295.11 327L294.55 327L293.99 327L293.43 327L292.87 327L292.3 327L291.74 327L291.18 327L290.62 327L290.06 327L289.49 327L288.93 327L288.37 327L287.81 327L287.25 327L286.69 327L286.12 327L285.56 327L285 327L284.44 327L283.88 327L283.31 327L282.75 327L282.19 327L281.63 327L281.07 327L280.5 327L279.94 327L279.38 327L278.82 327L278.26 327L277.7 327L277.13 327L276.57 327L276.01 327L275.45 327L274.89 327L274.32 327L273.76 327L273.2 327L272.64 327L272.08 327L271.52 327L270.95 327L270.39 327L269.83 327L269.27 327L268.71 327L268.14 327L267.58 327L267.02 327L266.46 327L265.9 327L265.34 327L264.77 327L264.21 327L263.65 327L263.09 327L262.53 327L261.96 327L261.4 327L260.84 327L260.28 327L259.72 327L259.16 327L258.59 327L258.03 327L257.47 327L256.91 327L256.35 327L255.78 327L255.22 327L254.66 327L254.1 327L253.54 327L252.98 327L252.41 327L251.85 327L251.29 327L250.73 327L250.17 327L249.6 327L249.04 327L248.48 327L247.92 327L247.36 327L246.79 327L246.23 327L245.67 327L245.11 327L244.55 327L243.99 327L243.42 327L242.86 327L242.3 327L241.74 327L241.18 327L240.61 327L240.05 327L239.49 327L238.93 327L238.37 327L237.81 327L237.24 327L236.68 327L236.12 327L235.56 327L235 327L234.43 327L233.87 327L233.31 327L232.75 327L232.19 327L231.63 327L231.06 327L230.5 327L229.94 327L229.38 327L228.82 327L228.25 327L227.69 327L227.13 327L226.57 327L226.01 327L225.45 327L224.88 327L224.32 327L223.76 327L223.2 327L222.64 327L222.07 327L221.51 327L220.95 327L220.39 327L219.83 327L219.27 327L218.7 327L218.14 327L217.58 327L217.02 327L216.46 327L215.89 327L215.33 327L214.77 327L214.21 327L213.65 327L213.09 327L212.52 327L211.96 327L211.4 327L210.84 327L210.28 327L209.71 327L209.15 327L208.59 327L208.03 327L207.47 327L206.9 327L206.34 327L205.78 327L205.22 327L204.66 327L204.1 327L203.53 327L202.97 327L202.41 327L201.85 327L201.29 327L200.72 327L200.16 327L199.6 327L199.04 327L198.48 327L197.92 327L197.35 327L196.79 327L196.23 327L195.67 327L195.11 327L194.54 327L193.98 327L193.42 327L192.86 327L192.3 327L191.74 327L191.17 327L190.61 327L190.05 327L189.49 327L188.93 327L188.36 327L187.8 327L187.24 327L186.68 327L186.12 327L185.56 327L184.99 327L184.43 327L183.87 327L183.31 327L182.75 327L182.18 327L181.62 327L181.06 327L180.5 327L179.94 327L179.38 327L178.81 327L178.25 327L177.69 327L177.13 327L176.57 327L176 327L175.44 327L174.88 327L174.32 327L173.76 327L173.2 327L172.63 327L172.07 327L171.51 327L170.95 327L170.39 327L169.82 327L169.26 327L168.7 327L168.14 327L167.58 327L167.01 327L166.45 327L165.89 327L165.33 327L164.77 327L164.21 327L163.64 327L163.08 327L162.52 327L161.96 327L161.4 327L160.83 327L160.27 327L159.71 327L159.15 327L158.59 327L158.03 327L157.46 327L156.9 327L156.34 327L155.78 327L155.22 327L154.65 327L154.09 327L153.53 327L152.97 327L152.41 327L151.85 327L151.28 327L150.72 327L150.16 327L149.6 327L149.04 327L148.47 327L147.91 327L147.35 327L146.79 327L146.23 327L145.67 327L145.1 327L144.54 327L143.98 327L143.42 327L142.86 327L142.29 327L141.73 327L141.17 327L140.61 327L140.05 327L139.49 327L138.92 327L138.36 327L137.8 327L137.24 327L136.68 327L136.11 327L135.55 327L134.99 327L134.43 327L133.87 327L133.31 327L132.74 327L132.18 327L131.62 327L131.06 327L130.5 327L129.93 327L129.37 327L128.81 327L128.25 327L127.69 327L127.12 327L126.56 327L126 327L125.44 327L124.88 327L124.32 327L123.75 327L123.19 327L122.63 327L122.07 327L121.51 327L120.94 327L120.38 327L119.82 327L119.26 327L118.7 327L118.14 327L117.57 327L117.01 327L116.45 327L115.89 327L115.33 327L114.76 327L114.2 327L113.64 327L113.08 327L112.52 327L111.96 327L111.39 327L110.83 327L110.27 327L109.71 327L109.15 327L108.58 327L108.02 327L107.46 327L106.9 327L106.34 327L105.78 327L105.21 327L104.65 327L104.09 327L103.53 327L102.97 327L102.4 327L101.84 327L101.28 327L100.72 327L100.16 327L99.6 327L99.03 327L98.47 327L97.91 327L97.35 327L96.79 327L96.22 327L95.66 327L95.1 327L94.54 327L93.98 327L93.42 327L92.85 327L92.29 327L91.73 327L91.17 327L90.61 327L90.04 327L89.48 327L88.92 327L88.36 327L87.8 327L87.23 327L86.67 327L86.11 327L85.55 327L84.99 327L84.43 327L83.86 327L83.3 327L82.74 327L82.18 327L81.62 327L81.05 327L80.49 327L79.93 327L79.37 327L78.81 327L78.25 327L77.68 327L77.12 327L76.56 327L76 327L75.44 327L74.87 327L74.31 327L73.75 327L73.19 327L72.63 327L72.07 327L71.5 327L70.94 327L70.38 327L69.82 327L69.26 327L68.69 327L68.13 327L67.57 327L67.01 327L66.45 327L65.89 327L65.32 327L64.76 327L64.2 327L63.64 327L63.08 327L62.51 327L61.95 327L61.39 327L60.83 327L60.27 327L59.71 327L59.14 327L58.58 327L58.02 327L57.46 327L56.9 327L56.33 327L55.77 327L55.21 327L54.65 327L54.09 327L53.53 327L52.96 327L52.4 327L51.84 327L51.28 327L50.72 327L50.15 327L49.59 327L49.03 327L48.47 327L47.91 327L47.34 327L46.78 327L46.22 327L45.66 327L45.1 327L44.54 327L43.97 327L43.41 327L42.85 327L42.29 327L41.73 327L41.16 327L40.6 327L40.04 327L39.48 327L38.92 327L38.36 327L37.79 327L37.23 327L36.67 327L36.11 327Z" fill="#4269d0" stroke="none"/><path d="M118.29 326.84L119.05 326.82L119.81 326.8L120.57 326.77L121.33 326.74L122.09 326.71L122.85 326.67L123.61 326.63L124.37 326.59L125.13 326.54L125.89 326.48L126.65 326.42L127.41 326.35L128.17 326.28L128.93 326.2L129.7 326.11L130.46 326.02L131.22 325.92L131.98 325.81L132.74 325.68L133.5 325.55L134.26 325.41L135.02 325.26L135.78 325.1L136.54 324.92L137.3 324.74L138.06 324.54L138.82 324.33L139.58 324.1L140.34 323.86L141.1 323.61L141.86 323.34L142.63 323.06L143.39 322.76L144.15 322.45L144.91 322.12L145.67 321.78L146.43 321.42L147.19 321.05L147.95 320.66L148.71 320.27L149.47 319.85L150.23 319.43L150.99 318.99L151.75 318.54L152.51 318.08L153.27 317.61L154.03 317.13L154.79 316.64L155.56 316.14L156.32 315.64L157.08 315.13L157.84 314.62L158.6 314.11L159.36 313.59L160.12 313.08L160.88 312.56L161.64 312.05L162.4 311.54L163.16 311.04L163.92 310.55L164.68 310.06L165.44 309.58L166.2 309.11L166.96 308.65L167.72 308.21L168.49 307.77L169.25 307.35L170.01 306.95L170.77 306.56L171.53 306.18L172.29 305.82L173.05 305.48L173.81 305.15L174.57 304.84L175.33 304.54L176.09 304.26L176.85 303.99L177.61 303.74L178.37 303.5L179.13 303.27L179.89 303.06L180.65 302.85L181.41 302.66L182.18 302.47L182.94 302.29L183.7 302.12L184.46 301.95L185.22 301.79L185.98 301.63L186.74 301.46L187.5 301.3L188.26 301.13L189.02 300.96L189.78 300.78L190.54 300.6L191.3 300.4L192.06 300.2L192.82 299.98L193.58 299.75L194.34 299.5L195.11 299.23L195.87 298.95L196.63 298.64L197.39 298.32L198.15 297.97L198.91 297.6L199.67 297.2L200.43 296.78L201.19 296.32L201.95 295.84L202.71 295.33L203.47 294.79L204.23 294.22L204.99 293.62L205.75 292.99L206.51 292.32L207.27 291.61L208.04 290.88L208.8 290.11L209.56 289.3L210.32 288.46L211.08 287.59L211.84 286.68L212.6 285.73L213.36 284.75L214.12 283.74L214.88 282.7L215.64 281.62L216.4 280.51L217.16 279.37L217.92 278.2L218.68 277L219.44 275.78L220.2 274.53L220.97 273.25L221.73 271.95L222.49 270.63L223.25 269.29L224.01 267.93L224.77 266.55L225.53 265.16L226.29 263.75L227.05 262.33L227.81 260.9L228.57 259.47L229.33 258.02L230.09 256.57L230.85 255.12L231.61 253.66L232.37 252.2L233.13 250.74L233.9 249.28L234.66 247.83L235.42 246.37L236.18 244.92L236.94 243.47L237.7 242.02L238.46 240.58L239.22 239.14L239.98 237.7L240.74 236.27L241.5 234.84L242.26 233.41L243.02 231.98L243.78 230.55L244.54 229.12L245.3 227.69L246.06 226.25L246.83 224.81L247.59 223.37L248.35 221.92L249.11 220.45L249.87 218.98L250.63 217.5L251.39 216L252.15 214.49L252.91 212.96L253.67 211.41L254.43 209.85L255.19 208.26L255.95 206.66L256.71 205.03L257.47 203.38L258.23 201.7L258.99 200L259.75 198.28L260.52 196.53L261.28 194.75L262.04 192.95L262.8 191.12L263.56 189.27L264.32 187.4L265.08 185.5L265.84 183.57L266.6 181.63L267.36 179.66L268.12 177.67L268.88 175.67L269.64 173.65L270.4 171.61L271.16 169.55L271.92 167.49L272.68 165.42L273.45 163.33L274.21 161.25L274.97 159.15L275.73 157.06L276.49 154.96L277.25 152.87L278.01 150.78L278.77 148.7L279.53 146.63L280.29 144.57L281.05 142.52L281.81 140.48L282.57 138.46L283.33 136.46L284.09 134.48L284.85 132.52L285.61 130.58L286.38 128.67L287.14 126.79L287.9 124.93L288.66 123.1L289.42 121.29L290.18 119.52L290.94 117.78L291.7 116.07L292.46 114.4L293.22 112.76L293.98 111.15L294.74 109.58L295.5 108.05L296.26 106.56L297.02 105.1L297.78 103.68L298.54 102.31L299.31 100.97L300.07 99.68L300.83 98.43L301.59 97.23L302.35 96.08L303.11 94.97L303.87 93.92L304.63 92.92L305.39 91.98L306.15 91.1L306.91 90.27L307.67 89.51L308.43 88.82L309.19 88.19L309.95 87.64L310.71 87.17L311.47 86.77L312.24 86.45L313 86.22L313.76 86.07L314.52 86.02L315.28 86.06L316.04 86.2L316.8 86.44L317.56 86.78L318.32 87.23L319.08 87.79L319.84 88.45L320.6 89.23L321.36 90.11L322.12 91.12L322.88 92.24L323.64 93.47L324.4 94.82L325.16 96.28L325.93 97.86L326.69 99.55L327.45 101.36L328.21 103.27L328.97 105.29L329.73 107.42L330.49 109.64L331.25 111.97L332.01 114.39L332.77 116.89L333.53 119.49L334.29 122.16L335.05 124.91L335.81 127.72L336.57 130.6L337.33 133.54L338.09 136.52L338.86 139.55L339.62 142.62L340.38 145.71L341.14 148.84L341.9 151.97L342.66 155.12L343.42 158.27L344.18 161.42L344.94 164.56L345.7 167.68L346.46 170.78L347.22 173.85L347.98 176.89L348.74 179.88L349.5 182.83L350.26 185.72L351.02 188.56L351.79 191.33L352.55 194.04L353.31 196.67L354.07 199.23L354.83 201.71L355.59 204.11L356.35 206.42L357.11 208.64L357.87 210.78L358.63 212.82L359.39 214.76L360.15 216.61L360.91 218.37L361.67 220.02L362.43 221.58L363.19 223.05L363.95 224.41L364.72 225.68L365.48 226.86L366.24 227.94L367 228.93L367.76 229.83L368.52 230.64L369.28 231.37L370.04 232.02L370.8 232.59L371.56 233.09L372.32 233.51L373.08 233.87L373.84 234.16L374.6 234.39L375.36 234.57L376.12 234.7L376.88 234.78L377.65 234.81L378.41 234.81L379.17 234.78L379.93 234.72L380.69 234.63L381.45 234.53L382.21 234.41L382.97 234.28L383.73 234.14L384.49 234L385.25 233.86L386.01 233.72L386.77 233.59L387.53 233.48L388.29 233.37L389.05 233.29L389.81 233.22L390.58 233.18L391.34 233.16L392.1 233.17L392.86 233.21L393.62 233.27L394.38 233.37L395.14 233.5L395.9 233.66L396.66 233.86L397.42 234.09L398.18 234.35L398.94 234.65L399.7 234.98L400.46 235.34L401.22 235.74L401.98 236.18L402.74 236.64L403.5 237.14L404.27 237.67L405.03 238.24L405.79 238.83L406.55 239.45L407.31 240.1L408.07 240.79L408.83 241.49L409.59 242.23L410.35 242.99L411.11 243.78L411.87 244.59L412.63 245.43L413.39 246.29L414.15 247.17L414.91 248.08L415.67 249L416.43 249.95L417.2 250.92L417.96 251.91L418.72 252.92L419.48 253.95L420.24 255L421 256.07L421.76 257.15L422.52 258.25L423.28 259.37L424.04 260.5L424.8 261.65L425.56 262.81L426.32 263.98L427.08 265.17L427.84 266.37L428.6 267.58L429.36 268.79L430.13 270.02L430.89 271.26L431.65 272.5L432.41 273.74L433.17 274.99L433.93 276.25L434.69 277.5L435.45 278.76L436.21 280.01L436.97 281.26L437.73 282.51L438.49 283.75L439.25 284.99L440.01 286.22L440.77 287.44L441.53 288.65L442.29 289.85L443.06 291.04L443.82 292.21L444.58 293.37L445.34 294.52L446.1 295.64L446.86 296.75L447.62 297.85L448.38 298.92L449.14 299.98L449.9 301.01L450.66 302.03L451.42 303.02L452.18 303.99L452.94 304.94L453.7 305.86L454.46 306.77L455.22 307.64L455.99 308.5L456.75 309.33L457.51 310.14L458.27 310.93L459.03 311.69L459.79 312.43L460.55 313.14L461.31 313.83L462.07 314.5L462.83 315.14L463.59 315.76L464.35 316.36L465.11 316.94L465.87 317.49L466.63 318.03L467.39 318.54L468.15 319.03L468.92 319.49L469.68 319.94L470.44 320.37L471.2 320.78L471.96 321.17L472.72 321.54L473.48 321.9L474.24 322.23L475 322.55L475.76 322.85L476.52 323.14L477.28 323.41L478.04 323.67L478.8 323.91L479.56 324.13L480.32 324.35L481.08 324.55L481.84 324.74L482.61 324.91L483.37 325.08L484.13 325.24L484.89 325.38L485.65 325.51L486.41 325.64L487.17 325.76L487.93 325.86L488.69 325.96L489.45 326.06L490.21 326.14L490.97 326.22L491.73 326.29L492.49 326.36L493.25 326.42L494.01 326.48L494.77 326.53L495.54 326.58L496.3 326.62L497.06 326.66L497.82 326.69L498.58 326.73L499.34 326.76L500.1 326.78L500.86 326.81L501.62 326.83L502.38 326.85L503.14 326.86L503.9 326.88L504.66 326.89L505.42 326.91L506.18 326.92L506.94 326.93L506.94 327L506.18 327L505.42 327L504.66 327L503.9 327L503.14 327L502.38 327L501.62 327L500.86 327L500.1 327L499.34 327L498.58 327L497.82 327L497.06 327L496.3 327L495.54 327L494.77 327L494.01 327L493.25 327L492.49 327L491.73 327L490.97 327L490.21 327L489.45 327L488.69 327L487.93 327L487.17 327L486.41 327L485.65 327L484.89 327L484.13 327L483.37 327L482.61 327L481.84 327L481.08 327L480.32 327L479.56 327L478.8 327L478.04 327L477.28 327L476.52 327L475.76 327L475 327L474.24 327L473.48 327L472.72 327L471.96 327L471.2 327L470.44 327L469.68 327L468.92 327L468.15 327L467.39 327L466.63 327L465.87 327L465.11 327L464.35 327L463.59 327L462.83 327L462.07 327L461.31 327L460.55 327L459.79 327L459.03 327L458.27 327L457.51 327L456.75 327L455.99 327L455.22 327L454.46 327L453.7 327L452.94 327L452.18 327L451.42 327L450.66 327L449.9 327L449.14 327L448.38 327L447.62 327L446.86 327L446.1 327L445.34 327L444.58 327L443.82 327L443.06 327L442.29 327L441.53 327L440.77 327L440.01 327L439.25 327L438.49 327L437.73 327L436.97 327L436.21 327L435.45 327L434.69 327L433.93 327L433.17 327L432.41 327L431.65 327L430.89 327L430.13 327L429.36 327L428.6 327L427.84 327L427.08 327L426.32 327L425.56 327L424.8 327L424.04 327L423.28 327L422.52 327L421.76 327L421 327L420.24 327L419.48 327L418.72 327L417.96 327L417.2 327L416.43 327L415.67 327L414.91 327L414.15 327L413.39 327L412.63 327L411.87 327L411.11 327L410.35 327L409.59 327L408.83 327L408.07 327L407.31 327L406.55 327L405.79 327L405.03 327L404.27 327L403.5 327L402.74 327L401.98 327L401.22 327L400.46 327L399.7 327L398.94 327L398.18 327L397.42 327L396.66 327L395.9 327L395.14 327L394.38 327L393.62 327L392.86 327L392.1 327L391.34 327L390.58 327L389.81 327L389.05 327L388.29 327L387.53 327L386.77 327L386.01 327L385.25 327L384.49 327L383.73 327L382.97 327L382.21 327L381.45 327L380.69 327L379.93 327L379.17 327L378.41 327L377.65 327L376.88 327L376.12 327L375.36 327L374.6 327L373.84 327L373.08 327L372.32 327L371.56 327L370.8 327L370.04 327L369.28 327L368.52 327L367.76 327L367 327L366.24 327L365.48 327L364.72 327L363.95 327L363.19 327L362.43 327L361.67 327L360.91 327L360.15 327L359.39 327L358.63 327L357.87 327L357.11 327L356.35 327L355.59 327L354.83 327L354.07 327L353.31 327L352.55 327L351.79 327L351.02 327L350.26 327L349.5 327L348.74 327L347.98 327L347.22 327L346.46 327L345.7 327L344.94 327L344.18 327L343.42 327L342.66 327L341.9 327L341.14 327L340.38 327L339.62 327L338.86 327L338.09 327L337.33 327L336.57 327L335.81 327L335.05 327L334.29 327L333.53 327L332.77 327L332.01 327L331.25 327L330.49 327L329.73 327L328.97 327L328.21 327L327.45 327L326.69 327L325.93 327L325.16 327L324.4 327L323.64 327L322.88 327L322.12 327L321.36 327L320.6 327L319.84 327L319.08 327L318.32 327L317.56 327L316.8 327L316.04 327L315.28 327L314.52 327L313.76 327L313 327L312.24 327L311.47 327L310.71 327L309.95 327L309.19 327L308.43 327L307.67 327L306.91 327L306.15 327L305.39 327L304.63 327L303.87 327L303.11 327L302.35 327L301.59 327L300.83 327L300.07 327L299.31 327L298.54 327L297.78 327L297.02 327L296.26 327L295.5 327L294.74 327L293.98 327L293.22 327L292.46 327L291.7 327L290.94 327L290.18 327L289.42 327L288.66 327L287.9 327L287.14 327L286.38 327L285.61 327L284.85 327L284.09 327L283.33 327L282.57 327L281.81 327L281.05 327L280.29 327L279.53 327L278.77 327L278.01 327L277.25 327L276.49 327L275.73 327L274.97 327L274.21 327L273.45 327L272.68 327L271.92 327L271.16 327L270.4 327L269.64 327L268.88 327L268.12 327L267.36 327L266.6 327L265.84 327L265.08 327L264.32 327L263.56 327L262.8 327L262.04 327L261.28 327L260.52 327L259.75 327L258.99 327L258.23 327L257.47 327L256.71 327L255.95 327L255.19 327L254.43 327L253.67 327L252.91 327L252.15 327L251.39 327L250.63 327L249.87 327L249.11 327L248.35 327L247.59 327L246.83 327L246.06 327L245.3 327L244.54 327L243.78 327L243.02 327L242.26 327L241.5 327L240.74 327L239.98 327L239.22 327L238.46 327L237.7 327L236.94 327L236.18 327L235.42 327L234.66 327L233.9 327L233.13 327L232.37 327L231.61 327L230.85 327L230.09 327L229.33 327L228.57 327L227.81 327L227.05 327L226.29 327L225.53 327L224.77 327L224.01 327L223.25 327L222.49 327L221.73 327L220.97 327L220.2 327L219.44 327L218.68 327L217.92 327L217.16 327L216.4 327L215.64 327L214.88 327L214.12 327L213.36 327L212.6 327L211.84 327L211.08 327L210.32 327L209.56 327L208.8 327L208.04 327L207.27 327L206.51 327L205.75 327L204.99 327L204.23 327L203.47 327L202.71 327L201.95 327L201.19 327L200.43 327L199.67 327L198.91 327L198.15 327L197.39 327L196.63 327L195.87 327L195.11 327L194.34 327L193.58 327L192.82 327L192.06 327L191.3 327L190.54 327L189.78 327L189.02 327L188.26 327L187.5 327L186.74 327L185.98 327L185.22 327L184.46 327L183.7 327L182.94 327L182.18 327L181.41 327L180.65 327L179.89 327L179.13 327L178.37 327L177.61 327L176.85 327L176.09 327L175.33 327L174.57 327L173.81 327L173.05 327L172.29 327L171.53 327L170.77 327L170.01 327L169.25 327L168.49 327L167.72 327L166.96 327L166.2 327L165.44 327L164.68 327L163.92 327L163.16 327L162.4 327L161.64 327L160.88 327L160.12 327L159.36 327L158.6 327L157.84 327L157.08 327L156.32 327L155.56 327L154.79 327L154.03 327L153.27 327L152.51 327L151.75 327L150.99 327L150.23 327L149.47 327L148.71 327L147.95 327L147.19 327L146.43 327L145.67 327L144.91 327L144.15 327L143.39 327L142.63 327L141.86 327L141.1 327L140.34 327L139.58 327L138.82 327L138.06 327L137.3 327L136.54 327L135.78 327L135.02 327L134.26 327L133.5 327L132.74 327L131.98 327L131.22 327L130.46 327L129.7 327L128.93 327L128.17 327L127.41 327L126.65 327L125.89 327L125.13 327L124.37 327L123.61 327L122.85 327L122.09 327L121.33 327L120.57 327L119.81 327L119.05 327L118.29 327Z" fill="#efb118" stroke="none"/></g></g></g><g class="gg-axis gg-axis-x" transform="translate(48,360)"><g class="gg-tick" transform="translate(0,0)"><text y="3" dy="0.71em" text-anchor="middle" fill="var(--gg-axisText, #4d4d4d)" font-size="11.5" font-weight="300">0</text></g><g class="gg-tick" transform="translate(97.69,0)"><text y="3" dy="0.71em" text-anchor="middle" fill="var(--gg-axisText, #4d4d4d)" font-size="11.5" font-weight="300">5</text></g><g class="gg-tick" transform="translate(195.38,0)"><text y="3" dy="0.71em" text-anchor="middle" fill="var(--gg-axisText, #4d4d4d)" font-size="11.5" font-weight="300">10</text></g><g class="gg-tick" transform="translate(293.08,0)"><text y="3" dy="0.71em" text-anchor="middle" fill="var(--gg-axisText, #4d4d4d)" font-size="11.5" font-weight="300">15</text></g><g class="gg-tick" transform="translate(390.77,0)"><text y="3" dy="0.71em" text-anchor="middle" fill="var(--gg-axisText, #4d4d4d)" font-size="11.5" font-weight="300">20</text></g><g class="gg-tick" transform="translate(488.46,0)"><text y="3" dy="0.71em" text-anchor="middle" fill="var(--gg-axisText, #4d4d4d)" font-size="11.5" font-weight="300">25</text></g></g><g class="gg-axis gg-axis-y" transform="translate(48,33)"><g class="gg-tick" transform="translate(0,327)"><text x="-3" dy="0.32em" text-anchor="end" fill="var(--gg-axisText, #4d4d4d)" font-size="11.5" font-weight="300">0.00</text></g><g class="gg-tick" transform="translate(0,294.3)"><text x="-3" dy="0.32em" text-anchor="end" fill="var(--gg-axisText, #4d4d4d)" font-size="11.5" font-weight="300">0.02</text></g><g class="gg-tick" transform="translate(0,261.6)"><text x="-3" dy="0.32em" text-anchor="end" fill="var(--gg-axisText, #4d4d4d)" font-size="11.5" font-weight="300">0.04</text></g><g class="gg-tick" transform="translate(0,228.9)"><text x="-3" dy="0.32em" text-anchor="end" fill="var(--gg-axisText, #4d4d4d)" font-size="11.5" font-weight="300">0.06</text></g><g class="gg-tick" transform="translate(0,196.2)"><text x="-3" dy="0.32em" text-anchor="end" fill="var(--gg-axisText, #4d4d4d)" font-size="11.5" font-weight="300">0.08</text></g><g class="gg-tick" transform="translate(0,163.5)"><text x="-3" dy="0.32em" text-anchor="end" fill="var(--gg-axisText, #4d4d4d)" font-size="11.5" font-weight="300">0.10</text></g><g class="gg-tick" transform="translate(0,130.8)"><text x="-3" dy="0.32em" text-anchor="end" fill="var(--gg-axisText, #4d4d4d)" font-size="11.5" font-weight="300">0.12</text></g><g class="gg-tick" transform="translate(0,98.1)"><text x="-3" dy="0.32em" text-anchor="end" fill="var(--gg-axisText, #4d4d4d)" font-size="11.5" font-weight="300">0.14</text></g><g class="gg-tick" transform="translate(0,65.4)"><text x="-3" dy="0.32em" text-anchor="end" fill="var(--gg-axisText, #4d4d4d)" font-size="11.5" font-weight="300">0.16</text></g><g class="gg-tick" transform="translate(0,32.7)"><text x="-3" dy="0.32em" text-anchor="end" fill="var(--gg-axisText, #4d4d4d)" font-size="11.5" font-weight="300">0.18</text></g><g class="gg-tick" transform="translate(0,0)"><text x="-3" dy="0.32em" text-anchor="end" fill="var(--gg-axisText, #4d4d4d)" font-size="11.5" font-weight="300">0.20</text></g></g><text class="gg-axis-title" x="302" y="392" text-anchor="middle" fill="var(--gg-ink, #262626)" font-size="9" font-weight="400">Session length (minutes)</text><text class="gg-axis-title" transform="translate(12,196.5) rotate(-90)" text-anchor="middle" fill="var(--gg-ink, #262626)" font-size="9" font-weight="400">Density</text><g class="gg-legend gg-legend-fill" transform="translate(575,33)"><text class="gg-legend-title" x="4" y="11" font-weight="bold" fill="var(--gg-ink, #262626)">Cohort</text><rect class="gg-legend-swatch" x="4" y="22" width="10" height="10" fill="#4269d0"/><text class="gg-legend-label" x="20" y="27" dy="0.32em" fill="var(--gg-ink, #262626)">mobile</text><rect class="gg-legend-swatch" x="4" y="40" width="10" height="10" fill="#efb118"/><text class="gg-legend-label" x="20" y="45" dy="0.32em" fill="var(--gg-ink, #262626)">desktop</text></g></svg>