<svg xmlns="http://www.w3.org/2000/svg" width="640" height="400" viewBox="0 0 640 400" role="img" aria-label="Conference attendees by track and experience" class="gg-plot" font-family="&quot;Roboto Condensed&quot;, &quot;Arial Narrow&quot;, Arial, sans-serif" font-size="11.5" font-weight="300" text-rendering="optimizeLegibility" shape-rendering="geometricPrecision"><title>Conference attendees by track and experience</title><style>
@font-face{font-family:"Roboto Condensed";src:url("../../../packages/svelte/src/lib/fonts/RobotoCondensed-Light.ttf") format("truetype");font-weight:300;font-style:normal}
@font-face{font-family:"Roboto Condensed";src:url("../../../packages/svelte/src/lib/fonts/RobotoCondensed-Regular.ttf") format("truetype");font-weight:400;font-style:normal}
@font-face{font-family:"Roboto Condensed";src:url("../../../packages/svelte/src/lib/fonts/RobotoCondensed-Bold.ttf") format("truetype");font-weight:700;font-style:normal}
</style><rect class="gg-paper" width="640" height="400" fill="var(--gg-paper, #ffffff)"/><text class="gg-title" x="36" y="18" font-size="18" font-weight="700" fill="var(--gg-ink, #262626)">Conference attendees by track and experience</text><defs><clipPath id="gg-clip-0"><rect width="504" height="327"/></clipPath></defs><g class="gg-panel" data-panel="0" transform="translate(36,33)"><rect class="gg-panel-background" width="504" height="327" fill="var(--gg-panel, #ffffff)"/><g class="gg-grid" stroke="var(--gg-grid, #cccccc)" stroke-width="0.4" vector-effect="non-scaling-stroke"><line x1="63" y1="0" x2="63" y2="327"/><line x1="189" y1="0" x2="189" y2="327"/><line x1="315" y1="0" x2="315" y2="327"/><line x1="441" y1="0" x2="441" y2="327"/><line x1="0" y1="327" x2="504" y2="327"/><line x1="0" y1="297.27" x2="504" y2="297.27"/><line x1="0" y1="267.55" x2="504" y2="267.55"/><line x1="0" y1="237.82" x2="504" y2="237.82"/><line x1="0" y1="208.09" x2="504" y2="208.09"/><line x1="0" y1="178.36" x2="504" y2="178.36"/><line x1="0" y1="148.64" x2="504" y2="148.64"/><line x1="0" y1="118.91" x2="504" y2="118.91"/><line x1="0" y1="89.18" x2="504" y2="89.18"/><line x1="0" y1="59.45" x2="504" y2="59.45"/><line x1="0" y1="29.73" x2="504" y2="29.73"/><line x1="0" y1="0" x2="504" y2="0"/></g><g class="gg-marks" clip-path="url(#gg-clip-0)"><g class="gg-batch gg-rects" data-layer="0"><rect x="6.3" y="14.86" width="37.8" height="312.14" fill="#4269d0"/><rect x="44.1" y="222.95" width="37.8" height="104.05" fill="#efb118"/><rect x="81.9" y="118.91" width="37.8" height="208.09" fill="#ff725c"/><rect x="132.3" y="222.95" width="37.8" height="104.05" fill="#4269d0"/><rect x="170.1" y="89.18" width="37.8" height="237.82" fill="#efb118"/><rect x="207.9" y="104.05" width="37.8" height="222.95" fill="#ff725c"/><rect x="258.3" y="59.45" width="37.8" height="267.55" fill="#efb118"/><rect x="296.1" y="222.95" width="37.8" height="104.05" fill="#ff725c"/><rect x="333.9" y="252.68" width="37.8" height="74.32" fill="#4269d0"/><rect x="384.3" y="208.09" width="37.8" height="118.91" fill="#ff725c"/><rect x="422.1" y="133.77" width="37.8" height="193.23" fill="#efb118"/><rect x="459.9" y="282.41" width="37.8" height="44.59" fill="#4269d0"/></g></g></g><g class="gg-axis gg-axis-x" transform="translate(36,360)"><g class="gg-tick" transform="translate(63,0)"><text y="3" dy="0.71em" text-anchor="middle" fill="var(--gg-axisText, #4d4d4d)" font-size="11.5" font-weight="300">Frontend</text></g><g class="gg-tick" transform="translate(189,0)"><text y="3" dy="0.71em" text-anchor="middle" fill="var(--gg-axisText, #4d4d4d)" font-size="11.5" font-weight="300">Backend</text></g><g class="gg-tick" transform="translate(315,0)"><text y="3" dy="0.71em" text-anchor="middle" fill="var(--gg-axisText, #4d4d4d)" font-size="11.5" font-weight="300">Data</text></g><g class="gg-tick" transform="translate(441,0)"><text y="3" dy="0.71em" text-anchor="middle" fill="var(--gg-axisText, #4d4d4d)" font-size="11.5" font-weight="300">DevOps</text></g></g><g class="gg-axis gg-axis-y" transform="translate(36,33)"><g class="gg-tick" transform="translate(0,327)"><text x="-3" dy="0.32em" text-anchor="end" fill="var(--gg-axisText, #4d4d4d)" font-size="11.5" font-weight="300">0</text></g><g class="gg-tick" transform="translate(0,297.27)"><text x="-3" dy="0.32em" text-anchor="end" fill="var(--gg-axisText, #4d4d4d)" font-size="11.5" font-weight="300">2</text></g><g class="gg-tick" transform="translate(0,267.55)"><text x="-3" dy="0.32em" text-anchor="end" fill="var(--gg-axisText, #4d4d4d)" font-size="11.5" font-weight="300">4</text></g><g class="gg-tick" transform="translate(0,237.82)"><text x="-3" dy="0.32em" text-anchor="end" fill="var(--gg-axisText, #4d4d4d)" font-size="11.5" font-weight="300">6</text></g><g class="gg-tick" transform="translate(0,208.09)"><text x="-3" dy="0.32em" text-anchor="end" fill="var(--gg-axisText, #4d4d4d)" font-size="11.5" font-weight="300">8</text></g><g class="gg-tick" transform="translate(0,178.36)"><text x="-3" dy="0.32em" text-anchor="end" fill="var(--gg-axisText, #4d4d4d)" font-size="11.5" font-weight="300">10</text></g><g class="gg-tick" transform="translate(0,148.64)"><text x="-3" dy="0.32em" text-anchor="end" fill="var(--gg-axisText, #4d4d4d)" font-size="11.5" font-weight="300">12</text></g><g class="gg-tick" transform="translate(0,118.91)"><text x="-3" dy="0.32em" text-anchor="end" fill="var(--gg-axisText, #4d4d4d)" font-size="11.5" font-weight="300">14</text></g><g class="gg-tick" transform="translate(0,89.18)"><text x="-3" dy="0.32em" text-anchor="end" fill="var(--gg-axisText, #4d4d4d)" font-size="11.5" font-weight="300">16</text></g><g class="gg-tick" transform="translate(0,59.45)"><text x="-3" dy="0.32em" text-anchor="end" fill="var(--gg-axisText, #4d4d4d)" font-size="11.5" font-weight="300">18</text></g><g class="gg-tick" transform="translate(0,29.73)"><text x="-3" dy="0.32em" text-anchor="end" fill="var(--gg-axisText, #4d4d4d)" font-size="11.5" font-weight="300">20</text></g><g class="gg-tick" transform="translate(0,0)"><text x="-3" dy="0.32em" text-anchor="end" fill="var(--gg-axisText, #4d4d4d)" font-size="11.5" font-weight="300">22</text></g></g><text class="gg-axis-title" x="288" y="392" text-anchor="middle" fill="var(--gg-ink, #262626)" font-size="9" font-weight="400">Track</text><text class="gg-axis-title" transform="translate(12,196.5) rotate(-90)" text-anchor="middle" fill="var(--gg-ink, #262626)" font-size="9" font-weight="400">Attendees</text><g class="gg-legend gg-legend-fill" transform="translate(574,33)"><text class="gg-legend-title" x="4" y="11" font-weight="bold" fill="var(--gg-ink, #262626)">Experience</text><rect class="gg-legend-swatch" x="4" y="22" width="10" height="10" fill="#4269d0"/><text class="gg-legend-label" x="20" y="27" dy="0.32em" fill="var(--gg-ink, #262626)">junior</text><rect class="gg-legend-swatch" x="4" y="40" width="10" height="10" fill="#efb118"/><text class="gg-legend-label" x="20" y="45" dy="0.32em" fill="var(--gg-ink, #262626)">senior</text><rect class="gg-legend-swatch" x="4" y="58" width="10" height="10" fill="#ff725c"/><text class="gg-legend-label" x="20" y="63" dy="0.32em" fill="var(--gg-ink, #262626)">mid</text></g></svg>