<svg xmlns="http://www.w3.org/2000/svg" width="640" height="400" viewBox="0 0 640 400" role="img" aria-label="Yield by treatment (mean ± standard error)" class="gg-plot" font-family="&quot;Roboto Condensed&quot;, &quot;Arial Narrow&quot;, Arial, sans-serif" font-size="11.5" font-weight="300" text-rendering="optimizeLegibility" shape-rendering="geometricPrecision"><title>Yield by treatment (mean ± standard error)</title><style>
@font-face{font-family:"Roboto Condensed";src:url("../../../packages/svelte/src/lib/fonts/RobotoCondensed-Light.ttf") format("truetype");font-weight:300;font-style:normal}
@font-face{font-family:"Roboto Condensed";src:url("../../../packages/svelte/src/lib/fonts/RobotoCondensed-Regular.ttf") format("truetype");font-weight:400;font-style:normal}
@font-face{font-family:"Roboto Condensed";src:url("../../../packages/svelte/src/lib/fonts/RobotoCondensed-Bold.ttf") format("truetype");font-weight:700;font-style:normal}
</style><rect class="gg-paper" width="640" height="400" fill="var(--gg-paper, #ffffff)"/><text class="gg-title" x="36" y="18" font-size="18" font-weight="700" fill="var(--gg-ink, #262626)">Yield by treatment (mean ± standard error)</text><defs><clipPath id="gg-clip-0"><rect width="592" height="327"/></clipPath></defs><g class="gg-panel" data-panel="0" transform="translate(36,33)"><rect class="gg-panel-background" width="592" height="327" fill="var(--gg-panel, #ffffff)"/><g class="gg-grid" stroke="var(--gg-grid, #cccccc)" stroke-width="0.4" vector-effect="non-scaling-stroke"><line x1="74" y1="0" x2="74" y2="327"/><line x1="222" y1="0" x2="222" y2="327"/><line x1="370" y1="0" x2="370" y2="327"/><line x1="518" y1="0" x2="518" y2="327"/><line x1="0" y1="327" x2="592" y2="327"/><line x1="0" y1="299.75" x2="592" y2="299.75"/><line x1="0" y1="272.5" x2="592" y2="272.5"/><line x1="0" y1="245.25" x2="592" y2="245.25"/><line x1="0" y1="218" x2="592" y2="218"/><line x1="0" y1="190.75" x2="592" y2="190.75"/><line x1="0" y1="163.5" x2="592" y2="163.5"/><line x1="0" y1="136.25" x2="592" y2="136.25"/><line x1="0" y1="109" x2="592" y2="109"/><line x1="0" y1="81.75" x2="592" y2="81.75"/><line x1="0" y1="54.5" x2="592" y2="54.5"/><line x1="0" y1="27.25" x2="592" y2="27.25"/><line x1="0" y1="0" x2="592" y2="0"/></g><g class="gg-marks" clip-path="url(#gg-clip-0)"><g class="gg-batch gg-points" data-layer="0" opacity="0.35"><circle cx="56.66" cy="149.88" r="2" fill="var(--gg-ink, #262626)"/><circle cx="58.44" cy="180.94" r="2" fill="var(--gg-ink, #262626)"/><circle cx="90.94" cy="267.6" r="2" fill="var(--gg-ink, #262626)"/><circle cx="81.07" cy="221.82" r="2" fill="var(--gg-ink, #262626)"/><circle cx="74.76" cy="230.94" r="2" fill="var(--gg-ink, #262626)"/><circle cx="70.64" cy="187.34" r="2" fill="var(--gg-ink, #262626)"/><circle cx="72.8" cy="247.84" r="2" fill="var(--gg-ink, #262626)"/><circle cx="64.76" cy="316.37" r="2" fill="var(--gg-ink, #262626)"/><circle cx="75.89" cy="171.4" r="2" fill="var(--gg-ink, #262626)"/><circle cx="82.16" cy="226.31" r="2" fill="var(--gg-ink, #262626)"/><circle cx="65.4" cy="149.88" r="2" fill="var(--gg-ink, #262626)"/><circle cx="61.78" cy="236.53" r="2" fill="var(--gg-ink, #262626)"/><circle cx="231.38" cy="133.39" r="2" fill="var(--gg-ink, #262626)"/><circle cx="222.65" cy="116.77" r="2" fill="var(--gg-ink, #262626)"/><circle cx="211.24" cy="196.47" r="2" fill="var(--gg-ink, #262626)"/><circle cx="217.31" cy="104.64" r="2" fill="var(--gg-ink, #262626)"/><circle cx="214.66" cy="185.44" r="2" fill="var(--gg-ink, #262626)"/><circle cx="223.23" cy="104.1" r="2" fill="var(--gg-ink, #262626)"/><circle cx="214.77" cy="150.69" r="2" fill="var(--gg-ink, #262626)"/><circle cx="238.98" cy="213.1" r="2" fill="var(--gg-ink, #262626)"/><circle cx="213.03" cy="114.59" r="2" fill="var(--gg-ink, #262626)"/><circle cx="383.42" cy="8.72" r="2" fill="var(--gg-ink, #262626)"/><circle cx="359.02" cy="124.53" r="2" fill="var(--gg-ink, #262626)"/><circle cx="357.34" cy="22.62" r="2" fill="var(--gg-ink, #262626)"/><circle cx="357.73" cy="65.94" r="2" fill="var(--gg-ink, #262626)"/><circle cx="362.57" cy="10.08" r="2" fill="var(--gg-ink, #262626)"/><circle cx="371.7" cy="34.74" r="2" fill="var(--gg-ink, #262626)"/><circle cx="379.3" cy="41.42" r="2" fill="var(--gg-ink, #262626)"/><circle cx="354.89" cy="63.9" r="2" fill="var(--gg-ink, #262626)"/><circle cx="384.67" cy="49.05" r="2" fill="var(--gg-ink, #262626)"/><circle cx="371.91" cy="88.29" r="2" fill="var(--gg-ink, #262626)"/><circle cx="374.32" cy="78.48" r="2" fill="var(--gg-ink, #262626)"/><circle cx="524.4" cy="84.2" r="2" fill="var(--gg-ink, #262626)"/><circle cx="534.55" cy="13.63" r="2" fill="var(--gg-ink, #262626)"/><circle cx="522.42" cy="124.67" r="2" fill="var(--gg-ink, #262626)"/><circle cx="532.96" cy="101.64" r="2" fill="var(--gg-ink, #262626)"/><circle cx="529.64" cy="119.76" r="2" fill="var(--gg-ink, #262626)"/><circle cx="501.66" cy="23.84" r="2" fill="var(--gg-ink, #262626)"/><circle cx="506.45" cy="86.38" r="2" fill="var(--gg-ink, #262626)"/><circle cx="512.92" cy="43.74" r="2" fill="var(--gg-ink, #262626)"/></g><g class="gg-batch gg-segments" data-layer="1"><line x1="74" y1="229.96" x2="74" y2="201.18" stroke="var(--gg-ink, #262626)" stroke-width="1.5"/><line x1="48.1" y1="229.96" x2="99.9" y2="229.96" stroke="var(--gg-ink, #262626)" stroke-width="1.5"/><line x1="48.1" y1="201.18" x2="99.9" y2="201.18" stroke="var(--gg-ink, #262626)" stroke-width="1.5"/><line x1="222" y1="160.56" x2="222" y2="132.59" stroke="var(--gg-ink, #262626)" stroke-width="1.5"/><line x1="196.1" y1="160.56" x2="247.9" y2="160.56" stroke="var(--gg-ink, #262626)" stroke-width="1.5"/><line x1="196.1" y1="132.59" x2="247.9" y2="132.59" stroke="var(--gg-ink, #262626)" stroke-width="1.5"/><line x1="370" y1="64.1" x2="370" y2="42.77" stroke="var(--gg-ink, #262626)" stroke-width="1.5"/><line x1="344.1" y1="64.1" x2="395.9" y2="64.1" stroke="var(--gg-ink, #262626)" stroke-width="1.5"/><line x1="344.1" y1="42.77" x2="395.9" y2="42.77" stroke="var(--gg-ink, #262626)" stroke-width="1.5"/><line x1="518" y1="89.83" x2="518" y2="59.64" stroke="var(--gg-ink, #262626)" stroke-width="1.5"/><line x1="492.1" y1="89.83" x2="543.9" y2="89.83" stroke="var(--gg-ink, #262626)" stroke-width="1.5"/><line x1="492.1" y1="59.64" x2="543.9" y2="59.64" stroke="var(--gg-ink, #262626)" stroke-width="1.5"/></g></g></g><g class="gg-axis gg-axis-x" transform="translate(36,360)"><g class="gg-tick" transform="translate(74,0)"><text y="3" dy="0.71em" text-anchor="middle" fill="var(--gg-axisText, #4d4d4d)" font-size="11.5" font-weight="300">control</text></g><g class="gg-tick" transform="translate(222,0)"><text y="3" dy="0.71em" text-anchor="middle" fill="var(--gg-axisText, #4d4d4d)" font-size="11.5" font-weight="300">low</text></g><g class="gg-tick" transform="translate(370,0)"><text y="3" dy="0.71em" text-anchor="middle" fill="var(--gg-axisText, #4d4d4d)" font-size="11.5" font-weight="300">medium</text></g><g class="gg-tick" transform="translate(518,0)"><text y="3" dy="0.71em" text-anchor="middle" fill="var(--gg-axisText, #4d4d4d)" font-size="11.5" font-weight="300">high</text></g></g><g class="gg-axis gg-axis-y" transform="translate(36,33)"><g class="gg-tick" transform="translate(0,327)"><text x="-3" dy="0.32em" text-anchor="end" fill="var(--gg-axisText, #4d4d4d)" font-size="11.5" font-weight="300">34</text></g><g class="gg-tick" transform="translate(0,299.75)"><text x="-3" dy="0.32em" text-anchor="end" fill="var(--gg-axisText, #4d4d4d)" font-size="11.5" font-weight="300">36</text></g><g class="gg-tick" transform="translate(0,272.5)"><text x="-3" dy="0.32em" text-anchor="end" fill="var(--gg-axisText, #4d4d4d)" font-size="11.5" font-weight="300">38</text></g><g class="gg-tick" transform="translate(0,245.25)"><text x="-3" dy="0.32em" text-anchor="end" fill="var(--gg-axisText, #4d4d4d)" font-size="11.5" font-weight="300">40</text></g><g class="gg-tick" transform="translate(0,218)"><text x="-3" dy="0.32em" text-anchor="end" fill="var(--gg-axisText, #4d4d4d)" font-size="11.5" font-weight="300">42</text></g><g class="gg-tick" transform="translate(0,190.75)"><text x="-3" dy="0.32em" text-anchor="end" fill="var(--gg-axisText, #4d4d4d)" font-size="11.5" font-weight="300">44</text></g><g class="gg-tick" transform="translate(0,163.5)"><text x="-3" dy="0.32em" text-anchor="end" fill="var(--gg-axisText, #4d4d4d)" font-size="11.5" font-weight="300">46</text></g><g class="gg-tick" transform="translate(0,136.25)"><text x="-3" dy="0.32em" text-anchor="end" fill="var(--gg-axisText, #4d4d4d)" font-size="11.5" font-weight="300">48</text></g><g class="gg-tick" transform="translate(0,109)"><text x="-3" dy="0.32em" text-anchor="end" fill="var(--gg-axisText, #4d4d4d)" font-size="11.5" font-weight="300">50</text></g><g class="gg-tick" transform="translate(0,81.75)"><text x="-3" dy="0.32em" text-anchor="end" fill="var(--gg-axisText, #4d4d4d)" font-size="11.5" font-weight="300">52</text></g><g class="gg-tick" transform="translate(0,54.5)"><text x="-3" dy="0.32em" text-anchor="end" fill="var(--gg-axisText, #4d4d4d)" font-size="11.5" font-weight="300">54</text></g><g class="gg-tick" transform="translate(0,27.25)"><text x="-3" dy="0.32em" text-anchor="end" fill="var(--gg-axisText, #4d4d4d)" font-size="11.5" font-weight="300">56</text></g><g class="gg-tick" transform="translate(0,0)"><text x="-3" dy="0.32em" text-anchor="end" fill="var(--gg-axisText, #4d4d4d)" font-size="11.5" font-weight="300">58</text></g></g><text class="gg-axis-title" x="332" y="392" text-anchor="middle" fill="var(--gg-ink, #262626)" font-size="9" font-weight="400">Treatment</text><text class="gg-axis-title" transform="translate(12,196.5) rotate(-90)" text-anchor="middle" fill="var(--gg-ink, #262626)" font-size="9" font-weight="400">Yield</text></svg>