<svg xmlns="http://www.w3.org/2000/svg" width="640" height="400" viewBox="0 0 640 400" role="img" aria-label="Response time by service" class="gg-plot" font-family="&quot;Roboto Condensed&quot;, &quot;Arial Narrow&quot;, Arial, sans-serif" font-size="11.5" font-weight="300" text-rendering="optimizeLegibility" shape-rendering="geometricPrecision"><title>Response time by service</title><style>
@font-face{font-family:"Roboto Condensed";src:url("../../../packages/svelte/src/lib/fonts/RobotoCondensed-Light.ttf") format("truetype");font-weight:300;font-style:normal}
@font-face{font-family:"Roboto Condensed";src:url("../../../packages/svelte/src/lib/fonts/RobotoCondensed-Regular.ttf") format("truetype");font-weight:400;font-style:normal}
@font-face{font-family:"Roboto Condensed";src:url("../../../packages/svelte/src/lib/fonts/RobotoCondensed-Bold.ttf") format("truetype");font-weight:700;font-style:normal}
</style><rect class="gg-paper" width="640" height="400" fill="var(--gg-paper, #ffffff)"/><text class="gg-title" x="38" y="18" font-size="18" font-weight="700" fill="var(--gg-ink, #262626)">Response time by service</text><defs><clipPath id="gg-clip-0"><rect width="191.33" height="311"/></clipPath><clipPath id="gg-clip-1"><rect width="191.33" height="311"/></clipPath><clipPath id="gg-clip-2"><rect width="191.33" height="311"/></clipPath></defs><g class="gg-panel" data-panel="0" transform="translate(38,51)"><rect class="gg-panel-background" width="191.33" height="311" fill="var(--gg-panel, #ffffff)"/><g class="gg-grid" stroke="var(--gg-grid, #cccccc)" stroke-width="0.4" vector-effect="non-scaling-stroke"><line x1="82" y1="0" x2="82" y2="311"/><line x1="191.33" y1="0" x2="191.33" y2="311"/><line x1="0" y1="311" x2="191.33" y2="311"/><line x1="0" y1="272.13" x2="191.33" y2="272.13"/><line x1="0" y1="233.25" x2="191.33" y2="233.25"/><line x1="0" y1="194.38" x2="191.33" y2="194.38"/><line x1="0" y1="155.5" x2="191.33" y2="155.5"/><line x1="0" y1="116.63" x2="191.33" y2="116.63"/><line x1="0" y1="77.75" x2="191.33" y2="77.75"/><line x1="0" y1="38.88" x2="191.33" y2="38.88"/><line x1="0" y1="0" x2="191.33" y2="0"/></g><g class="gg-marks" clip-path="url(#gg-clip-0)"><g class="gg-batch gg-rects" data-layer="0"><rect x="21.29" y="295.45" width="9.35" height="15.55" fill="var(--gg-accent, #4385be)"/><rect x="30.64" y="248.8" width="9.35" height="62.2" fill="var(--gg-accent, #4385be)"/><rect x="39.99" y="0" width="9.35" height="311" fill="var(--gg-accent, #4385be)"/><rect x="49.34" y="31.1" width="9.35" height="279.9" fill="var(--gg-accent, #4385be)"/><rect x="58.68" y="279.9" width="9.35" height="31.1" fill="var(--gg-accent, #4385be)"/><rect x="68.03" y="311" width="9.35" height="0" fill="var(--gg-accent, #4385be)"/><rect x="77.38" y="311" width="9.35" height="0" fill="var(--gg-accent, #4385be)"/><rect x="86.73" y="311" width="9.35" height="0" fill="var(--gg-accent, #4385be)"/><rect x="96.08" y="311" width="9.35" height="0" fill="var(--gg-accent, #4385be)"/><rect x="105.42" y="311" width="9.35" height="0" fill="var(--gg-accent, #4385be)"/><rect x="114.77" y="311" width="9.35" height="0" fill="var(--gg-accent, #4385be)"/><rect x="124.12" y="311" width="9.35" height="0" fill="var(--gg-accent, #4385be)"/><rect x="133.47" y="311" width="9.35" height="0" fill="var(--gg-accent, #4385be)"/><rect x="142.82" y="311" width="9.35" height="0" fill="var(--gg-accent, #4385be)"/><rect x="152.16" y="311" width="9.35" height="0" fill="var(--gg-accent, #4385be)"/><rect x="161.51" y="311" width="9.35" height="0" fill="var(--gg-accent, #4385be)"/><rect x="170.86" y="311" width="9.35" height="0" fill="var(--gg-accent, #4385be)"/><rect x="180.21" y="311" width="9.35" height="0" fill="var(--gg-accent, #4385be)"/></g></g></g><g class="gg-strip" transform="translate(38,33)"><rect width="191.33" height="16" fill="var(--gg-grid, #cccccc)"/><text x="95.67" y="8" dy="0.32em" text-anchor="middle" fill="var(--gg-ink, #262626)" font-size="12" font-weight="400">api</text></g><g class="gg-axis gg-axis-x" transform="translate(38,362)"><g class="gg-tick" transform="translate(82,0)"><text y="3" dy="0.71em" text-anchor="middle" fill="var(--gg-axisText, #4d4d4d)" font-size="11.5" font-weight="300">200</text></g><g class="gg-tick" transform="translate(191.33,0)"><text y="3" dy="0.71em" text-anchor="middle" fill="var(--gg-axisText, #4d4d4d)" font-size="11.5" font-weight="300">400</text></g></g><g class="gg-axis gg-axis-y" transform="translate(38,51)"><g class="gg-tick" transform="translate(0,311)"><text x="-3" dy="0.32em" text-anchor="end" fill="var(--gg-axisText, #4d4d4d)" font-size="11.5" font-weight="300">0</text></g><g class="gg-tick" transform="translate(0,272.13)"><text x="-3" dy="0.32em" text-anchor="end" fill="var(--gg-axisText, #4d4d4d)" font-size="11.5" font-weight="300">5</text></g><g class="gg-tick" transform="translate(0,233.25)"><text x="-3" dy="0.32em" text-anchor="end" fill="var(--gg-axisText, #4d4d4d)" font-size="11.5" font-weight="300">10</text></g><g class="gg-tick" transform="translate(0,194.38)"><text x="-3" dy="0.32em" text-anchor="end" fill="var(--gg-axisText, #4d4d4d)" font-size="11.5" font-weight="300">15</text></g><g class="gg-tick" transform="translate(0,155.5)"><text x="-3" dy="0.32em" text-anchor="end" fill="var(--gg-axisText, #4d4d4d)" font-size="11.5" font-weight="300">20</text></g><g class="gg-tick" transform="translate(0,116.63)"><text x="-3" dy="0.32em" text-anchor="end" fill="var(--gg-axisText, #4d4d4d)" font-size="11.5" font-weight="300">25</text></g><g class="gg-tick" transform="translate(0,77.75)"><text x="-3" dy="0.32em" text-anchor="end" fill="var(--gg-axisText, #4d4d4d)" font-size="11.5" font-weight="300">30</text></g><g class="gg-tick" transform="translate(0,38.88)"><text x="-3" dy="0.32em" text-anchor="end" fill="var(--gg-axisText, #4d4d4d)" font-size="11.5" font-weight="300">35</text></g><g class="gg-tick" transform="translate(0,0)"><text x="-3" dy="0.32em" text-anchor="end" fill="var(--gg-axisText, #4d4d4d)" font-size="11.5" font-weight="300">40</text></g></g><g class="gg-panel" data-panel="1" transform="translate(237.33,51)"><rect class="gg-panel-background" width="191.33" height="311" fill="var(--gg-panel, #ffffff)"/><g class="gg-grid" stroke="var(--gg-grid, #cccccc)" stroke-width="0.4" vector-effect="non-scaling-stroke"><line x1="82" y1="0" x2="82" y2="311"/><line x1="191.33" y1="0" x2="191.33" y2="311"/><line x1="0" y1="311" x2="191.33" y2="311"/><line x1="0" y1="272.13" x2="191.33" y2="272.13"/><line x1="0" y1="233.25" x2="191.33" y2="233.25"/><line x1="0" y1="194.38" x2="191.33" y2="194.38"/><line x1="0" y1="155.5" x2="191.33" y2="155.5"/><line x1="0" y1="116.63" x2="191.33" y2="116.63"/><line x1="0" y1="77.75" x2="191.33" y2="77.75"/><line x1="0" y1="38.88" x2="191.33" y2="38.88"/><line x1="0" y1="0" x2="191.33" y2="0"/></g><g class="gg-marks" clip-path="url(#gg-clip-1)"><g class="gg-batch gg-rects" data-layer="0"><rect x="21.29" y="311" width="9.35" height="0" fill="var(--gg-accent, #4385be)"/><rect x="30.64" y="311" width="9.35" height="0" fill="var(--gg-accent, #4385be)"/><rect x="39.99" y="311" width="9.35" height="0" fill="var(--gg-accent, #4385be)"/><rect x="49.34" y="311" width="9.35" height="0" fill="var(--gg-accent, #4385be)"/><rect x="58.68" y="311" width="9.35" height="0" fill="var(--gg-accent, #4385be)"/><rect x="68.03" y="311" width="9.35" height="0" fill="var(--gg-accent, #4385be)"/><rect x="77.38" y="311" width="9.35" height="0" fill="var(--gg-accent, #4385be)"/><rect x="86.73" y="311" width="9.35" height="0" fill="var(--gg-accent, #4385be)"/><rect x="96.08" y="311" width="9.35" height="0" fill="var(--gg-accent, #4385be)"/><rect x="105.42" y="303.23" width="9.35" height="7.78" fill="var(--gg-accent, #4385be)"/><rect x="114.77" y="279.9" width="9.35" height="31.1" fill="var(--gg-accent, #4385be)"/><rect x="124.12" y="163.27" width="9.35" height="147.73" fill="var(--gg-accent, #4385be)"/><rect x="133.47" y="178.82" width="9.35" height="132.18" fill="var(--gg-accent, #4385be)"/><rect x="142.82" y="147.73" width="9.35" height="163.27" fill="var(--gg-accent, #4385be)"/><rect x="152.16" y="225.48" width="9.35" height="85.53" fill="var(--gg-accent, #4385be)"/><rect x="161.51" y="241.02" width="9.35" height="69.97" fill="var(--gg-accent, #4385be)"/><rect x="170.86" y="272.13" width="9.35" height="38.88" fill="var(--gg-accent, #4385be)"/><rect x="180.21" y="287.67" width="9.35" height="23.33" fill="var(--gg-accent, #4385be)"/></g></g></g><g class="gg-strip" transform="translate(237.33,33)"><rect width="191.33" height="16" fill="var(--gg-grid, #cccccc)"/><text x="95.67" y="8" dy="0.32em" text-anchor="middle" fill="var(--gg-ink, #262626)" font-size="12" font-weight="400">batch</text></g><g class="gg-axis gg-axis-x" transform="translate(237.33,362)"><g class="gg-tick" transform="translate(82,0)"><text y="3" dy="0.71em" text-anchor="middle" fill="var(--gg-axisText, #4d4d4d)" font-size="11.5" font-weight="300">200</text></g><g class="gg-tick" transform="translate(191.33,0)"><text y="3" dy="0.71em" text-anchor="middle" fill="var(--gg-axisText, #4d4d4d)" font-size="11.5" font-weight="300">400</text></g></g><g class="gg-panel" data-panel="2" transform="translate(436.67,51)"><rect class="gg-panel-background" width="191.33" height="311" fill="var(--gg-panel, #ffffff)"/><g class="gg-grid" stroke="var(--gg-grid, #cccccc)" stroke-width="0.4" vector-effect="non-scaling-stroke"><line x1="82" y1="0" x2="82" y2="311"/><line x1="191.33" y1="0" x2="191.33" y2="311"/><line x1="0" y1="311" x2="191.33" y2="311"/><line x1="0" y1="272.13" x2="191.33" y2="272.13"/><line x1="0" y1="233.25" x2="191.33" y2="233.25"/><line x1="0" y1="194.38" x2="191.33" y2="194.38"/><line x1="0" y1="155.5" x2="191.33" y2="155.5"/><line x1="0" y1="116.63" x2="191.33" y2="116.63"/><line x1="0" y1="77.75" x2="191.33" y2="77.75"/><line x1="0" y1="38.88" x2="191.33" y2="38.88"/><line x1="0" y1="0" x2="191.33" y2="0"/></g><g class="gg-marks" clip-path="url(#gg-clip-2)"><g class="gg-batch gg-rects" data-layer="0"><rect x="21.29" y="311" width="9.35" height="0" fill="var(--gg-accent, #4385be)"/><rect x="30.64" y="311" width="9.35" height="0" fill="var(--gg-accent, #4385be)"/><rect x="39.99" y="311" width="9.35" height="0" fill="var(--gg-accent, #4385be)"/><rect x="49.34" y="311" width="9.35" height="0" fill="var(--gg-accent, #4385be)"/><rect x="58.68" y="279.9" width="9.35" height="31.1" fill="var(--gg-accent, #4385be)"/><rect x="68.03" y="241.02" width="9.35" height="69.97" fill="var(--gg-accent, #4385be)"/><rect x="77.38" y="46.65" width="9.35" height="264.35" fill="var(--gg-accent, #4385be)"/><rect x="86.73" y="116.63" width="9.35" height="194.38" fill="var(--gg-accent, #4385be)"/><rect x="96.08" y="209.93" width="9.35" height="101.07" fill="var(--gg-accent, #4385be)"/><rect x="105.42" y="279.9" width="9.35" height="31.1" fill="var(--gg-accent, #4385be)"/><rect x="114.77" y="303.23" width="9.35" height="7.78" fill="var(--gg-accent, #4385be)"/><rect x="124.12" y="311" width="9.35" height="0" fill="var(--gg-accent, #4385be)"/><rect x="133.47" y="311" width="9.35" height="0" fill="var(--gg-accent, #4385be)"/><rect x="142.82" y="311" width="9.35" height="0" fill="var(--gg-accent, #4385be)"/><rect x="152.16" y="311" width="9.35" height="0" fill="var(--gg-accent, #4385be)"/><rect x="161.51" y="311" width="9.35" height="0" fill="var(--gg-accent, #4385be)"/><rect x="170.86" y="311" width="9.35" height="0" fill="var(--gg-accent, #4385be)"/><rect x="180.21" y="311" width="9.35" height="0" fill="var(--gg-accent, #4385be)"/></g></g></g><g class="gg-strip" transform="translate(436.67,33)"><rect width="191.33" height="16" fill="var(--gg-grid, #cccccc)"/><text x="95.67" y="8" dy="0.32em" text-anchor="middle" fill="var(--gg-ink, #262626)" font-size="12" font-weight="400">web</text></g><g class="gg-axis gg-axis-x" transform="translate(436.67,362)"><g class="gg-tick" transform="translate(82,0)"><text y="3" dy="0.71em" text-anchor="middle" fill="var(--gg-axisText, #4d4d4d)" font-size="11.5" font-weight="300">200</text></g><g class="gg-tick" transform="translate(191.33,0)"><text y="3" dy="0.71em" text-anchor="middle" fill="var(--gg-axisText, #4d4d4d)" font-size="11.5" font-weight="300">400</text></g></g><text class="gg-axis-title" x="333" y="394" text-anchor="middle" fill="var(--gg-ink, #262626)" font-size="9" font-weight="400">Response time (ms)</text><text class="gg-axis-title" transform="translate(12,206.5) rotate(-90)" text-anchor="middle" fill="var(--gg-ink, #262626)" font-size="9" font-weight="400">Requests</text></svg>