<svg xmlns="http://www.w3.org/2000/svg" width="640" height="400" viewBox="0 0 640 400" role="img" aria-label="Twelve months, three magnitudes" class="gg-plot" font-family="&quot;Roboto Condensed&quot;, &quot;Arial Narrow&quot;, Arial, sans-serif" font-size="11.5" font-weight="300" text-rendering="optimizeLegibility" shape-rendering="geometricPrecision"><title>Twelve months, three magnitudes</title><style>
@font-face{font-family:"Roboto Condensed";src:url("../../../packages/svelte/src/lib/fonts/RobotoCondensed-Light.ttf") format("truetype");font-weight:300;font-style:normal}
@font-face{font-family:"Roboto Condensed";src:url("../../../packages/svelte/src/lib/fonts/RobotoCondensed-Regular.ttf") format("truetype");font-weight:400;font-style:normal}
@font-face{font-family:"Roboto Condensed";src:url("../../../packages/svelte/src/lib/fonts/RobotoCondensed-Bold.ttf") format("truetype");font-weight:700;font-style:normal}
</style><rect class="gg-paper" width="640" height="400" fill="var(--gg-paper, #ffffff)"/><text class="gg-title" x="62" y="18" font-size="18" font-weight="700" fill="var(--gg-ink, #262626)">Twelve months, three magnitudes</text><defs><clipPath id="gg-clip-0"><rect width="155.33" height="311"/></clipPath><clipPath id="gg-clip-1"><rect width="155.33" height="311"/></clipPath><clipPath id="gg-clip-2"><rect width="155.33" height="311"/></clipPath></defs><g class="gg-panel" data-panel="0" transform="translate(62,51)"><rect class="gg-panel-background" width="155.33" height="311" fill="var(--gg-panel, #ffffff)"/><g class="gg-grid" stroke="var(--gg-grid, #cccccc)" stroke-width="0.4" vector-effect="non-scaling-stroke"><line x1="56.48" y1="0" x2="56.48" y2="311"/><line x1="127.09" y1="0" x2="127.09" y2="311"/><line x1="0" y1="311" x2="155.33" y2="311"/><line x1="0" y1="285.08" x2="155.33" y2="285.08"/><line x1="0" y1="259.17" x2="155.33" y2="259.17"/><line x1="0" y1="233.25" x2="155.33" y2="233.25"/><line x1="0" y1="207.33" x2="155.33" y2="207.33"/><line x1="0" y1="181.42" x2="155.33" y2="181.42"/><line x1="0" y1="155.5" x2="155.33" y2="155.5"/><line x1="0" y1="129.58" x2="155.33" y2="129.58"/><line x1="0" y1="103.67" x2="155.33" y2="103.67"/><line x1="0" y1="77.75" x2="155.33" y2="77.75"/><line x1="0" y1="51.83" x2="155.33" y2="51.83"/><line x1="0" y1="25.92" x2="155.33" y2="25.92"/><line x1="0" y1="0" x2="155.33" y2="0"/></g><g class="gg-marks" clip-path="url(#gg-clip-0)"><g class="gg-batch gg-paths" data-layer="0"><path d="M0 298.04L14.12 207.33L28.24 194.38L42.36 142.54L56.48 129.58L70.61 142.54L84.73 142.54L98.85 129.58L112.97 90.71L127.09 77.75L141.21 12.96L155.33 77.75" fill="none" stroke="var(--gg-ink, #262626)" stroke-width="1.5" stroke-linejoin="round" stroke-linecap="round"/></g><g class="gg-batch gg-points" data-layer="1"><circle cx="0" cy="298.04" r="2" fill="var(--gg-ink, #262626)"/><circle cx="14.12" cy="207.33" r="2" fill="var(--gg-ink, #262626)"/><circle cx="28.24" cy="194.38" r="2" fill="var(--gg-ink, #262626)"/><circle cx="42.36" cy="142.54" r="2" fill="var(--gg-ink, #262626)"/><circle cx="56.48" cy="129.58" r="2" fill="var(--gg-ink, #262626)"/><circle cx="70.61" cy="142.54" r="2" fill="var(--gg-ink, #262626)"/><circle cx="84.73" cy="142.54" r="2" fill="var(--gg-ink, #262626)"/><circle cx="98.85" cy="129.58" r="2" fill="var(--gg-ink, #262626)"/><circle cx="112.97" cy="90.71" r="2" fill="var(--gg-ink, #262626)"/><circle cx="127.09" cy="77.75" r="2" fill="var(--gg-ink, #262626)"/><circle cx="141.21" cy="12.96" r="2" fill="var(--gg-ink, #262626)"/><circle cx="155.33" cy="77.75" r="2" fill="var(--gg-ink, #262626)"/></g></g></g><g class="gg-strip" transform="translate(62,33)"><rect width="155.33" height="16" fill="var(--gg-grid, #cccccc)"/><text x="77.67" y="8" dy="0.32em" text-anchor="middle" fill="var(--gg-ink, #262626)" font-size="12" font-weight="400">errors</text></g><g class="gg-axis gg-axis-x" transform="translate(62,362)"><g class="gg-tick" transform="translate(56.48,0)"><text y="3" dy="0.71em" text-anchor="middle" fill="var(--gg-axisText, #4d4d4d)" font-size="11.5" font-weight="300">5</text></g><g class="gg-tick" transform="translate(127.09,0)"><text y="3" dy="0.71em" text-anchor="middle" fill="var(--gg-axisText, #4d4d4d)" font-size="11.5" font-weight="300">10</text></g></g><g class="gg-axis gg-axis-y" transform="translate(62,51)"><g class="gg-tick" transform="translate(0,311)"><text x="-3" dy="0.32em" text-anchor="end" fill="var(--gg-axisText, #4d4d4d)" font-size="11.5" font-weight="300">6.6</text></g><g class="gg-tick" transform="translate(0,285.08)"><text x="-3" dy="0.32em" text-anchor="end" fill="var(--gg-axisText, #4d4d4d)" font-size="11.5" font-weight="300">6.8</text></g><g class="gg-tick" transform="translate(0,259.17)"><text x="-3" dy="0.32em" text-anchor="end" fill="var(--gg-axisText, #4d4d4d)" font-size="11.5" font-weight="300">7.0</text></g><g class="gg-tick" transform="translate(0,233.25)"><text x="-3" dy="0.32em" text-anchor="end" fill="var(--gg-axisText, #4d4d4d)" font-size="11.5" font-weight="300">7.2</text></g><g class="gg-tick" transform="translate(0,207.33)"><text x="-3" dy="0.32em" text-anchor="end" fill="var(--gg-axisText, #4d4d4d)" font-size="11.5" font-weight="300">7.4</text></g><g class="gg-tick" transform="translate(0,181.42)"><text x="-3" dy="0.32em" text-anchor="end" fill="var(--gg-axisText, #4d4d4d)" font-size="11.5" font-weight="300">7.6</text></g><g class="gg-tick" transform="translate(0,155.5)"><text x="-3" dy="0.32em" text-anchor="end" fill="var(--gg-axisText, #4d4d4d)" font-size="11.5" font-weight="300">7.8</text></g><g class="gg-tick" transform="translate(0,129.58)"><text x="-3" dy="0.32em" text-anchor="end" fill="var(--gg-axisText, #4d4d4d)" font-size="11.5" font-weight="300">8.0</text></g><g class="gg-tick" transform="translate(0,103.67)"><text x="-3" dy="0.32em" text-anchor="end" fill="var(--gg-axisText, #4d4d4d)" font-size="11.5" font-weight="300">8.2</text></g><g class="gg-tick" transform="translate(0,77.75)"><text x="-3" dy="0.32em" text-anchor="end" fill="var(--gg-axisText, #4d4d4d)" font-size="11.5" font-weight="300">8.4</text></g><g class="gg-tick" transform="translate(0,51.83)"><text x="-3" dy="0.32em" text-anchor="end" fill="var(--gg-axisText, #4d4d4d)" font-size="11.5" font-weight="300">8.6</text></g><g class="gg-tick" transform="translate(0,25.92)"><text x="-3" dy="0.32em" text-anchor="end" fill="var(--gg-axisText, #4d4d4d)" font-size="11.5" font-weight="300">8.8</text></g><g class="gg-tick" transform="translate(0,0)"><text x="-3" dy="0.32em" text-anchor="end" fill="var(--gg-axisText, #4d4d4d)" font-size="11.5" font-weight="300">9.0</text></g></g><g class="gg-panel" data-panel="1" transform="translate(269.33,51)"><rect class="gg-panel-background" width="155.33" height="311" fill="var(--gg-panel, #ffffff)"/><g class="gg-grid" stroke="var(--gg-grid, #cccccc)" stroke-width="0.4" vector-effect="non-scaling-stroke"><line x1="56.48" y1="0" x2="56.48" y2="311"/><line x1="127.09" y1="0" x2="127.09" y2="311"/><line x1="0" y1="311" x2="155.33" y2="311"/><line x1="0" y1="282.73" x2="155.33" y2="282.73"/><line x1="0" y1="254.45" x2="155.33" y2="254.45"/><line x1="0" y1="226.18" x2="155.33" y2="226.18"/><line x1="0" y1="197.91" x2="155.33" y2="197.91"/><line x1="0" y1="169.64" x2="155.33" y2="169.64"/><line x1="0" y1="141.36" x2="155.33" y2="141.36"/><line x1="0" y1="113.09" x2="155.33" y2="113.09"/><line x1="0" y1="84.82" x2="155.33" y2="84.82"/><line x1="0" y1="56.55" x2="155.33" y2="56.55"/><line x1="0" y1="28.27" x2="155.33" y2="28.27"/><line x1="0" y1="0" x2="155.33" y2="0"/></g><g class="gg-marks" clip-path="url(#gg-clip-1)"><g class="gg-batch gg-paths" data-layer="0"><path d="M0 25.63L14.12 84.74L28.24 113.66L42.36 60.69L56.48 66.91L70.61 129.14L84.73 117.12L98.85 160.71L112.97 227.86L127.09 293.96L141.21 227.92L155.33 268.84" fill="none" stroke="var(--gg-ink, #262626)" stroke-width="1.5" stroke-linejoin="round" stroke-linecap="round"/></g><g class="gg-batch gg-points" data-layer="1"><circle cx="0" cy="25.63" r="2" fill="var(--gg-ink, #262626)"/><circle cx="14.12" cy="84.74" r="2" fill="var(--gg-ink, #262626)"/><circle cx="28.24" cy="113.66" r="2" fill="var(--gg-ink, #262626)"/><circle cx="42.36" cy="60.69" r="2" fill="var(--gg-ink, #262626)"/><circle cx="56.48" cy="66.91" r="2" fill="var(--gg-ink, #262626)"/><circle cx="70.61" cy="129.14" r="2" fill="var(--gg-ink, #262626)"/><circle cx="84.73" cy="117.12" r="2" fill="var(--gg-ink, #262626)"/><circle cx="98.85" cy="160.71" r="2" fill="var(--gg-ink, #262626)"/><circle cx="112.97" cy="227.86" r="2" fill="var(--gg-ink, #262626)"/><circle cx="127.09" cy="293.96" r="2" fill="var(--gg-ink, #262626)"/><circle cx="141.21" cy="227.92" r="2" fill="var(--gg-ink, #262626)"/><circle cx="155.33" cy="268.84" r="2" fill="var(--gg-ink, #262626)"/></g></g></g><g class="gg-strip" transform="translate(269.33,33)"><rect width="155.33" height="16" fill="var(--gg-grid, #cccccc)"/><text x="77.67" y="8" dy="0.32em" text-anchor="middle" fill="var(--gg-ink, #262626)" font-size="12" font-weight="400">page views</text></g><g class="gg-axis gg-axis-x" transform="translate(269.33,362)"><g class="gg-tick" transform="translate(56.48,0)"><text y="3" dy="0.71em" text-anchor="middle" fill="var(--gg-axisText, #4d4d4d)" font-size="11.5" font-weight="300">5</text></g><g class="gg-tick" transform="translate(127.09,0)"><text y="3" dy="0.71em" text-anchor="middle" fill="var(--gg-axisText, #4d4d4d)" font-size="11.5" font-weight="300">10</text></g></g><g class="gg-axis gg-axis-y" transform="translate(269.33,51)"><g class="gg-tick" transform="translate(0,311)"><text x="-3" dy="0.32em" text-anchor="end" fill="var(--gg-axisText, #4d4d4d)" font-size="11.5" font-weight="300">32,000</text></g><g class="gg-tick" transform="translate(0,282.73)"><text x="-3" dy="0.32em" text-anchor="end" fill="var(--gg-axisText, #4d4d4d)" font-size="11.5" font-weight="300">33,000</text></g><g class="gg-tick" transform="translate(0,254.45)"><text x="-3" dy="0.32em" text-anchor="end" fill="var(--gg-axisText, #4d4d4d)" font-size="11.5" font-weight="300">34,000</text></g><g class="gg-tick" transform="translate(0,226.18)"><text x="-3" dy="0.32em" text-anchor="end" fill="var(--gg-axisText, #4d4d4d)" font-size="11.5" font-weight="300">35,000</text></g><g class="gg-tick" transform="translate(0,197.91)"><text x="-3" dy="0.32em" text-anchor="end" fill="var(--gg-axisText, #4d4d4d)" font-size="11.5" font-weight="300">36,000</text></g><g class="gg-tick" transform="translate(0,169.64)"><text x="-3" dy="0.32em" text-anchor="end" fill="var(--gg-axisText, #4d4d4d)" font-size="11.5" font-weight="300">37,000</text></g><g class="gg-tick" transform="translate(0,141.36)"><text x="-3" dy="0.32em" text-anchor="end" fill="var(--gg-axisText, #4d4d4d)" font-size="11.5" font-weight="300">38,000</text></g><g class="gg-tick" transform="translate(0,113.09)"><text x="-3" dy="0.32em" text-anchor="end" fill="var(--gg-axisText, #4d4d4d)" font-size="11.5" font-weight="300">39,000</text></g><g class="gg-tick" transform="translate(0,84.82)"><text x="-3" dy="0.32em" text-anchor="end" fill="var(--gg-axisText, #4d4d4d)" font-size="11.5" font-weight="300">40,000</text></g><g class="gg-tick" transform="translate(0,56.55)"><text x="-3" dy="0.32em" text-anchor="end" fill="var(--gg-axisText, #4d4d4d)" font-size="11.5" font-weight="300">41,000</text></g><g class="gg-tick" transform="translate(0,28.27)"><text x="-3" dy="0.32em" text-anchor="end" fill="var(--gg-axisText, #4d4d4d)" font-size="11.5" font-weight="300">42,000</text></g><g class="gg-tick" transform="translate(0,0)"><text x="-3" dy="0.32em" text-anchor="end" fill="var(--gg-axisText, #4d4d4d)" font-size="11.5" font-weight="300">43,000</text></g></g><g class="gg-panel" data-panel="2" transform="translate(476.67,51)"><rect class="gg-panel-background" width="155.33" height="311" fill="var(--gg-panel, #ffffff)"/><g class="gg-grid" stroke="var(--gg-grid, #cccccc)" stroke-width="0.4" vector-effect="non-scaling-stroke"><line x1="56.48" y1="0" x2="56.48" y2="311"/><line x1="127.09" y1="0" x2="127.09" y2="311"/><line x1="0" y1="311" x2="155.33" y2="311"/><line x1="0" y1="266.57" x2="155.33" y2="266.57"/><line x1="0" y1="222.14" x2="155.33" y2="222.14"/><line x1="0" y1="177.71" x2="155.33" y2="177.71"/><line x1="0" y1="133.29" x2="155.33" y2="133.29"/><line x1="0" y1="88.86" x2="155.33" y2="88.86"/><line x1="0" y1="44.43" x2="155.33" y2="44.43"/><line x1="0" y1="0" x2="155.33" y2="0"/></g><g class="gg-marks" clip-path="url(#gg-clip-2)"><g class="gg-batch gg-paths" data-layer="0"><path d="M0 279.01L14.12 234.58L28.24 285.23L42.36 236.36L56.48 249.69L70.61 190.15L84.73 183.93L98.85 157.28L112.97 120.85L127.09 72.86L141.21 13.33L155.33 58.65" fill="none" stroke="var(--gg-ink, #262626)" stroke-width="1.5" stroke-linejoin="round" stroke-linecap="round"/></g><g class="gg-batch gg-points" data-layer="1"><circle cx="0" cy="279.01" r="2" fill="var(--gg-ink, #262626)"/><circle cx="14.12" cy="234.58" r="2" fill="var(--gg-ink, #262626)"/><circle cx="28.24" cy="285.23" r="2" fill="var(--gg-ink, #262626)"/><circle cx="42.36" cy="236.36" r="2" fill="var(--gg-ink, #262626)"/><circle cx="56.48" cy="249.69" r="2" fill="var(--gg-ink, #262626)"/><circle cx="70.61" cy="190.15" r="2" fill="var(--gg-ink, #262626)"/><circle cx="84.73" cy="183.93" r="2" fill="var(--gg-ink, #262626)"/><circle cx="98.85" cy="157.28" r="2" fill="var(--gg-ink, #262626)"/><circle cx="112.97" cy="120.85" r="2" fill="var(--gg-ink, #262626)"/><circle cx="127.09" cy="72.86" r="2" fill="var(--gg-ink, #262626)"/><circle cx="141.21" cy="13.33" r="2" fill="var(--gg-ink, #262626)"/><circle cx="155.33" cy="58.65" r="2" fill="var(--gg-ink, #262626)"/></g></g></g><g class="gg-strip" transform="translate(476.67,33)"><rect width="155.33" height="16" fill="var(--gg-grid, #cccccc)"/><text x="77.67" y="8" dy="0.32em" text-anchor="middle" fill="var(--gg-ink, #262626)" font-size="12" font-weight="400">signups</text></g><g class="gg-axis gg-axis-x" transform="translate(476.67,362)"><g class="gg-tick" transform="translate(56.48,0)"><text y="3" dy="0.71em" text-anchor="middle" fill="var(--gg-axisText, #4d4d4d)" font-size="11.5" font-weight="300">5</text></g><g class="gg-tick" transform="translate(127.09,0)"><text y="3" dy="0.71em" text-anchor="middle" fill="var(--gg-axisText, #4d4d4d)" font-size="11.5" font-weight="300">10</text></g></g><g class="gg-axis gg-axis-y" transform="translate(476.67,51)"><g class="gg-tick" transform="translate(0,311)"><text x="-3" dy="0.32em" text-anchor="end" fill="var(--gg-axisText, #4d4d4d)" font-size="11.5" font-weight="300">85</text></g><g class="gg-tick" transform="translate(0,266.57)"><text x="-3" dy="0.32em" text-anchor="end" fill="var(--gg-axisText, #4d4d4d)" font-size="11.5" font-weight="300">90</text></g><g class="gg-tick" transform="translate(0,222.14)"><text x="-3" dy="0.32em" text-anchor="end" fill="var(--gg-axisText, #4d4d4d)" font-size="11.5" font-weight="300">95</text></g><g class="gg-tick" transform="translate(0,177.71)"><text x="-3" dy="0.32em" text-anchor="end" fill="var(--gg-axisText, #4d4d4d)" font-size="11.5" font-weight="300">100</text></g><g class="gg-tick" transform="translate(0,133.29)"><text x="-3" dy="0.32em" text-anchor="end" fill="var(--gg-axisText, #4d4d4d)" font-size="11.5" font-weight="300">105</text></g><g class="gg-tick" transform="translate(0,88.86)"><text x="-3" dy="0.32em" text-anchor="end" fill="var(--gg-axisText, #4d4d4d)" font-size="11.5" font-weight="300">110</text></g><g class="gg-tick" transform="translate(0,44.43)"><text x="-3" dy="0.32em" text-anchor="end" fill="var(--gg-axisText, #4d4d4d)" font-size="11.5" font-weight="300">115</text></g><g class="gg-tick" transform="translate(0,0)"><text x="-3" dy="0.32em" text-anchor="end" fill="var(--gg-axisText, #4d4d4d)" font-size="11.5" font-weight="300">120</text></g></g><text class="gg-axis-title" x="347" y="394" text-anchor="middle" fill="var(--gg-ink, #262626)" font-size="9" font-weight="400">Month</text><text class="gg-axis-title" transform="translate(12,206.5) rotate(-90)" text-anchor="middle" fill="var(--gg-ink, #262626)" font-size="9" font-weight="400">Value</text></svg>