<svg xmlns="http://www.w3.org/2000/svg" width="640" height="400" viewBox="0 0 640 400" role="img" aria-label="Response time distribution" class="gg-plot" font-family="&quot;Roboto Condensed&quot;, &quot;Arial Narrow&quot;, Arial, sans-serif" font-size="11.5" font-weight="300" text-rendering="optimizeLegibility" shape-rendering="geometricPrecision"><title>Response time distribution</title><style>
@font-face{font-family:"Roboto Condensed";src:url("../../../packages/svelte/src/lib/fonts/RobotoCondensed-Light.ttf") format("truetype");font-weight:300;font-style:normal}
@font-face{font-family:"Roboto Condensed";src:url("../../../packages/svelte/src/lib/fonts/RobotoCondensed-Regular.ttf") format("truetype");font-weight:400;font-style:normal}
@font-face{font-family:"Roboto Condensed";src:url("../../../packages/svelte/src/lib/fonts/RobotoCondensed-Bold.ttf") format("truetype");font-weight:700;font-style:normal}
</style><rect class="gg-paper" width="640" height="400" fill="var(--gg-paper, #ffffff)"/><text class="gg-title" x="36" y="18" font-size="18" font-weight="700" fill="var(--gg-ink, #262626)">Response time distribution</text><defs><clipPath id="gg-clip-0"><rect width="592" height="327"/></clipPath></defs><g class="gg-panel" data-panel="0" transform="translate(36,33)"><rect class="gg-panel-background" width="592" height="327" fill="var(--gg-panel, #ffffff)"/><g class="gg-grid" stroke="var(--gg-grid, #cccccc)" stroke-width="0.4" vector-effect="non-scaling-stroke"><line x1="91.08" y1="0" x2="91.08" y2="327"/><line x1="204.92" y1="0" x2="204.92" y2="327"/><line x1="318.77" y1="0" x2="318.77" y2="327"/><line x1="432.62" y1="0" x2="432.62" y2="327"/><line x1="546.46" y1="0" x2="546.46" y2="327"/><line x1="0" y1="327" x2="592" y2="327"/><line x1="0" y1="272.5" x2="592" y2="272.5"/><line x1="0" y1="218" x2="592" y2="218"/><line x1="0" y1="163.5" x2="592" y2="163.5"/><line x1="0" y1="109" x2="592" y2="109"/><line x1="0" y1="54.5" x2="592" y2="54.5"/><line x1="0" y1="0" x2="592" y2="0"/></g><g class="gg-marks" clip-path="url(#gg-clip-0)"><g class="gg-batch gg-rects" data-layer="0"><rect x="0" y="321.55" width="45.54" height="5.45" fill="var(--gg-accent, #4385be)"/><rect x="45.54" y="316.1" width="45.54" height="10.9" fill="var(--gg-accent, #4385be)"/><rect x="91.08" y="305.2" width="45.54" height="21.8" fill="var(--gg-accent, #4385be)"/><rect x="136.62" y="277.95" width="45.54" height="49.05" fill="var(--gg-accent, #4385be)"/><rect x="182.15" y="158.05" width="45.54" height="168.95" fill="var(--gg-accent, #4385be)"/><rect x="227.69" y="103.55" width="45.54" height="223.45" fill="var(--gg-accent, #4385be)"/><rect x="273.23" y="43.6" width="45.54" height="283.4" fill="var(--gg-accent, #4385be)"/><rect x="318.77" y="49.05" width="45.54" height="277.95" fill="var(--gg-accent, #4385be)"/><rect x="364.31" y="0" width="45.54" height="327" fill="var(--gg-accent, #4385be)"/><rect x="409.85" y="163.5" width="45.54" height="163.5" fill="var(--gg-accent, #4385be)"/><rect x="455.38" y="250.7" width="45.54" height="76.3" fill="var(--gg-accent, #4385be)"/><rect x="500.92" y="305.2" width="45.54" height="21.8" fill="var(--gg-accent, #4385be)"/><rect x="546.46" y="321.55" width="45.54" height="5.45" fill="var(--gg-accent, #4385be)"/></g></g></g><g class="gg-axis gg-axis-x" transform="translate(36,360)"><g class="gg-tick" transform="translate(91.08,0)"><text y="3" dy="0.71em" text-anchor="middle" fill="var(--gg-axisText, #4d4d4d)" font-size="11.5" font-weight="300">200</text></g><g class="gg-tick" transform="translate(204.92,0)"><text y="3" dy="0.71em" text-anchor="middle" fill="var(--gg-axisText, #4d4d4d)" font-size="11.5" font-weight="300">250</text></g><g class="gg-tick" transform="translate(318.77,0)"><text y="3" dy="0.71em" text-anchor="middle" fill="var(--gg-axisText, #4d4d4d)" font-size="11.5" font-weight="300">300</text></g><g class="gg-tick" transform="translate(432.62,0)"><text y="3" dy="0.71em" text-anchor="middle" fill="var(--gg-axisText, #4d4d4d)" font-size="11.5" font-weight="300">350</text></g><g class="gg-tick" transform="translate(546.46,0)"><text y="3" dy="0.71em" text-anchor="middle" fill="var(--gg-axisText, #4d4d4d)" font-size="11.5" font-weight="300">400</text></g></g><g class="gg-axis gg-axis-y" transform="translate(36,33)"><g class="gg-tick" transform="translate(0,327)"><text x="-3" dy="0.32em" text-anchor="end" fill="var(--gg-axisText, #4d4d4d)" font-size="11.5" font-weight="300">0</text></g><g class="gg-tick" transform="translate(0,272.5)"><text x="-3" dy="0.32em" text-anchor="end" fill="var(--gg-axisText, #4d4d4d)" font-size="11.5" font-weight="300">10</text></g><g class="gg-tick" transform="translate(0,218)"><text x="-3" dy="0.32em" text-anchor="end" fill="var(--gg-axisText, #4d4d4d)" font-size="11.5" font-weight="300">20</text></g><g class="gg-tick" transform="translate(0,163.5)"><text x="-3" dy="0.32em" text-anchor="end" fill="var(--gg-axisText, #4d4d4d)" font-size="11.5" font-weight="300">30</text></g><g class="gg-tick" transform="translate(0,109)"><text x="-3" dy="0.32em" text-anchor="end" fill="var(--gg-axisText, #4d4d4d)" font-size="11.5" font-weight="300">40</text></g><g class="gg-tick" transform="translate(0,54.5)"><text x="-3" dy="0.32em" text-anchor="end" fill="var(--gg-axisText, #4d4d4d)" font-size="11.5" font-weight="300">50</text></g><g class="gg-tick" transform="translate(0,0)"><text x="-3" dy="0.32em" text-anchor="end" fill="var(--gg-axisText, #4d4d4d)" font-size="11.5" font-weight="300">60</text></g></g><text class="gg-axis-title" x="332" y="392" text-anchor="middle" fill="var(--gg-ink, #262626)" font-size="9" font-weight="400">Response time (ms)</text><text class="gg-axis-title" transform="translate(12,196.5) rotate(-90)" text-anchor="middle" fill="var(--gg-ink, #262626)" font-size="9" font-weight="400">Count</text></svg>