<svg xmlns="http://www.w3.org/2000/svg" width="640" height="400" viewBox="0 0 640 400" role="img" aria-label="Survey responses by language" class="gg-plot" font-family="&quot;Roboto Condensed&quot;, &quot;Arial Narrow&quot;, Arial, sans-serif" font-size="11.5" font-weight="300" text-rendering="optimizeLegibility" shape-rendering="geometricPrecision"><title>Survey responses by language</title><style>
@font-face{font-family:"Roboto Condensed";src:url("../../../packages/svelte/src/lib/fonts/RobotoCondensed-Light.ttf") format("truetype");font-weight:300;font-style:normal}
@font-face{font-family:"Roboto Condensed";src:url("../../../packages/svelte/src/lib/fonts/RobotoCondensed-Regular.ttf") format("truetype");font-weight:400;font-style:normal}
@font-face{font-family:"Roboto Condensed";src:url("../../../packages/svelte/src/lib/fonts/RobotoCondensed-Bold.ttf") format("truetype");font-weight:700;font-style:normal}
</style><rect class="gg-paper" width="640" height="400" fill="var(--gg-paper, #ffffff)"/><text class="gg-title" x="80" y="18" font-size="18" font-weight="700" fill="var(--gg-ink, #262626)">Survey responses by language</text><defs><clipPath id="gg-clip-0"><rect width="548" height="327"/></clipPath></defs><g class="gg-panel" data-panel="0" transform="translate(80,33)"><rect class="gg-panel-background" width="548" height="327" fill="var(--gg-panel, #ffffff)"/><g class="gg-grid" stroke="var(--gg-grid, #cccccc)" stroke-width="0.4" vector-effect="non-scaling-stroke"><line x1="0" y1="0" x2="0" y2="327"/><line x1="78.29" y1="0" x2="78.29" y2="327"/><line x1="156.57" y1="0" x2="156.57" y2="327"/><line x1="234.86" y1="0" x2="234.86" y2="327"/><line x1="313.14" y1="0" x2="313.14" y2="327"/><line x1="391.43" y1="0" x2="391.43" y2="327"/><line x1="469.71" y1="0" x2="469.71" y2="327"/><line x1="548" y1="0" x2="548" y2="327"/><line x1="0" y1="299.75" x2="548" y2="299.75"/><line x1="0" y1="245.25" x2="548" y2="245.25"/><line x1="0" y1="190.75" x2="548" y2="190.75"/><line x1="0" y1="136.25" x2="548" y2="136.25"/><line x1="0" y1="81.75" x2="548" y2="81.75"/><line x1="0" y1="27.25" x2="548" y2="27.25"/></g><g class="gg-marks" clip-path="url(#gg-clip-0)"><g class="gg-batch gg-rects" data-layer="0"><rect x="0" y="275.23" width="516.69" height="49.05" fill="var(--gg-accent, #4385be)"/><rect x="0" y="220.73" width="461.89" height="49.05" fill="var(--gg-accent, #4385be)"/><rect x="0" y="166.23" width="340.54" height="49.05" fill="var(--gg-accent, #4385be)"/><rect x="0" y="111.72" width="250.51" height="49.05" fill="var(--gg-accent, #4385be)"/><rect x="0" y="57.22" width="164.4" height="49.05" fill="var(--gg-accent, #4385be)"/><rect x="0" y="2.72" width="90.03" height="49.05" fill="var(--gg-accent, #4385be)"/></g></g></g><g class="gg-axis gg-axis-x" transform="translate(80,360)"><g class="gg-tick" transform="translate(0,0)"><text y="3" dy="0.71em" text-anchor="middle" fill="var(--gg-axisText, #4d4d4d)" font-size="11.5" font-weight="300">0</text></g><g class="gg-tick" transform="translate(78.29,0)"><text y="3" dy="0.71em" text-anchor="middle" fill="var(--gg-axisText, #4d4d4d)" font-size="11.5" font-weight="300">20</text></g><g class="gg-tick" transform="translate(156.57,0)"><text y="3" dy="0.71em" text-anchor="middle" fill="var(--gg-axisText, #4d4d4d)" font-size="11.5" font-weight="300">40</text></g><g class="gg-tick" transform="translate(234.86,0)"><text y="3" dy="0.71em" text-anchor="middle" fill="var(--gg-axisText, #4d4d4d)" font-size="11.5" font-weight="300">60</text></g><g class="gg-tick" transform="translate(313.14,0)"><text y="3" dy="0.71em" text-anchor="middle" fill="var(--gg-axisText, #4d4d4d)" font-size="11.5" font-weight="300">80</text></g><g class="gg-tick" transform="translate(391.43,0)"><text y="3" dy="0.71em" text-anchor="middle" fill="var(--gg-axisText, #4d4d4d)" font-size="11.5" font-weight="300">100</text></g><g class="gg-tick" transform="translate(469.71,0)"><text y="3" dy="0.71em" text-anchor="middle" fill="var(--gg-axisText, #4d4d4d)" font-size="11.5" font-weight="300">120</text></g><g class="gg-tick" transform="translate(548,0)"><text y="3" dy="0.71em" text-anchor="middle" fill="var(--gg-axisText, #4d4d4d)" font-size="11.5" font-weight="300">140</text></g></g><g class="gg-axis gg-axis-y" transform="translate(80,33)"><g class="gg-tick" transform="translate(0,299.75)"><text x="-3" dy="0.32em" text-anchor="end" fill="var(--gg-axisText, #4d4d4d)" font-size="11.5" font-weight="300">TypeScript</text></g><g class="gg-tick" transform="translate(0,245.25)"><text x="-3" dy="0.32em" text-anchor="end" fill="var(--gg-axisText, #4d4d4d)" font-size="11.5" font-weight="300">Python</text></g><g class="gg-tick" transform="translate(0,190.75)"><text x="-3" dy="0.32em" text-anchor="end" fill="var(--gg-axisText, #4d4d4d)" font-size="11.5" font-weight="300">Rust</text></g><g class="gg-tick" transform="translate(0,136.25)"><text x="-3" dy="0.32em" text-anchor="end" fill="var(--gg-axisText, #4d4d4d)" font-size="11.5" font-weight="300">Go</text></g><g class="gg-tick" transform="translate(0,81.75)"><text x="-3" dy="0.32em" text-anchor="end" fill="var(--gg-axisText, #4d4d4d)" font-size="11.5" font-weight="300">Kotlin</text></g><g class="gg-tick" transform="translate(0,27.25)"><text x="-3" dy="0.32em" text-anchor="end" fill="var(--gg-axisText, #4d4d4d)" font-size="11.5" font-weight="300">Elixir</text></g></g><text class="gg-axis-title" x="354" y="392" text-anchor="middle" fill="var(--gg-ink, #262626)" font-size="9" font-weight="400">Respondents</text><text class="gg-axis-title" transform="translate(12,196.5) rotate(-90)" text-anchor="middle" fill="var(--gg-ink, #262626)" font-size="9" font-weight="400">Language</text></svg>