<svg xmlns="http://www.w3.org/2000/svg" width="640" height="400" viewBox="0 0 640 400" role="img" aria-label="Score spread by team (seeded jitter)" class="gg-plot" font-family="&quot;Roboto Condensed&quot;, &quot;Arial Narrow&quot;, Arial, sans-serif" font-size="11.5" font-weight="300" text-rendering="optimizeLegibility" shape-rendering="geometricPrecision"><title>Score spread by team (seeded jitter)</title><style>
@font-face{font-family:"Roboto Condensed";src:url("../../../packages/svelte/src/lib/fonts/RobotoCondensed-Light.ttf") format("truetype");font-weight:300;font-style:normal}
@font-face{font-family:"Roboto Condensed";src:url("../../../packages/svelte/src/lib/fonts/RobotoCondensed-Regular.ttf") format("truetype");font-weight:400;font-style:normal}
@font-face{font-family:"Roboto Condensed";src:url("../../../packages/svelte/src/lib/fonts/RobotoCondensed-Bold.ttf") format("truetype");font-weight:700;font-style:normal}
</style><rect class="gg-paper" width="640" height="400" fill="var(--gg-paper, #ffffff)"/><text class="gg-title" x="32" y="18" font-size="18" font-weight="700" fill="var(--gg-ink, #262626)">Score spread by team (seeded jitter)</text><defs><clipPath id="gg-clip-0"><rect width="596" height="327"/></clipPath></defs><g class="gg-panel" data-panel="0" transform="translate(32,33)"><rect class="gg-panel-background" width="596" height="327" fill="var(--gg-panel, #ffffff)"/><g class="gg-grid" stroke="var(--gg-grid, #cccccc)" stroke-width="0.4" vector-effect="non-scaling-stroke"><line x1="74.5" y1="0" x2="74.5" y2="327"/><line x1="223.5" y1="0" x2="223.5" y2="327"/><line x1="372.5" y1="0" x2="372.5" y2="327"/><line x1="521.5" y1="0" x2="521.5" y2="327"/><line x1="0" y1="327" x2="596" y2="327"/><line x1="0" y1="272.5" x2="596" y2="272.5"/><line x1="0" y1="218" x2="596" y2="218"/><line x1="0" y1="163.5" x2="596" y2="163.5"/><line x1="0" y1="109" x2="596" y2="109"/><line x1="0" y1="54.5" x2="596" y2="54.5"/><line x1="0" y1="0" x2="596" y2="0"/></g><g class="gg-marks" clip-path="url(#gg-clip-0)"><g class="gg-batch gg-points" data-layer="0" opacity="0.45"><circle cx="79.32" cy="0.98" r="2.5" fill="var(--gg-ink, #262626)"/><circle cx="72.03" cy="111.2" r="2.5" fill="var(--gg-ink, #262626)"/><circle cx="91.31" cy="166.02" r="2.5" fill="var(--gg-ink, #262626)"/><circle cx="82.59" cy="168.11" r="2.5" fill="var(--gg-ink, #262626)"/><circle cx="59" cy="163.44" r="2.5" fill="var(--gg-ink, #262626)"/><circle cx="75.77" cy="3.04" r="2.5" fill="var(--gg-ink, #262626)"/><circle cx="63.69" cy="163.1" r="2.5" fill="var(--gg-ink, #262626)"/><circle cx="80.45" cy="326.37" r="2.5" fill="var(--gg-ink, #262626)"/><circle cx="91.93" cy="107.07" r="2.5" fill="var(--gg-ink, #262626)"/><circle cx="73.18" cy="55.32" r="2.5" fill="var(--gg-ink, #262626)"/><circle cx="62.58" cy="59.28" r="2.5" fill="var(--gg-ink, #262626)"/><circle cx="92.72" cy="333.49" r="2.5" fill="var(--gg-ink, #262626)"/><circle cx="86.22" cy="277.1" r="2.5" fill="var(--gg-ink, #262626)"/><circle cx="65.3" cy="103.2" r="2.5" fill="var(--gg-ink, #262626)"/><circle cx="60.07" cy="169.13" r="2.5" fill="var(--gg-ink, #262626)"/><circle cx="74.53" cy="158.65" r="2.5" fill="var(--gg-ink, #262626)"/><circle cx="83.4" cy="164.41" r="2.5" fill="var(--gg-ink, #262626)"/><circle cx="79.77" cy="108.97" r="2.5" fill="var(--gg-ink, #262626)"/><circle cx="50.84" cy="5.25" r="2.5" fill="var(--gg-ink, #262626)"/><circle cx="73.11" cy="159.29" r="2.5" fill="var(--gg-ink, #262626)"/><circle cx="90.58" cy="223.8" r="2.5" fill="var(--gg-ink, #262626)"/><circle cx="53.1" cy="219.69" r="2.5" fill="var(--gg-ink, #262626)"/><circle cx="78.9" cy="112.54" r="2.5" fill="var(--gg-ink, #262626)"/><circle cx="52.16" cy="269.85" r="2.5" fill="var(--gg-ink, #262626)"/><circle cx="63.39" cy="53.66" r="2.5" fill="var(--gg-ink, #262626)"/><circle cx="53.61" cy="332.3" r="2.5" fill="var(--gg-ink, #262626)"/><circle cx="59.51" cy="102.9" r="2.5" fill="var(--gg-ink, #262626)"/><circle cx="88.02" cy="323.73" r="2.5" fill="var(--gg-ink, #262626)"/><circle cx="75.95" cy="215.89" r="2.5" fill="var(--gg-ink, #262626)"/><circle cx="51.95" cy="214.12" r="2.5" fill="var(--gg-ink, #262626)"/><circle cx="58.91" cy="326.36" r="2.5" fill="var(--gg-ink, #262626)"/><circle cx="90.84" cy="323.01" r="2.5" fill="var(--gg-ink, #262626)"/><circle cx="73.92" cy="-0.35" r="2.5" fill="var(--gg-ink, #262626)"/><circle cx="89.23" cy="222.23" r="2.5" fill="var(--gg-ink, #262626)"/><circle cx="65.89" cy="278.02" r="2.5" fill="var(--gg-ink, #262626)"/><circle cx="72.11" cy="114.29" r="2.5" fill="var(--gg-ink, #262626)"/><circle cx="52.45" cy="223.76" r="2.5" fill="var(--gg-ink, #262626)"/><circle cx="53.11" cy="3.1" r="2.5" fill="var(--gg-ink, #262626)"/><circle cx="77.2" cy="161.25" r="2.5" fill="var(--gg-ink, #262626)"/><circle cx="79.11" cy="-2.2" r="2.5" fill="var(--gg-ink, #262626)"/><circle cx="62.35" cy="271.7" r="2.5" fill="var(--gg-ink, #262626)"/><circle cx="81.45" cy="320.77" r="2.5" fill="var(--gg-ink, #262626)"/><circle cx="60.65" cy="224.25" r="2.5" fill="var(--gg-ink, #262626)"/><circle cx="65.14" cy="273.85" r="2.5" fill="var(--gg-ink, #262626)"/><circle cx="85.88" cy="220.12" r="2.5" fill="var(--gg-ink, #262626)"/><circle cx="91.6" cy="111.82" r="2.5" fill="var(--gg-ink, #262626)"/><circle cx="74.88" cy="322.64" r="2.5" fill="var(--gg-ink, #262626)"/><circle cx="60.4" cy="54.02" r="2.5" fill="var(--gg-ink, #262626)"/><circle cx="64.21" cy="112.86" r="2.5" fill="var(--gg-ink, #262626)"/><circle cx="64.63" cy="266.69" r="2.5" fill="var(--gg-ink, #262626)"/><circle cx="54.22" cy="48.59" r="2.5" fill="var(--gg-ink, #262626)"/><circle cx="82.12" cy="221.06" r="2.5" fill="var(--gg-ink, #262626)"/><circle cx="83.12" cy="272.26" r="2.5" fill="var(--gg-ink, #262626)"/><circle cx="83.71" cy="213.29" r="2.5" fill="var(--gg-ink, #262626)"/><circle cx="94.9" cy="48.81" r="2.5" fill="var(--gg-ink, #262626)"/><circle cx="54.85" cy="52.08" r="2.5" fill="var(--gg-ink, #262626)"/><circle cx="95.66" cy="53.6" r="2.5" fill="var(--gg-ink, #262626)"/><circle cx="71.22" cy="-4.05" r="2.5" fill="var(--gg-ink, #262626)"/><circle cx="95.59" cy="111.46" r="2.5" fill="var(--gg-ink, #262626)"/><circle cx="57.21" cy="0.08" r="2.5" fill="var(--gg-ink, #262626)"/><circle cx="204.95" cy="160.23" r="2.5" fill="var(--gg-ink, #262626)"/><circle cx="200.42" cy="326.35" r="2.5" fill="var(--gg-ink, #262626)"/><circle cx="216.85" cy="324.55" r="2.5" fill="var(--gg-ink, #262626)"/><circle cx="222.63" cy="108.29" r="2.5" fill="var(--gg-ink, #262626)"/><circle cx="228.84" cy="217.4" r="2.5" fill="var(--gg-ink, #262626)"/><circle cx="242.55" cy="211.89" r="2.5" fill="var(--gg-ink, #262626)"/><circle cx="203.36" cy="266.17" r="2.5" fill="var(--gg-ink, #262626)"/><circle cx="233.97" cy="269.01" r="2.5" fill="var(--gg-ink, #262626)"/><circle cx="244.23" cy="166" r="2.5" fill="var(--gg-ink, #262626)"/><circle cx="212.93" cy="107.28" r="2.5" fill="var(--gg-ink, #262626)"/><circle cx="233.35" cy="106.8" r="2.5" fill="var(--gg-ink, #262626)"/><circle cx="208.22" cy="267.73" r="2.5" fill="var(--gg-ink, #262626)"/><circle cx="224.47" cy="164.98" r="2.5" fill="var(--gg-ink, #262626)"/><circle cx="238.85" cy="267.56" r="2.5" fill="var(--gg-ink, #262626)"/><circle cx="205.41" cy="56.89" r="2.5" fill="var(--gg-ink, #262626)"/><circle cx="247.13" cy="-4.97" r="2.5" fill="var(--gg-ink, #262626)"/><circle cx="226.49" cy="273.63" r="2.5" fill="var(--gg-ink, #262626)"/><circle cx="243.34" cy="2.1" r="2.5" fill="var(--gg-ink, #262626)"/><circle cx="220.35" cy="217.57" r="2.5" fill="var(--gg-ink, #262626)"/><circle cx="227.24" cy="50.1" r="2.5" fill="var(--gg-ink, #262626)"/><circle cx="215.73" cy="107.46" r="2.5" fill="var(--gg-ink, #262626)"/><circle cx="228.09" cy="322.19" r="2.5" fill="var(--gg-ink, #262626)"/><circle cx="215.06" cy="324.49" r="2.5" fill="var(--gg-ink, #262626)"/><circle cx="234.44" cy="331.57" r="2.5" fill="var(--gg-ink, #262626)"/><circle cx="213.74" cy="111.79" r="2.5" fill="var(--gg-ink, #262626)"/><circle cx="221.1" cy="48.46" r="2.5" fill="var(--gg-ink, #262626)"/><circle cx="239.86" cy="327.17" r="2.5" fill="var(--gg-ink, #262626)"/><circle cx="232.8" cy="329.95" r="2.5" fill="var(--gg-ink, #262626)"/><circle cx="247.05" cy="161.79" r="2.5" fill="var(--gg-ink, #262626)"/><circle cx="242.1" cy="50.95" r="2.5" fill="var(--gg-ink, #262626)"/><circle cx="220.25" cy="105.88" r="2.5" fill="var(--gg-ink, #262626)"/><circle cx="225.66" cy="160.69" r="2.5" fill="var(--gg-ink, #262626)"/><circle cx="213.77" cy="222.11" r="2.5" fill="var(--gg-ink, #262626)"/><circle cx="204.47" cy="158.96" r="2.5" fill="var(--gg-ink, #262626)"/><circle cx="232.88" cy="158.23" r="2.5" fill="var(--gg-ink, #262626)"/><circle cx="214.6" cy="162.91" r="2.5" fill="var(--gg-ink, #262626)"/><circle cx="237.13" cy="109.38" r="2.5" fill="var(--gg-ink, #262626)"/><circle cx="242.8" cy="5.59" r="2.5" fill="var(--gg-ink, #262626)"/><circle cx="204.12" cy="327" r="2.5" fill="var(--gg-ink, #262626)"/><circle cx="222.33" cy="267.36" r="2.5" fill="var(--gg-ink, #262626)"/><circle cx="238.85" cy="106.71" r="2.5" fill="var(--gg-ink, #262626)"/><circle cx="205.86" cy="328.03" r="2.5" fill="var(--gg-ink, #262626)"/><circle cx="246.04" cy="327.75" r="2.5" fill="var(--gg-ink, #262626)"/><circle cx="208.17" cy="270.98" r="2.5" fill="var(--gg-ink, #262626)"/><circle cx="233.49" cy="51.66" r="2.5" fill="var(--gg-ink, #262626)"/><circle cx="233.02" cy="326.77" r="2.5" fill="var(--gg-ink, #262626)"/><circle cx="210.3" cy="332.97" r="2.5" fill="var(--gg-ink, #262626)"/><circle cx="219.35" cy="331.35" r="2.5" fill="var(--gg-ink, #262626)"/><circle cx="207.45" cy="223.26" r="2.5" fill="var(--gg-ink, #262626)"/><circle cx="230.87" cy="277.46" r="2.5" fill="var(--gg-ink, #262626)"/><circle cx="215.68" cy="56.13" r="2.5" fill="var(--gg-ink, #262626)"/><circle cx="209.53" cy="50.21" r="2.5" fill="var(--gg-ink, #262626)"/><circle cx="229.65" cy="-4.42" r="2.5" fill="var(--gg-ink, #262626)"/><circle cx="241.95" cy="-2.4" r="2.5" fill="var(--gg-ink, #262626)"/><circle cx="215.22" cy="59.93" r="2.5" fill="var(--gg-ink, #262626)"/><circle cx="237.44" cy="333.11" r="2.5" fill="var(--gg-ink, #262626)"/><circle cx="218.4" cy="275.5" r="2.5" fill="var(--gg-ink, #262626)"/><circle cx="205.92" cy="269.88" r="2.5" fill="var(--gg-ink, #262626)"/><circle cx="240.84" cy="112.01" r="2.5" fill="var(--gg-ink, #262626)"/><circle cx="217.29" cy="267.84" r="2.5" fill="var(--gg-ink, #262626)"/><circle cx="349.11" cy="216.35" r="2.5" fill="var(--gg-ink, #262626)"/><circle cx="383.82" cy="103.65" r="2.5" fill="var(--gg-ink, #262626)"/><circle cx="378.95" cy="-5.08" r="2.5" fill="var(--gg-ink, #262626)"/><circle cx="390.42" cy="111.03" r="2.5" fill="var(--gg-ink, #262626)"/><circle cx="391.96" cy="59.73" r="2.5" fill="var(--gg-ink, #262626)"/><circle cx="358.62" cy="52.84" r="2.5" fill="var(--gg-ink, #262626)"/><circle cx="377.46" cy="221.4" r="2.5" fill="var(--gg-ink, #262626)"/><circle cx="371.99" cy="54.76" r="2.5" fill="var(--gg-ink, #262626)"/><circle cx="357.43" cy="275.39" r="2.5" fill="var(--gg-ink, #262626)"/><circle cx="350.92" cy="330.14" r="2.5" fill="var(--gg-ink, #262626)"/><circle cx="382.3" cy="215.12" r="2.5" fill="var(--gg-ink, #262626)"/><circle cx="382.44" cy="217.75" r="2.5" fill="var(--gg-ink, #262626)"/><circle cx="362.56" cy="163.66" r="2.5" fill="var(--gg-ink, #262626)"/><circle cx="361.8" cy="216.8" r="2.5" fill="var(--gg-ink, #262626)"/><circle cx="364.71" cy="59.61" r="2.5" fill="var(--gg-ink, #262626)"/><circle cx="350.05" cy="159.81" r="2.5" fill="var(--gg-ink, #262626)"/><circle cx="359.19" cy="324.53" r="2.5" fill="var(--gg-ink, #262626)"/><circle cx="396.03" cy="-5.48" r="2.5" fill="var(--gg-ink, #262626)"/><circle cx="375.95" cy="277.51" r="2.5" fill="var(--gg-ink, #262626)"/><circle cx="395.79" cy="5.77" r="2.5" fill="var(--gg-ink, #262626)"/><circle cx="356.47" cy="278.61" r="2.5" fill="var(--gg-ink, #262626)"/><circle cx="356.81" cy="165.59" r="2.5" fill="var(--gg-ink, #262626)"/><circle cx="375.41" cy="166.9" r="2.5" fill="var(--gg-ink, #262626)"/><circle cx="362.61" cy="221.53" r="2.5" fill="var(--gg-ink, #262626)"/><circle cx="367.48" cy="48.09" r="2.5" fill="var(--gg-ink, #262626)"/><circle cx="369.37" cy="271.44" r="2.5" fill="var(--gg-ink, #262626)"/><circle cx="368.61" cy="50.05" r="2.5" fill="var(--gg-ink, #262626)"/><circle cx="381.38" cy="329.07" r="2.5" fill="var(--gg-ink, #262626)"/><circle cx="367.66" cy="107.05" r="2.5" fill="var(--gg-ink, #262626)"/><circle cx="364.69" cy="333.12" r="2.5" fill="var(--gg-ink, #262626)"/><circle cx="391.36" cy="160.43" r="2.5" fill="var(--gg-ink, #262626)"/><circle cx="364.27" cy="159.59" r="2.5" fill="var(--gg-ink, #262626)"/><circle cx="372.27" cy="219.62" r="2.5" fill="var(--gg-ink, #262626)"/><circle cx="377.79" cy="221.87" r="2.5" fill="var(--gg-ink, #262626)"/><circle cx="374.71" cy="214.27" r="2.5" fill="var(--gg-ink, #262626)"/><circle cx="376.76" cy="-0.07" r="2.5" fill="var(--gg-ink, #262626)"/><circle cx="359.88" cy="222.73" r="2.5" fill="var(--gg-ink, #262626)"/><circle cx="364.17" cy="332.46" r="2.5" fill="var(--gg-ink, #262626)"/><circle cx="362.91" cy="-3.57" r="2.5" fill="var(--gg-ink, #262626)"/><circle cx="363.94" cy="0.89" r="2.5" fill="var(--gg-ink, #262626)"/><circle cx="380.57" cy="158.66" r="2.5" fill="var(--gg-ink, #262626)"/><circle cx="359.19" cy="159.68" r="2.5" fill="var(--gg-ink, #262626)"/><circle cx="356.73" cy="218.08" r="2.5" fill="var(--gg-ink, #262626)"/><circle cx="381.8" cy="266.59" r="2.5" fill="var(--gg-ink, #262626)"/><circle cx="363.64" cy="58.75" r="2.5" fill="var(--gg-ink, #262626)"/><circle cx="354.62" cy="4.64" r="2.5" fill="var(--gg-ink, #262626)"/><circle cx="363.62" cy="271.82" r="2.5" fill="var(--gg-ink, #262626)"/><circle cx="350.68" cy="270.22" r="2.5" fill="var(--gg-ink, #262626)"/><circle cx="376.2" cy="167.34" r="2.5" fill="var(--gg-ink, #262626)"/><circle cx="358.56" cy="50.97" r="2.5" fill="var(--gg-ink, #262626)"/><circle cx="371.62" cy="330.38" r="2.5" fill="var(--gg-ink, #262626)"/><circle cx="366.78" cy="168.27" r="2.5" fill="var(--gg-ink, #262626)"/><circle cx="382.61" cy="52.41" r="2.5" fill="var(--gg-ink, #262626)"/><circle cx="392.17" cy="-1.34" r="2.5" fill="var(--gg-ink, #262626)"/><circle cx="387.36" cy="162.77" r="2.5" fill="var(--gg-ink, #262626)"/><circle cx="369.61" cy="3.85" r="2.5" fill="var(--gg-ink, #262626)"/><circle cx="356.01" cy="-5.52" r="2.5" fill="var(--gg-ink, #262626)"/><circle cx="390.03" cy="-0.28" r="2.5" fill="var(--gg-ink, #262626)"/><circle cx="373.72" cy="-3.21" r="2.5" fill="var(--gg-ink, #262626)"/><circle cx="388.73" cy="5.89" r="2.5" fill="var(--gg-ink, #262626)"/><circle cx="540.31" cy="321.02" r="2.5" fill="var(--gg-ink, #262626)"/><circle cx="519.12" cy="53.45" r="2.5" fill="var(--gg-ink, #262626)"/><circle cx="504.65" cy="275.33" r="2.5" fill="var(--gg-ink, #262626)"/><circle cx="527.16" cy="114.92" r="2.5" fill="var(--gg-ink, #262626)"/><circle cx="536.17" cy="274.77" r="2.5" fill="var(--gg-ink, #262626)"/><circle cx="507.6" cy="51.73" r="2.5" fill="var(--gg-ink, #262626)"/><circle cx="516.24" cy="105.59" r="2.5" fill="var(--gg-ink, #262626)"/><circle cx="523.68" cy="221.26" r="2.5" fill="var(--gg-ink, #262626)"/><circle cx="544.6" cy="49.75" r="2.5" fill="var(--gg-ink, #262626)"/><circle cx="521.12" cy="218.58" r="2.5" fill="var(--gg-ink, #262626)"/><circle cx="538.64" cy="222.15" r="2.5" fill="var(--gg-ink, #262626)"/><circle cx="537.86" cy="-1.87" r="2.5" fill="var(--gg-ink, #262626)"/><circle cx="533.12" cy="326.9" r="2.5" fill="var(--gg-ink, #262626)"/><circle cx="500.21" cy="276.58" r="2.5" fill="var(--gg-ink, #262626)"/><circle cx="500.97" cy="104.39" r="2.5" fill="var(--gg-ink, #262626)"/><circle cx="505.73" cy="59.9" r="2.5" fill="var(--gg-ink, #262626)"/><circle cx="521.81" cy="277.26" r="2.5" fill="var(--gg-ink, #262626)"/><circle cx="529.92" cy="157.03" r="2.5" fill="var(--gg-ink, #262626)"/><circle cx="533.93" cy="58.27" r="2.5" fill="var(--gg-ink, #262626)"/><circle cx="544.93" cy="272.87" r="2.5" fill="var(--gg-ink, #262626)"/><circle cx="536.57" cy="217.89" r="2.5" fill="var(--gg-ink, #262626)"/><circle cx="527.78" cy="161.94" r="2.5" fill="var(--gg-ink, #262626)"/><circle cx="537.57" cy="327.2" r="2.5" fill="var(--gg-ink, #262626)"/><circle cx="538.33" cy="-2.28" r="2.5" fill="var(--gg-ink, #262626)"/><circle cx="526.24" cy="167.97" r="2.5" fill="var(--gg-ink, #262626)"/><circle cx="514.4" cy="211.73" r="2.5" fill="var(--gg-ink, #262626)"/><circle cx="518.97" cy="50.19" r="2.5" fill="var(--gg-ink, #262626)"/><circle cx="539.54" cy="56.51" r="2.5" fill="var(--gg-ink, #262626)"/><circle cx="530.13" cy="58.36" r="2.5" fill="var(--gg-ink, #262626)"/><circle cx="514.31" cy="326.76" r="2.5" fill="var(--gg-ink, #262626)"/><circle cx="542.36" cy="269.07" r="2.5" fill="var(--gg-ink, #262626)"/><circle cx="527.5" cy="218.71" r="2.5" fill="var(--gg-ink, #262626)"/><circle cx="513.36" cy="327.19" r="2.5" fill="var(--gg-ink, #262626)"/><circle cx="537.93" cy="57.74" r="2.5" fill="var(--gg-ink, #262626)"/><circle cx="504.89" cy="218.01" r="2.5" fill="var(--gg-ink, #262626)"/><circle cx="515.1" cy="169.58" r="2.5" fill="var(--gg-ink, #262626)"/><circle cx="498.61" cy="104.27" r="2.5" fill="var(--gg-ink, #262626)"/><circle cx="501.74" cy="328.78" r="2.5" fill="var(--gg-ink, #262626)"/><circle cx="528.54" cy="273.47" r="2.5" fill="var(--gg-ink, #262626)"/><circle cx="532.29" cy="275.75" r="2.5" fill="var(--gg-ink, #262626)"/><circle cx="543.24" cy="326.95" r="2.5" fill="var(--gg-ink, #262626)"/><circle cx="539.59" cy="6" r="2.5" fill="var(--gg-ink, #262626)"/><circle cx="519.89" cy="324.83" r="2.5" fill="var(--gg-ink, #262626)"/><circle cx="531.39" cy="278.19" r="2.5" fill="var(--gg-ink, #262626)"/><circle cx="504.58" cy="103.75" r="2.5" fill="var(--gg-ink, #262626)"/><circle cx="510.68" cy="51.06" r="2.5" fill="var(--gg-ink, #262626)"/><circle cx="504.29" cy="52.43" r="2.5" fill="var(--gg-ink, #262626)"/><circle cx="499.93" cy="50.44" r="2.5" fill="var(--gg-ink, #262626)"/><circle cx="511.53" cy="5.84" r="2.5" fill="var(--gg-ink, #262626)"/><circle cx="518.69" cy="107.87" r="2.5" fill="var(--gg-ink, #262626)"/><circle cx="524.78" cy="-0.64" r="2.5" fill="var(--gg-ink, #262626)"/><circle cx="531.82" cy="0.24" r="2.5" fill="var(--gg-ink, #262626)"/><circle cx="535.5" cy="-0.16" r="2.5" fill="var(--gg-ink, #262626)"/><circle cx="535.08" cy="109.32" r="2.5" fill="var(--gg-ink, #262626)"/><circle cx="507" cy="55.15" r="2.5" fill="var(--gg-ink, #262626)"/><circle cx="529.43" cy="162.49" r="2.5" fill="var(--gg-ink, #262626)"/><circle cx="522.35" cy="6.33" r="2.5" fill="var(--gg-ink, #262626)"/><circle cx="518.81" cy="269.78" r="2.5" fill="var(--gg-ink, #262626)"/><circle cx="520.02" cy="278.99" r="2.5" fill="var(--gg-ink, #262626)"/><circle cx="519.55" cy="-2.5" r="2.5" fill="var(--gg-ink, #262626)"/></g></g></g><g class="gg-axis gg-axis-x" transform="translate(32,360)"><g class="gg-tick" transform="translate(74.5,0)"><text y="3" dy="0.71em" text-anchor="middle" fill="var(--gg-axisText, #4d4d4d)" font-size="11.5" font-weight="300">north</text></g><g class="gg-tick" transform="translate(223.5,0)"><text y="3" dy="0.71em" text-anchor="middle" fill="var(--gg-axisText, #4d4d4d)" font-size="11.5" font-weight="300">east</text></g><g class="gg-tick" transform="translate(372.5,0)"><text y="3" dy="0.71em" text-anchor="middle" fill="var(--gg-axisText, #4d4d4d)" font-size="11.5" font-weight="300">south</text></g><g class="gg-tick" transform="translate(521.5,0)"><text y="3" dy="0.71em" text-anchor="middle" fill="var(--gg-axisText, #4d4d4d)" font-size="11.5" font-weight="300">west</text></g></g><g class="gg-axis gg-axis-y" transform="translate(32,33)"><g class="gg-tick" transform="translate(0,327)"><text x="-3" dy="0.32em" text-anchor="end" fill="var(--gg-axisText, #4d4d4d)" font-size="11.5" font-weight="300">1</text></g><g class="gg-tick" transform="translate(0,272.5)"><text x="-3" dy="0.32em" text-anchor="end" fill="var(--gg-axisText, #4d4d4d)" font-size="11.5" font-weight="300">2</text></g><g class="gg-tick" transform="translate(0,218)"><text x="-3" dy="0.32em" text-anchor="end" fill="var(--gg-axisText, #4d4d4d)" font-size="11.5" font-weight="300">3</text></g><g class="gg-tick" transform="translate(0,163.5)"><text x="-3" dy="0.32em" text-anchor="end" fill="var(--gg-axisText, #4d4d4d)" font-size="11.5" font-weight="300">4</text></g><g class="gg-tick" transform="translate(0,109)"><text x="-3" dy="0.32em" text-anchor="end" fill="var(--gg-axisText, #4d4d4d)" font-size="11.5" font-weight="300">5</text></g><g class="gg-tick" transform="translate(0,54.5)"><text x="-3" dy="0.32em" text-anchor="end" fill="var(--gg-axisText, #4d4d4d)" font-size="11.5" font-weight="300">6</text></g><g class="gg-tick" transform="translate(0,0)"><text x="-3" dy="0.32em" text-anchor="end" fill="var(--gg-axisText, #4d4d4d)" font-size="11.5" font-weight="300">7</text></g></g><text class="gg-axis-title" x="330" y="392" text-anchor="middle" fill="var(--gg-ink, #262626)" font-size="9" font-weight="400">Team</text><text class="gg-axis-title" transform="translate(12,196.5) rotate(-90)" text-anchor="middle" fill="var(--gg-ink, #262626)" font-size="9" font-weight="400">Score</text></svg>