<svg xmlns="http://www.w3.org/2000/svg" width="640" height="400" viewBox="0 0 640 400" role="img" aria-label="Monthly mean temperature" class="gg-plot" font-family="&quot;Roboto Condensed&quot;, &quot;Arial Narrow&quot;, Arial, sans-serif" font-size="11.5" font-weight="300" text-rendering="optimizeLegibility" shape-rendering="geometricPrecision"><title>Monthly mean temperature</title><style>
@font-face{font-family:"Roboto Condensed";src:url("../../../packages/svelte/src/lib/fonts/RobotoCondensed-Light.ttf") format("truetype");font-weight:300;font-style:normal}
@font-face{font-family:"Roboto Condensed";src:url("../../../packages/svelte/src/lib/fonts/RobotoCondensed-Regular.ttf") format("truetype");font-weight:400;font-style:normal}
@font-face{font-family:"Roboto Condensed";src:url("../../../packages/svelte/src/lib/fonts/RobotoCondensed-Bold.ttf") format("truetype");font-weight:700;font-style:normal}
</style><rect class="gg-paper" width="640" height="400" fill="var(--gg-paper, #ffffff)"/><text class="gg-title" x="36" y="18" font-size="18" font-weight="700" fill="var(--gg-ink, #262626)">Monthly mean temperature</text><defs><clipPath id="gg-clip-0"><rect width="508" height="327"/></clipPath></defs><g class="gg-panel" data-panel="0" transform="translate(36,33)"><rect class="gg-panel-background" width="508" height="327" fill="var(--gg-panel, #ffffff)"/><g class="gg-grid" stroke="var(--gg-grid, #cccccc)" stroke-width="0.4" vector-effect="non-scaling-stroke"><line x1="0" y1="0" x2="0" y2="327"/><line x1="46.18" y1="0" x2="46.18" y2="327"/><line x1="92.36" y1="0" x2="92.36" y2="327"/><line x1="138.55" y1="0" x2="138.55" y2="327"/><line x1="184.73" y1="0" x2="184.73" y2="327"/><line x1="230.91" y1="0" x2="230.91" y2="327"/><line x1="277.09" y1="0" x2="277.09" y2="327"/><line x1="323.27" y1="0" x2="323.27" y2="327"/><line x1="369.45" y1="0" x2="369.45" y2="327"/><line x1="415.64" y1="0" x2="415.64" y2="327"/><line x1="461.82" y1="0" x2="461.82" y2="327"/><line x1="508" y1="0" x2="508" y2="327"/><line x1="0" y1="327" x2="508" y2="327"/><line x1="0" y1="280.29" x2="508" y2="280.29"/><line x1="0" y1="233.57" x2="508" y2="233.57"/><line x1="0" y1="186.86" x2="508" y2="186.86"/><line x1="0" y1="140.14" x2="508" y2="140.14"/><line x1="0" y1="93.43" x2="508" y2="93.43"/><line x1="0" y1="46.71" x2="508" y2="46.71"/><line x1="0" y1="0" x2="508" y2="0"/></g><g class="gg-marks" clip-path="url(#gg-clip-0)"><g class="gg-batch gg-paths" data-layer="0"><path d="M0 284.96L46.18 276.55L92.36 275.61L138.55 253.19L184.73 221.43L230.91 196.2L277.09 181.25L323.27 184.05L369.45 211.15L415.64 239.18L461.82 270.01L508 282.15" fill="none" stroke="#4269d0" stroke-width="2" stroke-linejoin="round" stroke-linecap="round"/><path d="M0 274.68L46.18 267.21L92.36 235.44L138.55 196.2L184.73 149.49L230.91 121.46L277.09 102.77L323.27 103.71L369.45 142.95L415.64 187.79L461.82 233.57L508 262.53" fill="none" stroke="#efb118" stroke-width="2" stroke-linejoin="round" stroke-linecap="round"/><path d="M0 32.7L46.18 27.09L92.36 23.36L138.55 18.69L184.73 15.88L230.91 15.88L277.09 19.62L323.27 19.62L369.45 22.42L415.64 22.42L461.82 28.03L508 33.63" fill="none" stroke="#ff725c" stroke-width="2" stroke-linejoin="round" stroke-linecap="round"/></g><g class="gg-batch gg-points" data-layer="1"><circle cx="0" cy="284.96" r="2.5" fill="#4269d0"/><circle cx="46.18" cy="276.55" r="2.5" fill="#4269d0"/><circle cx="92.36" cy="275.61" r="2.5" fill="#4269d0"/><circle cx="138.55" cy="253.19" r="2.5" fill="#4269d0"/><circle cx="184.73" cy="221.43" r="2.5" fill="#4269d0"/><circle cx="230.91" cy="196.2" r="2.5" fill="#4269d0"/><circle cx="277.09" cy="181.25" r="2.5" fill="#4269d0"/><circle cx="323.27" cy="184.05" r="2.5" fill="#4269d0"/><circle cx="369.45" cy="211.15" r="2.5" fill="#4269d0"/><circle cx="415.64" cy="239.18" r="2.5" fill="#4269d0"/><circle cx="461.82" cy="270.01" r="2.5" fill="#4269d0"/><circle cx="508" cy="282.15" r="2.5" fill="#4269d0"/><circle cx="0" cy="274.68" r="2.5" fill="#efb118"/><circle cx="46.18" cy="267.21" r="2.5" fill="#efb118"/><circle cx="92.36" cy="235.44" r="2.5" fill="#efb118"/><circle cx="138.55" cy="196.2" r="2.5" fill="#efb118"/><circle cx="184.73" cy="149.49" r="2.5" fill="#efb118"/><circle cx="230.91" cy="121.46" r="2.5" fill="#efb118"/><circle cx="277.09" cy="102.77" r="2.5" fill="#efb118"/><circle cx="323.27" cy="103.71" r="2.5" fill="#efb118"/><circle cx="369.45" cy="142.95" r="2.5" fill="#efb118"/><circle cx="415.64" cy="187.79" r="2.5" fill="#efb118"/><circle cx="461.82" cy="233.57" r="2.5" fill="#efb118"/><circle cx="508" cy="262.53" r="2.5" fill="#efb118"/><circle cx="0" cy="32.7" r="2.5" fill="#ff725c"/><circle cx="46.18" cy="27.09" r="2.5" fill="#ff725c"/><circle cx="92.36" cy="23.36" r="2.5" fill="#ff725c"/><circle cx="138.55" cy="18.69" r="2.5" fill="#ff725c"/><circle cx="184.73" cy="15.88" r="2.5" fill="#ff725c"/><circle cx="230.91" cy="15.88" r="2.5" fill="#ff725c"/><circle cx="277.09" cy="19.62" r="2.5" fill="#ff725c"/><circle cx="323.27" cy="19.62" r="2.5" fill="#ff725c"/><circle cx="369.45" cy="22.42" r="2.5" fill="#ff725c"/><circle cx="415.64" cy="22.42" r="2.5" fill="#ff725c"/><circle cx="461.82" cy="28.03" r="2.5" fill="#ff725c"/><circle cx="508" cy="33.63" r="2.5" fill="#ff725c"/></g></g></g><g class="gg-axis gg-axis-x" transform="translate(36,360)"><g class="gg-tick" transform="translate(0,0)"><text y="3" dy="0.71em" text-anchor="middle" fill="var(--gg-axisText, #4d4d4d)" font-size="11.5" font-weight="300">1</text></g><g class="gg-tick" transform="translate(46.18,0)"><text y="3" dy="0.71em" text-anchor="middle" fill="var(--gg-axisText, #4d4d4d)" font-size="11.5" font-weight="300">2</text></g><g class="gg-tick" transform="translate(92.36,0)"><text y="3" dy="0.71em" text-anchor="middle" fill="var(--gg-axisText, #4d4d4d)" font-size="11.5" font-weight="300">3</text></g><g class="gg-tick" transform="translate(138.55,0)"><text y="3" dy="0.71em" text-anchor="middle" fill="var(--gg-axisText, #4d4d4d)" font-size="11.5" font-weight="300">4</text></g><g class="gg-tick" transform="translate(184.73,0)"><text y="3" dy="0.71em" text-anchor="middle" fill="var(--gg-axisText, #4d4d4d)" font-size="11.5" font-weight="300">5</text></g><g class="gg-tick" transform="translate(230.91,0)"><text y="3" dy="0.71em" text-anchor="middle" fill="var(--gg-axisText, #4d4d4d)" font-size="11.5" font-weight="300">6</text></g><g class="gg-tick" transform="translate(277.09,0)"><text y="3" dy="0.71em" text-anchor="middle" fill="var(--gg-axisText, #4d4d4d)" font-size="11.5" font-weight="300">7</text></g><g class="gg-tick" transform="translate(323.27,0)"><text y="3" dy="0.71em" text-anchor="middle" fill="var(--gg-axisText, #4d4d4d)" font-size="11.5" font-weight="300">8</text></g><g class="gg-tick" transform="translate(369.45,0)"><text y="3" dy="0.71em" text-anchor="middle" fill="var(--gg-axisText, #4d4d4d)" font-size="11.5" font-weight="300">9</text></g><g class="gg-tick" transform="translate(415.64,0)"><text y="3" dy="0.71em" text-anchor="middle" fill="var(--gg-axisText, #4d4d4d)" font-size="11.5" font-weight="300">10</text></g><g class="gg-tick" transform="translate(461.82,0)"><text y="3" dy="0.71em" text-anchor="middle" fill="var(--gg-axisText, #4d4d4d)" font-size="11.5" font-weight="300">11</text></g><g class="gg-tick" transform="translate(508,0)"><text y="3" dy="0.71em" text-anchor="middle" fill="var(--gg-axisText, #4d4d4d)" font-size="11.5" font-weight="300">12</text></g></g><g class="gg-axis gg-axis-y" transform="translate(36,33)"><g class="gg-tick" transform="translate(0,327)"><text x="-3" dy="0.32em" text-anchor="end" fill="var(--gg-axisText, #4d4d4d)" font-size="11.5" font-weight="300">-5</text></g><g class="gg-tick" transform="translate(0,280.29)"><text x="-3" dy="0.32em" text-anchor="end" fill="var(--gg-axisText, #4d4d4d)" font-size="11.5" font-weight="300">0</text></g><g class="gg-tick" transform="translate(0,233.57)"><text x="-3" dy="0.32em" text-anchor="end" fill="var(--gg-axisText, #4d4d4d)" font-size="11.5" font-weight="300">5</text></g><g class="gg-tick" transform="translate(0,186.86)"><text x="-3" dy="0.32em" text-anchor="end" fill="var(--gg-axisText, #4d4d4d)" font-size="11.5" font-weight="300">10</text></g><g class="gg-tick" transform="translate(0,140.14)"><text x="-3" dy="0.32em" text-anchor="end" fill="var(--gg-axisText, #4d4d4d)" font-size="11.5" font-weight="300">15</text></g><g class="gg-tick" transform="translate(0,93.43)"><text x="-3" dy="0.32em" text-anchor="end" fill="var(--gg-axisText, #4d4d4d)" font-size="11.5" font-weight="300">20</text></g><g class="gg-tick" transform="translate(0,46.71)"><text x="-3" dy="0.32em" text-anchor="end" fill="var(--gg-axisText, #4d4d4d)" font-size="11.5" font-weight="300">25</text></g><g class="gg-tick" transform="translate(0,0)"><text x="-3" dy="0.32em" text-anchor="end" fill="var(--gg-axisText, #4d4d4d)" font-size="11.5" font-weight="300">30</text></g></g><text class="gg-axis-title" x="290" y="392" text-anchor="middle" fill="var(--gg-ink, #262626)" font-size="9" font-weight="400">Month</text><text class="gg-axis-title" transform="translate(12,196.5) rotate(-90)" text-anchor="middle" fill="var(--gg-ink, #262626)" font-size="9" font-weight="400">Temperature (°C)</text><g class="gg-legend gg-legend-color" transform="translate(563,33)"><text class="gg-legend-title" x="4" y="11" font-weight="bold" fill="var(--gg-ink, #262626)">City</text><rect class="gg-legend-swatch" x="4" y="22" width="10" height="10" fill="#4269d0"/><text class="gg-legend-label" x="20" y="27" dy="0.32em" fill="var(--gg-ink, #262626)">Reykjavik</text><rect class="gg-legend-swatch" x="4" y="40" width="10" height="10" fill="#efb118"/><text class="gg-legend-label" x="20" y="45" dy="0.32em" fill="var(--gg-ink, #262626)">Berlin</text><rect class="gg-legend-swatch" x="4" y="58" width="10" height="10" fill="#ff725c"/><text class="gg-legend-label" x="20" y="63" dy="0.32em" fill="var(--gg-ink, #262626)">Singapore</text></g></svg>