<svg xmlns="http://www.w3.org/2000/svg" width="640" height="400" viewBox="0 0 640 400" role="img" aria-label="Income and life expectancy" class="gg-plot" font-family="&quot;Roboto Condensed&quot;, &quot;Arial Narrow&quot;, Arial, sans-serif" font-size="11.5" font-weight="300" text-rendering="optimizeLegibility" shape-rendering="geometricPrecision"><title>Income and life expectancy</title><style>
@font-face{font-family:"Roboto Condensed";src:url("../../../packages/svelte/src/lib/fonts/RobotoCondensed-Light.ttf") format("truetype");font-weight:300;font-style:normal}
@font-face{font-family:"Roboto Condensed";src:url("../../../packages/svelte/src/lib/fonts/RobotoCondensed-Regular.ttf") format("truetype");font-weight:400;font-style:normal}
@font-face{font-family:"Roboto Condensed";src:url("../../../packages/svelte/src/lib/fonts/RobotoCondensed-Bold.ttf") format("truetype");font-weight:700;font-style:normal}
</style><rect class="gg-paper" width="640" height="400" fill="var(--gg-paper, #ffffff)"/><text class="gg-title" x="36" y="18" font-size="18" font-weight="700" fill="var(--gg-ink, #262626)">Income and life expectancy</text><defs><clipPath id="gg-clip-0"><rect width="504" height="327"/></clipPath></defs><g class="gg-panel" data-panel="0" transform="translate(36,33)"><rect class="gg-panel-background" width="504" height="327" fill="var(--gg-panel, #ffffff)"/><g class="gg-grid" stroke="var(--gg-grid, #cccccc)" stroke-width="0.4" vector-effect="non-scaling-stroke"><line x1="0" y1="0" x2="0" y2="327"/><line x1="168" y1="0" x2="168" y2="327"/><line x1="336" y1="0" x2="336" y2="327"/><line x1="504" y1="0" x2="504" y2="327"/><line x1="0" y1="327" x2="504" y2="327"/><line x1="0" y1="280.29" x2="504" y2="280.29"/><line x1="0" y1="233.57" x2="504" y2="233.57"/><line x1="0" y1="186.86" x2="504" y2="186.86"/><line x1="0" y1="140.14" x2="504" y2="140.14"/><line x1="0" y1="93.43" x2="504" y2="93.43"/><line x1="0" y1="46.71" x2="504" y2="46.71"/><line x1="0" y1="0" x2="504" y2="0"/></g><g class="gg-marks" clip-path="url(#gg-clip-0)"><g class="gg-batch gg-points" data-layer="0"><circle cx="69.43" cy="217.69" r="3.5" fill="#4269d0"/><circle cx="169.94" cy="171.91" r="3.5" fill="#4269d0"/><circle cx="216.73" cy="199" r="3.5" fill="#4269d0"/><circle cx="224.99" cy="284.96" r="3.5" fill="#4269d0"/><circle cx="259.65" cy="138.27" r="3.5" fill="#4269d0"/><circle cx="299.01" cy="184.05" r="3.5" fill="#4269d0"/><circle cx="234.41" cy="161.63" r="3.5" fill="#efb118"/><circle cx="275.22" cy="97.17" r="3.5" fill="#efb118"/><circle cx="284.55" cy="153.22" r="3.5" fill="#efb118"/><circle cx="352.94" cy="59.79" r="3.5" fill="#efb118"/><circle cx="347.14" cy="81.28" r="3.5" fill="#efb118"/><circle cx="423.38" cy="6.54" r="3.5" fill="#efb118"/><circle cx="424.93" cy="2.8" r="3.5" fill="#efb118"/><circle cx="491.91" cy="12.15" r="3.5" fill="#efb118"/><circle cx="336.32" cy="85.95" r="3.5" fill="#ff725c"/><circle cx="360.16" cy="92.49" r="3.5" fill="#ff725c"/><circle cx="359.13" cy="71.94" r="3.5" fill="#ff725c"/><circle cx="458.19" cy="22.42" r="3.5" fill="#ff725c"/><circle cx="489.25" cy="53.25" r="3.5" fill="#ff725c"/><circle cx="288.02" cy="108.38" r="3.5" fill="#6cc5b0"/><circle cx="393.9" cy="60.73" r="3.5" fill="#6cc5b0"/><circle cx="422.39" cy="10.28" r="3.5" fill="#6cc5b0"/><circle cx="457.33" cy="33.63" r="3.5" fill="#6cc5b0"/><circle cx="494.64" cy="15.88" r="3.5" fill="#6cc5b0"/></g></g></g><g class="gg-axis gg-axis-x" transform="translate(36,360)"><g class="gg-tick" transform="translate(0,0)"><text y="3" dy="0.71em" text-anchor="middle" fill="var(--gg-axisText, #4d4d4d)" font-size="11.5" font-weight="300">100</text></g><g class="gg-tick" transform="translate(168,0)"><text y="3" dy="0.71em" text-anchor="middle" fill="var(--gg-axisText, #4d4d4d)" font-size="11.5" font-weight="300">1k</text></g><g class="gg-tick" transform="translate(336,0)"><text y="3" dy="0.71em" text-anchor="middle" fill="var(--gg-axisText, #4d4d4d)" font-size="11.5" font-weight="300">10k</text></g><g class="gg-tick" transform="translate(504,0)"><text y="3" dy="0.71em" text-anchor="middle" fill="var(--gg-axisText, #4d4d4d)" font-size="11.5" font-weight="300">100k</text></g></g><g class="gg-axis gg-axis-y" transform="translate(36,33)"><g class="gg-tick" transform="translate(0,327)"><text x="-3" dy="0.32em" text-anchor="end" fill="var(--gg-axisText, #4d4d4d)" font-size="11.5" font-weight="300">50</text></g><g class="gg-tick" transform="translate(0,280.29)"><text x="-3" dy="0.32em" text-anchor="end" fill="var(--gg-axisText, #4d4d4d)" font-size="11.5" font-weight="300">55</text></g><g class="gg-tick" transform="translate(0,233.57)"><text x="-3" dy="0.32em" text-anchor="end" fill="var(--gg-axisText, #4d4d4d)" font-size="11.5" font-weight="300">60</text></g><g class="gg-tick" transform="translate(0,186.86)"><text x="-3" dy="0.32em" text-anchor="end" fill="var(--gg-axisText, #4d4d4d)" font-size="11.5" font-weight="300">65</text></g><g class="gg-tick" transform="translate(0,140.14)"><text x="-3" dy="0.32em" text-anchor="end" fill="var(--gg-axisText, #4d4d4d)" font-size="11.5" font-weight="300">70</text></g><g class="gg-tick" transform="translate(0,93.43)"><text x="-3" dy="0.32em" text-anchor="end" fill="var(--gg-axisText, #4d4d4d)" font-size="11.5" font-weight="300">75</text></g><g class="gg-tick" transform="translate(0,46.71)"><text x="-3" dy="0.32em" text-anchor="end" fill="var(--gg-axisText, #4d4d4d)" font-size="11.5" font-weight="300">80</text></g><g class="gg-tick" transform="translate(0,0)"><text x="-3" dy="0.32em" text-anchor="end" fill="var(--gg-axisText, #4d4d4d)" font-size="11.5" font-weight="300">85</text></g></g><text class="gg-axis-title" x="288" y="392" text-anchor="middle" fill="var(--gg-ink, #262626)" font-size="9" font-weight="400">GDP per capita (USD, log scale)</text><text class="gg-axis-title" transform="translate(12,196.5) rotate(-90)" text-anchor="middle" fill="var(--gg-ink, #262626)" font-size="9" font-weight="400">Life expectancy (years)</text><g class="gg-legend gg-legend-color" transform="translate(568,33)"><text class="gg-legend-title" x="4" y="11" font-weight="bold" fill="var(--gg-ink, #262626)">Region</text><rect class="gg-legend-swatch" x="4" y="22" width="10" height="10" fill="#4269d0"/><text class="gg-legend-label" x="20" y="27" dy="0.32em" fill="var(--gg-ink, #262626)">Africa</text><rect class="gg-legend-swatch" x="4" y="40" width="10" height="10" fill="#efb118"/><text class="gg-legend-label" x="20" y="45" dy="0.32em" fill="var(--gg-ink, #262626)">Asia</text><rect class="gg-legend-swatch" x="4" y="58" width="10" height="10" fill="#ff725c"/><text class="gg-legend-label" x="20" y="63" dy="0.32em" fill="var(--gg-ink, #262626)">Americas</text><rect class="gg-legend-swatch" x="4" y="76" width="10" height="10" fill="#6cc5b0"/><text class="gg-legend-label" x="20" y="81" dy="0.32em" fill="var(--gg-ink, #262626)">Europe</text></g></svg>