<svg xmlns="http://www.w3.org/2000/svg" width="640" height="400" viewBox="0 0 640 400" role="img" aria-label="What each age group streams" class="gg-plot" font-family="&quot;Roboto Condensed&quot;, &quot;Arial Narrow&quot;, Arial, sans-serif" font-size="11.5" font-weight="300" text-rendering="optimizeLegibility" shape-rendering="geometricPrecision"><title>What each age group streams</title><style>
@font-face{font-family:"Roboto Condensed";src:url("../../../packages/svelte/src/lib/fonts/RobotoCondensed-Light.ttf") format("truetype");font-weight:300;font-style:normal}
@font-face{font-family:"Roboto Condensed";src:url("../../../packages/svelte/src/lib/fonts/RobotoCondensed-Regular.ttf") format("truetype");font-weight:400;font-style:normal}
@font-face{font-family:"Roboto Condensed";src:url("../../../packages/svelte/src/lib/fonts/RobotoCondensed-Bold.ttf") format("truetype");font-weight:700;font-style:normal}
</style><rect class="gg-paper" width="640" height="400" fill="var(--gg-paper, #ffffff)"/><text class="gg-title" x="56" y="18" font-size="18" font-weight="700" fill="var(--gg-ink, #262626)">What each age group streams</text><defs><clipPath id="gg-clip-0"><rect width="472" height="327"/></clipPath></defs><g class="gg-panel" data-panel="0" transform="translate(56,33)"><rect class="gg-panel-background" width="472" height="327" fill="var(--gg-panel, #ffffff)"/><g class="gg-grid" stroke="var(--gg-grid, #cccccc)" stroke-width="0.4" vector-effect="non-scaling-stroke"><line x1="59" y1="0" x2="59" y2="327"/><line x1="177" y1="0" x2="177" y2="327"/><line x1="295" y1="0" x2="295" y2="327"/><line x1="413" y1="0" x2="413" y2="327"/><line x1="0" y1="327" x2="472" y2="327"/><line x1="0" y1="294.3" x2="472" y2="294.3"/><line x1="0" y1="261.6" x2="472" y2="261.6"/><line x1="0" y1="228.9" x2="472" y2="228.9"/><line x1="0" y1="196.2" x2="472" y2="196.2"/><line x1="0" y1="163.5" x2="472" y2="163.5"/><line x1="0" y1="130.8" x2="472" y2="130.8"/><line x1="0" y1="98.1" x2="472" y2="98.1"/><line x1="0" y1="65.4" x2="472" y2="65.4"/><line x1="0" y1="32.7" x2="472" y2="32.7"/><line x1="0" y1="0" x2="472" y2="0"/></g><g class="gg-marks" clip-path="url(#gg-clip-0)"><g class="gg-batch gg-rects" data-layer="0"><rect x="5.9" y="0" width="106.2" height="106.28" fill="#4269d0"/><rect x="5.9" y="106.28" width="106.2" height="73.57" fill="#efb118"/><rect x="5.9" y="179.85" width="106.2" height="147.15" fill="#ff725c"/><rect x="123.9" y="0" width="106.2" height="138.98" fill="#ff725c"/><rect x="123.9" y="138.98" width="106.2" height="73.57" fill="#efb118"/><rect x="123.9" y="212.55" width="106.2" height="114.45" fill="#4269d0"/><rect x="241.9" y="0" width="106.2" height="89.93" fill="#ff725c"/><rect x="241.9" y="89.93" width="106.2" height="73.57" fill="#efb118"/><rect x="241.9" y="163.5" width="106.2" height="163.5" fill="#4269d0"/><rect x="359.9" y="0" width="106.2" height="49.05" fill="#ff725c"/><rect x="359.9" y="49.05" width="106.2" height="163.5" fill="#4269d0"/><rect x="359.9" y="212.55" width="106.2" height="114.45" fill="#efb118"/></g></g></g><g class="gg-axis gg-axis-x" transform="translate(56,360)"><g class="gg-tick" transform="translate(59,0)"><text y="3" dy="0.71em" text-anchor="middle" fill="var(--gg-axisText, #4d4d4d)" font-size="11.5" font-weight="300">18–24</text></g><g class="gg-tick" transform="translate(177,0)"><text y="3" dy="0.71em" text-anchor="middle" fill="var(--gg-axisText, #4d4d4d)" font-size="11.5" font-weight="300">25–34</text></g><g class="gg-tick" transform="translate(295,0)"><text y="3" dy="0.71em" text-anchor="middle" fill="var(--gg-axisText, #4d4d4d)" font-size="11.5" font-weight="300">35–49</text></g><g class="gg-tick" transform="translate(413,0)"><text y="3" dy="0.71em" text-anchor="middle" fill="var(--gg-axisText, #4d4d4d)" font-size="11.5" font-weight="300">50+</text></g></g><g class="gg-axis gg-axis-y" transform="translate(56,33)"><g class="gg-tick" transform="translate(0,327)"><text x="-3" dy="0.32em" text-anchor="end" fill="var(--gg-axisText, #4d4d4d)" font-size="11.5" font-weight="300">0%</text></g><g class="gg-tick" transform="translate(0,294.3)"><text x="-3" dy="0.32em" text-anchor="end" fill="var(--gg-axisText, #4d4d4d)" font-size="11.5" font-weight="300">10%</text></g><g class="gg-tick" transform="translate(0,261.6)"><text x="-3" dy="0.32em" text-anchor="end" fill="var(--gg-axisText, #4d4d4d)" font-size="11.5" font-weight="300">20%</text></g><g class="gg-tick" transform="translate(0,228.9)"><text x="-3" dy="0.32em" text-anchor="end" fill="var(--gg-axisText, #4d4d4d)" font-size="11.5" font-weight="300">30%</text></g><g class="gg-tick" transform="translate(0,196.2)"><text x="-3" dy="0.32em" text-anchor="end" fill="var(--gg-axisText, #4d4d4d)" font-size="11.5" font-weight="300">40%</text></g><g class="gg-tick" transform="translate(0,163.5)"><text x="-3" dy="0.32em" text-anchor="end" fill="var(--gg-axisText, #4d4d4d)" font-size="11.5" font-weight="300">50%</text></g><g class="gg-tick" transform="translate(0,130.8)"><text x="-3" dy="0.32em" text-anchor="end" fill="var(--gg-axisText, #4d4d4d)" font-size="11.5" font-weight="300">60%</text></g><g class="gg-tick" transform="translate(0,98.1)"><text x="-3" dy="0.32em" text-anchor="end" fill="var(--gg-axisText, #4d4d4d)" font-size="11.5" font-weight="300">70%</text></g><g class="gg-tick" transform="translate(0,65.4)"><text x="-3" dy="0.32em" text-anchor="end" fill="var(--gg-axisText, #4d4d4d)" font-size="11.5" font-weight="300">80%</text></g><g class="gg-tick" transform="translate(0,32.7)"><text x="-3" dy="0.32em" text-anchor="end" fill="var(--gg-axisText, #4d4d4d)" font-size="11.5" font-weight="300">90%</text></g><g class="gg-tick" transform="translate(0,0)"><text x="-3" dy="0.32em" text-anchor="end" fill="var(--gg-axisText, #4d4d4d)" font-size="11.5" font-weight="300">100%</text></g></g><text class="gg-axis-title" x="292" y="392" text-anchor="middle" fill="var(--gg-ink, #262626)" font-size="9" font-weight="400">Age group</text><text class="gg-axis-title" transform="translate(12,196.5) rotate(-90)" text-anchor="middle" fill="var(--gg-ink, #262626)" font-size="9" font-weight="400">Share of sessions</text><g class="gg-legend gg-legend-fill" transform="translate(550,33)"><text class="gg-legend-title" x="4" y="11" font-weight="bold" fill="var(--gg-ink, #262626)">Genre</text><rect class="gg-legend-swatch" x="4" y="22" width="10" height="10" fill="#ff725c"/><text class="gg-legend-label" x="20" y="27" dy="0.32em" fill="var(--gg-ink, #262626)">comedy</text><rect class="gg-legend-swatch" x="4" y="40" width="10" height="10" fill="#efb118"/><text class="gg-legend-label" x="20" y="45" dy="0.32em" fill="var(--gg-ink, #262626)">documentary</text><rect class="gg-legend-swatch" x="4" y="58" width="10" height="10" fill="#4269d0"/><text class="gg-legend-label" x="20" y="63" dy="0.32em" fill="var(--gg-ink, #262626)">drama</text></g></svg>