<svg xmlns="http://www.w3.org/2000/svg" width="640" height="400" viewBox="0 0 640 400" role="img" aria-label="Weekly sign-ups around launch" class="gg-plot" font-family="&quot;Roboto Condensed&quot;, &quot;Arial Narrow&quot;, Arial, sans-serif" font-size="11.5" font-weight="300" text-rendering="optimizeLegibility" shape-rendering="geometricPrecision"><title>Weekly sign-ups around launch</title><style>
@font-face{font-family:"Roboto Condensed";src:url("../../../packages/svelte/src/lib/fonts/RobotoCondensed-Light.ttf") format("truetype");font-weight:300;font-style:normal}
@font-face{font-family:"Roboto Condensed";src:url("../../../packages/svelte/src/lib/fonts/RobotoCondensed-Regular.ttf") format("truetype");font-weight:400;font-style:normal}
@font-face{font-family:"Roboto Condensed";src:url("../../../packages/svelte/src/lib/fonts/RobotoCondensed-Bold.ttf") format("truetype");font-weight:700;font-style:normal}
</style><rect class="gg-paper" width="640" height="400" fill="var(--gg-paper, #ffffff)"/><text class="gg-title" x="44" y="18" font-size="18" font-weight="700" fill="var(--gg-ink, #262626)">Weekly sign-ups around launch</text><text class="gg-subtitle" x="44" y="34" font-size="13" font-weight="300" fill="var(--gg-ink, #262626)">Vertical rule: launch week. Horizontal rule: quarter target.</text><defs><clipPath id="gg-clip-0"><rect width="592" height="310"/></clipPath></defs><g class="gg-panel" data-panel="0" transform="translate(44,50)"><rect class="gg-panel-background" width="592" height="310" fill="var(--gg-panel, #ffffff)"/><g class="gg-grid" stroke="var(--gg-grid, #cccccc)" stroke-width="0.4" vector-effect="non-scaling-stroke"><line x1="0" y1="0" x2="0" y2="310"/><line x1="98.67" y1="0" x2="98.67" y2="310"/><line x1="197.33" y1="0" x2="197.33" y2="310"/><line x1="296" y1="0" x2="296" y2="310"/><line x1="394.67" y1="0" x2="394.67" y2="310"/><line x1="493.33" y1="0" x2="493.33" y2="310"/><line x1="592" y1="0" x2="592" y2="310"/><line x1="0" y1="310" x2="592" y2="310"/><line x1="0" y1="265.71" x2="592" y2="265.71"/><line x1="0" y1="221.43" x2="592" y2="221.43"/><line x1="0" y1="177.14" x2="592" y2="177.14"/><line x1="0" y1="132.86" x2="592" y2="132.86"/><line x1="0" y1="88.57" x2="592" y2="88.57"/><line x1="0" y1="44.29" x2="592" y2="44.29"/><line x1="0" y1="0" x2="592" y2="0"/></g><g class="gg-marks" clip-path="url(#gg-clip-0)"><g class="gg-batch gg-segments" data-layer="0"><line x1="296" y1="0" x2="296" y2="310" stroke="#d4615c" stroke-width="1"/></g><g class="gg-batch gg-segments" data-layer="1" opacity="0.6"><line x1="0" y1="88.57" x2="592" y2="88.57" stroke="#888888" stroke-width="1"/></g><g class="gg-batch gg-paths" data-layer="2"><path d="M0 298.93L49.33 283.43L98.67 292.29L148 270.14L197.33 263.5L246.67 272.36L296 186L345.33 112.93L394.67 81.93L444 93L493.33 57.57L542.67 31L592 11.07" fill="none" stroke="var(--gg-ink, #262626)" stroke-width="2" stroke-linejoin="round" stroke-linecap="round"/></g><g class="gg-batch gg-points" data-layer="3"><circle cx="0" cy="298.93" r="2.5" fill="var(--gg-ink, #262626)"/><circle cx="49.33" cy="283.43" r="2.5" fill="var(--gg-ink, #262626)"/><circle cx="98.67" cy="292.29" r="2.5" fill="var(--gg-ink, #262626)"/><circle cx="148" cy="270.14" r="2.5" fill="var(--gg-ink, #262626)"/><circle cx="197.33" cy="263.5" r="2.5" fill="var(--gg-ink, #262626)"/><circle cx="246.67" cy="272.36" r="2.5" fill="var(--gg-ink, #262626)"/><circle cx="296" cy="186" r="2.5" fill="var(--gg-ink, #262626)"/><circle cx="345.33" cy="112.93" r="2.5" fill="var(--gg-ink, #262626)"/><circle cx="394.67" cy="81.93" r="2.5" fill="var(--gg-ink, #262626)"/><circle cx="444" cy="93" r="2.5" fill="var(--gg-ink, #262626)"/><circle cx="493.33" cy="57.57" r="2.5" fill="var(--gg-ink, #262626)"/><circle cx="542.67" cy="31" r="2.5" fill="var(--gg-ink, #262626)"/><circle cx="592" cy="11.07" r="2.5" fill="var(--gg-ink, #262626)"/></g></g></g><g class="gg-axis gg-axis-x" transform="translate(44,360)"><g class="gg-tick" transform="translate(0,0)"><text y="3" dy="0.71em" text-anchor="middle" fill="var(--gg-axisText, #4d4d4d)" font-size="11.5" font-weight="300">-6</text></g><g class="gg-tick" transform="translate(98.67,0)"><text y="3" dy="0.71em" text-anchor="middle" fill="var(--gg-axisText, #4d4d4d)" font-size="11.5" font-weight="300">-4</text></g><g class="gg-tick" transform="translate(197.33,0)"><text y="3" dy="0.71em" text-anchor="middle" fill="var(--gg-axisText, #4d4d4d)" font-size="11.5" font-weight="300">-2</text></g><g class="gg-tick" transform="translate(296,0)"><text y="3" dy="0.71em" text-anchor="middle" fill="var(--gg-axisText, #4d4d4d)" font-size="11.5" font-weight="300">0</text></g><g class="gg-tick" transform="translate(394.67,0)"><text y="3" dy="0.71em" text-anchor="middle" fill="var(--gg-axisText, #4d4d4d)" font-size="11.5" font-weight="300">2</text></g><g class="gg-tick" transform="translate(493.33,0)"><text y="3" dy="0.71em" text-anchor="middle" fill="var(--gg-axisText, #4d4d4d)" font-size="11.5" font-weight="300">4</text></g><g class="gg-tick" transform="translate(592,0)"><text y="3" dy="0.71em" text-anchor="middle" fill="var(--gg-axisText, #4d4d4d)" font-size="11.5" font-weight="300">6</text></g></g><g class="gg-axis gg-axis-y" transform="translate(44,50)"><g class="gg-tick" transform="translate(0,310)"><text x="-3" dy="0.32em" text-anchor="end" fill="var(--gg-axisText, #4d4d4d)" font-size="11.5" font-weight="300">100</text></g><g class="gg-tick" transform="translate(0,265.71)"><text x="-3" dy="0.32em" text-anchor="end" fill="var(--gg-axisText, #4d4d4d)" font-size="11.5" font-weight="300">120</text></g><g class="gg-tick" transform="translate(0,221.43)"><text x="-3" dy="0.32em" text-anchor="end" fill="var(--gg-axisText, #4d4d4d)" font-size="11.5" font-weight="300">140</text></g><g class="gg-tick" transform="translate(0,177.14)"><text x="-3" dy="0.32em" text-anchor="end" fill="var(--gg-axisText, #4d4d4d)" font-size="11.5" font-weight="300">160</text></g><g class="gg-tick" transform="translate(0,132.86)"><text x="-3" dy="0.32em" text-anchor="end" fill="var(--gg-axisText, #4d4d4d)" font-size="11.5" font-weight="300">180</text></g><g class="gg-tick" transform="translate(0,88.57)"><text x="-3" dy="0.32em" text-anchor="end" fill="var(--gg-axisText, #4d4d4d)" font-size="11.5" font-weight="300">200</text></g><g class="gg-tick" transform="translate(0,44.29)"><text x="-3" dy="0.32em" text-anchor="end" fill="var(--gg-axisText, #4d4d4d)" font-size="11.5" font-weight="300">220</text></g><g class="gg-tick" transform="translate(0,0)"><text x="-3" dy="0.32em" text-anchor="end" fill="var(--gg-axisText, #4d4d4d)" font-size="11.5" font-weight="300">240</text></g></g><text class="gg-axis-title" x="340" y="392" text-anchor="middle" fill="var(--gg-ink, #262626)" font-size="9" font-weight="400">Weeks since launch</text><text class="gg-axis-title" transform="translate(12,205) rotate(-90)" text-anchor="middle" fill="var(--gg-ink, #262626)" font-size="9" font-weight="400">Sign-ups</text></svg>