<svg xmlns="http://www.w3.org/2000/svg" width="640" height="400" viewBox="0 0 640 400" role="img" aria-label="Penguin flippers vs body mass" class="gg-plot" font-family="&quot;Roboto Condensed&quot;, &quot;Arial Narrow&quot;, Arial, sans-serif" font-size="11.5" font-weight="300" text-rendering="optimizeLegibility" shape-rendering="geometricPrecision"><title>Penguin flippers vs body mass</title><style>
@font-face{font-family:"Roboto Condensed";src:url("../../../packages/svelte/src/lib/fonts/RobotoCondensed-Light.ttf") format("truetype");font-weight:300;font-style:normal}
@font-face{font-family:"Roboto Condensed";src:url("../../../packages/svelte/src/lib/fonts/RobotoCondensed-Regular.ttf") format("truetype");font-weight:400;font-style:normal}
@font-face{font-family:"Roboto Condensed";src:url("../../../packages/svelte/src/lib/fonts/RobotoCondensed-Bold.ttf") format("truetype");font-weight:700;font-style:normal}
</style><rect class="gg-paper" width="640" height="400" fill="var(--gg-paper, #ffffff)"/><text class="gg-title" x="52" y="18" font-size="18" font-weight="700" fill="var(--gg-ink, #262626)">Penguin flippers vs body mass</text><defs><clipPath id="gg-clip-0"><rect width="492" height="327"/></clipPath></defs><g class="gg-panel" data-panel="0" transform="translate(52,33)"><rect class="gg-panel-background" width="492" height="327" fill="var(--gg-panel, #ffffff)"/><g class="gg-grid" stroke="var(--gg-grid, #cccccc)" stroke-width="0.4" vector-effect="non-scaling-stroke"><line x1="44.73" y1="0" x2="44.73" y2="327"/><line x1="134.18" y1="0" x2="134.18" y2="327"/><line x1="223.64" y1="0" x2="223.64" y2="327"/><line x1="313.09" y1="0" x2="313.09" y2="327"/><line x1="402.55" y1="0" x2="402.55" y2="327"/><line x1="492" y1="0" x2="492" y2="327"/><line x1="0" y1="327" x2="492" y2="327"/><line x1="0" y1="280.29" x2="492" y2="280.29"/><line x1="0" y1="233.57" x2="492" y2="233.57"/><line x1="0" y1="186.86" x2="492" y2="186.86"/><line x1="0" y1="140.14" x2="492" y2="140.14"/><line x1="0" y1="93.43" x2="492" y2="93.43"/><line x1="0" y1="46.71" x2="492" y2="46.71"/><line x1="0" y1="0" x2="492" y2="0"/></g><g class="gg-marks" clip-path="url(#gg-clip-0)"><g class="gg-batch gg-points" data-layer="0" opacity="0.85"><circle cx="53.67" cy="210.21" r="3.5" fill="#4269d0"/><circle cx="98.4" cy="205.54" r="3.5" fill="#4269d0"/><circle cx="178.91" cy="256.93" r="3.5" fill="#4269d0"/><circle cx="161.02" cy="238.24" r="3.5" fill="#4269d0"/><circle cx="134.18" cy="219.56" r="3.5" fill="#4269d0"/><circle cx="143.13" cy="205.54" r="3.5" fill="#4269d0"/><circle cx="205.75" cy="149.49" r="3.5" fill="#4269d0"/><circle cx="89.45" cy="214.89" r="3.5" fill="#4269d0"/><circle cx="178.91" cy="163.5" r="3.5" fill="#4269d0"/><circle cx="80.51" cy="249.92" r="3.5" fill="#4269d0"/><circle cx="152.07" cy="233.57" r="3.5" fill="#efb118"/><circle cx="187.85" cy="196.2" r="3.5" fill="#efb118"/><circle cx="161.02" cy="219.56" r="3.5" fill="#efb118"/><circle cx="116.29" cy="231.24" r="3.5" fill="#efb118"/><circle cx="196.8" cy="212.55" r="3.5" fill="#efb118"/><circle cx="205.75" cy="191.53" r="3.5" fill="#efb118"/><circle cx="26.84" cy="308.31" r="3.5" fill="#efb118"/><circle cx="241.53" cy="172.84" r="3.5" fill="#efb118"/><circle cx="268.36" cy="158.83" r="3.5" fill="#efb118"/><circle cx="223.64" cy="196.2" r="3.5" fill="#efb118"/><circle cx="322.04" cy="140.14" r="3.5" fill="#ff725c"/><circle cx="492" cy="28.03" r="3.5" fill="#ff725c"/><circle cx="313.09" cy="144.81" r="3.5" fill="#ff725c"/><circle cx="384.65" cy="28.03" r="3.5" fill="#ff725c"/><circle cx="357.82" cy="56.06" r="3.5" fill="#ff725c"/><circle cx="393.6" cy="74.74" r="3.5" fill="#ff725c"/><circle cx="304.15" cy="112.11" r="3.5" fill="#ff725c"/><circle cx="357.82" cy="79.41" r="3.5" fill="#ff725c"/><circle cx="339.93" cy="126.13" r="3.5" fill="#ff725c"/><circle cx="375.71" cy="70.07" r="3.5" fill="#ff725c"/></g></g></g><g class="gg-axis gg-axis-x" transform="translate(52,360)"><g class="gg-tick" transform="translate(44.73,0)"><text y="3" dy="0.71em" text-anchor="middle" fill="var(--gg-axisText, #4d4d4d)" font-size="11.5" font-weight="300">180</text></g><g class="gg-tick" transform="translate(134.18,0)"><text y="3" dy="0.71em" text-anchor="middle" fill="var(--gg-axisText, #4d4d4d)" font-size="11.5" font-weight="300">190</text></g><g class="gg-tick" transform="translate(223.64,0)"><text y="3" dy="0.71em" text-anchor="middle" fill="var(--gg-axisText, #4d4d4d)" font-size="11.5" font-weight="300">200</text></g><g class="gg-tick" transform="translate(313.09,0)"><text y="3" dy="0.71em" text-anchor="middle" fill="var(--gg-axisText, #4d4d4d)" font-size="11.5" font-weight="300">210</text></g><g class="gg-tick" transform="translate(402.55,0)"><text y="3" dy="0.71em" text-anchor="middle" fill="var(--gg-axisText, #4d4d4d)" font-size="11.5" font-weight="300">220</text></g><g class="gg-tick" transform="translate(492,0)"><text y="3" dy="0.71em" text-anchor="middle" fill="var(--gg-axisText, #4d4d4d)" font-size="11.5" font-weight="300">230</text></g></g><g class="gg-axis gg-axis-y" transform="translate(52,33)"><g class="gg-tick" transform="translate(0,327)"><text x="-3" dy="0.32em" text-anchor="end" fill="var(--gg-axisText, #4d4d4d)" font-size="11.5" font-weight="300">2,500</text></g><g class="gg-tick" transform="translate(0,280.29)"><text x="-3" dy="0.32em" text-anchor="end" fill="var(--gg-axisText, #4d4d4d)" font-size="11.5" font-weight="300">3,000</text></g><g class="gg-tick" transform="translate(0,233.57)"><text x="-3" dy="0.32em" text-anchor="end" fill="var(--gg-axisText, #4d4d4d)" font-size="11.5" font-weight="300">3,500</text></g><g class="gg-tick" transform="translate(0,186.86)"><text x="-3" dy="0.32em" text-anchor="end" fill="var(--gg-axisText, #4d4d4d)" font-size="11.5" font-weight="300">4,000</text></g><g class="gg-tick" transform="translate(0,140.14)"><text x="-3" dy="0.32em" text-anchor="end" fill="var(--gg-axisText, #4d4d4d)" font-size="11.5" font-weight="300">4,500</text></g><g class="gg-tick" transform="translate(0,93.43)"><text x="-3" dy="0.32em" text-anchor="end" fill="var(--gg-axisText, #4d4d4d)" font-size="11.5" font-weight="300">5,000</text></g><g class="gg-tick" transform="translate(0,46.71)"><text x="-3" dy="0.32em" text-anchor="end" fill="var(--gg-axisText, #4d4d4d)" font-size="11.5" font-weight="300">5,500</text></g><g class="gg-tick" transform="translate(0,0)"><text x="-3" dy="0.32em" text-anchor="end" fill="var(--gg-axisText, #4d4d4d)" font-size="11.5" font-weight="300">6,000</text></g></g><text class="gg-axis-title" x="298" y="392" text-anchor="middle" fill="var(--gg-ink, #262626)" font-size="9" font-weight="400">Flipper length (mm)</text><text class="gg-axis-title" transform="translate(12,196.5) rotate(-90)" text-anchor="middle" fill="var(--gg-ink, #262626)" font-size="9" font-weight="400">Body mass (g)</text><g class="gg-legend gg-legend-color" transform="translate(566,33)"><text class="gg-legend-title" x="4" y="11" font-weight="bold" fill="var(--gg-ink, #262626)">Species</text><rect class="gg-legend-swatch" x="4" y="22" width="10" height="10" fill="#4269d0"/><text class="gg-legend-label" x="20" y="27" dy="0.32em" fill="var(--gg-ink, #262626)">Adelie</text><rect class="gg-legend-swatch" x="4" y="40" width="10" height="10" fill="#efb118"/><text class="gg-legend-label" x="20" y="45" dy="0.32em" fill="var(--gg-ink, #262626)">Chinstrap</text><rect class="gg-legend-swatch" x="4" y="58" width="10" height="10" fill="#ff725c"/><text class="gg-legend-label" x="20" y="63" dy="0.32em" fill="var(--gg-ink, #262626)">Gentoo</text></g></svg>