<svg xmlns="http://www.w3.org/2000/svg" width="640" height="400" viewBox="0 0 640 400" role="img" aria-label="Dose response with a loess trend" class="gg-plot" font-family="&quot;Roboto Condensed&quot;, &quot;Arial Narrow&quot;, Arial, sans-serif" font-size="11.5" font-weight="300" text-rendering="optimizeLegibility" shape-rendering="geometricPrecision"><title>Dose response with a loess trend</title><style>
@font-face{font-family:"Roboto Condensed";src:url("../../../packages/svelte/src/lib/fonts/RobotoCondensed-Light.ttf") format("truetype");font-weight:300;font-style:normal}
@font-face{font-family:"Roboto Condensed";src:url("../../../packages/svelte/src/lib/fonts/RobotoCondensed-Regular.ttf") format("truetype");font-weight:400;font-style:normal}
@font-face{font-family:"Roboto Condensed";src:url("../../../packages/svelte/src/lib/fonts/RobotoCondensed-Bold.ttf") format("truetype");font-weight:700;font-style:normal}
</style><rect class="gg-paper" width="640" height="400" fill="var(--gg-paper, #ffffff)"/><text class="gg-title" x="36" y="18" font-size="18" font-weight="700" fill="var(--gg-ink, #262626)">Dose response with a loess trend</text><defs><clipPath id="gg-clip-0"><rect width="592" height="327"/></clipPath></defs><g class="gg-panel" data-panel="0" transform="translate(36,33)"><rect class="gg-panel-background" width="592" height="327" fill="var(--gg-panel, #ffffff)"/><g class="gg-grid" stroke="var(--gg-grid, #cccccc)" stroke-width="0.4" vector-effect="non-scaling-stroke"><line x1="0" y1="0" x2="0" y2="327"/><line x1="118.4" y1="0" x2="118.4" y2="327"/><line x1="236.8" y1="0" x2="236.8" y2="327"/><line x1="355.2" y1="0" x2="355.2" y2="327"/><line x1="473.6" y1="0" x2="473.6" y2="327"/><line x1="592" y1="0" x2="592" y2="327"/><line x1="0" y1="327" x2="592" y2="327"/><line x1="0" y1="272.5" x2="592" y2="272.5"/><line x1="0" y1="218" x2="592" y2="218"/><line x1="0" y1="163.5" x2="592" y2="163.5"/><line x1="0" y1="109" x2="592" y2="109"/><line x1="0" y1="54.5" x2="592" y2="54.5"/><line x1="0" y1="0" x2="592" y2="0"/></g><g class="gg-marks" clip-path="url(#gg-clip-0)"><g class="gg-batch gg-points" data-layer="0" opacity="0.55"><circle cx="316.72" cy="27.8" r="2.5" fill="var(--gg-ink, #262626)"/><circle cx="438.67" cy="74.67" r="2.5" fill="var(--gg-ink, #262626)"/><circle cx="317.9" cy="61.04" r="2.5" fill="var(--gg-ink, #262626)"/><circle cx="53.87" cy="217.46" r="2.5" fill="var(--gg-ink, #262626)"/><circle cx="73.41" cy="238.71" r="2.5" fill="var(--gg-ink, #262626)"/><circle cx="388.35" cy="40.88" r="2.5" fill="var(--gg-ink, #262626)"/><circle cx="545.82" cy="129.71" r="2.5" fill="var(--gg-ink, #262626)"/><circle cx="245.68" cy="99.19" r="2.5" fill="var(--gg-ink, #262626)"/><circle cx="313.17" cy="80.66" r="2.5" fill="var(--gg-ink, #262626)"/><circle cx="25.46" cy="232.17" r="2.5" fill="var(--gg-ink, #262626)"/><circle cx="74.59" cy="202.2" r="2.5" fill="var(--gg-ink, #262626)"/><circle cx="489.58" cy="110.64" r="2.5" fill="var(--gg-ink, #262626)"/><circle cx="371.18" cy="64.31" r="2.5" fill="var(--gg-ink, #262626)"/><circle cx="23.68" cy="230.54" r="2.5" fill="var(--gg-ink, #262626)"/><circle cx="210.16" cy="96.46" r="2.5" fill="var(--gg-ink, #262626)"/><circle cx="338.62" cy="50.69" r="2.5" fill="var(--gg-ink, #262626)"/><circle cx="326.78" cy="55.59" r="2.5" fill="var(--gg-ink, #262626)"/><circle cx="369.41" cy="76.85" r="2.5" fill="var(--gg-ink, #262626)"/><circle cx="467.68" cy="64.31" r="2.5" fill="var(--gg-ink, #262626)"/><circle cx="93.54" cy="165.68" r="2.5" fill="var(--gg-ink, #262626)"/><circle cx="14.8" cy="247.98" r="2.5" fill="var(--gg-ink, #262626)"/><circle cx="181.74" cy="95.38" r="2.5" fill="var(--gg-ink, #262626)"/><circle cx="129.65" cy="172.22" r="2.5" fill="var(--gg-ink, #262626)"/><circle cx="549.97" cy="182.03" r="2.5" fill="var(--gg-ink, #262626)"/><circle cx="509.71" cy="137.34" r="2.5" fill="var(--gg-ink, #262626)"/><circle cx="547.6" cy="141.7" r="2.5" fill="var(--gg-ink, #262626)"/><circle cx="184.7" cy="85.02" r="2.5" fill="var(--gg-ink, #262626)"/><circle cx="422.69" cy="28.89" r="2.5" fill="var(--gg-ink, #262626)"/><circle cx="488.99" cy="101.92" r="2.5" fill="var(--gg-ink, #262626)"/><circle cx="271.14" cy="50.14" r="2.5" fill="var(--gg-ink, #262626)"/><circle cx="407.3" cy="89.38" r="2.5" fill="var(--gg-ink, #262626)"/><circle cx="65.12" cy="211.46" r="2.5" fill="var(--gg-ink, #262626)"/><circle cx="397.82" cy="78.48" r="2.5" fill="var(--gg-ink, #262626)"/><circle cx="312.58" cy="82.29" r="2.5" fill="var(--gg-ink, #262626)"/><circle cx="556.48" cy="132.43" r="2.5" fill="var(--gg-ink, #262626)"/><circle cx="404.34" cy="39.24" r="2.5" fill="var(--gg-ink, #262626)"/><circle cx="590.82" cy="211.46" r="2.5" fill="var(--gg-ink, #262626)"/><circle cx="259.3" cy="68.67" r="2.5" fill="var(--gg-ink, #262626)"/><circle cx="220.82" cy="84.47" r="2.5" fill="var(--gg-ink, #262626)"/><circle cx="539.31" cy="130.26" r="2.5" fill="var(--gg-ink, #262626)"/><circle cx="6.51" cy="264.33" r="2.5" fill="var(--gg-ink, #262626)"/><circle cx="0.59" cy="322.64" r="2.5" fill="var(--gg-ink, #262626)"/><circle cx="77.55" cy="236.53" r="2.5" fill="var(--gg-ink, #262626)"/><circle cx="89.39" cy="167.86" r="2.5" fill="var(--gg-ink, #262626)"/><circle cx="349.87" cy="73.57" r="2.5" fill="var(--gg-ink, #262626)"/><circle cx="391.31" cy="75.75" r="2.5" fill="var(--gg-ink, #262626)"/><circle cx="348.1" cy="24.52" r="2.5" fill="var(--gg-ink, #262626)"/><circle cx="518.59" cy="85.57" r="2.5" fill="var(--gg-ink, #262626)"/><circle cx="407.89" cy="95.92" r="2.5" fill="var(--gg-ink, #262626)"/><circle cx="298.37" cy="50.69" r="2.5" fill="var(--gg-ink, #262626)"/><circle cx="533.39" cy="109.54" r="2.5" fill="var(--gg-ink, #262626)"/><circle cx="227.33" cy="88.29" r="2.5" fill="var(--gg-ink, #262626)"/><circle cx="404.93" cy="39.78" r="2.5" fill="var(--gg-ink, #262626)"/><circle cx="204.24" cy="92.11" r="2.5" fill="var(--gg-ink, #262626)"/><circle cx="106.56" cy="157.51" r="2.5" fill="var(--gg-ink, #262626)"/><circle cx="590.82" cy="190.21" r="2.5" fill="var(--gg-ink, #262626)"/><circle cx="365.26" cy="49.6" r="2.5" fill="var(--gg-ink, #262626)"/><circle cx="467.68" cy="67.04" r="2.5" fill="var(--gg-ink, #262626)"/><circle cx="420.91" cy="47.96" r="2.5" fill="var(--gg-ink, #262626)"/><circle cx="243.9" cy="51.23" r="2.5" fill="var(--gg-ink, #262626)"/><circle cx="558.26" cy="166.23" r="2.5" fill="var(--gg-ink, #262626)"/><circle cx="467.09" cy="49.05" r="2.5" fill="var(--gg-ink, #262626)"/><circle cx="100.05" cy="207.1" r="2.5" fill="var(--gg-ink, #262626)"/><circle cx="326.78" cy="29.43" r="2.5" fill="var(--gg-ink, #262626)"/><circle cx="272.91" cy="23.43" r="2.5" fill="var(--gg-ink, #262626)"/><circle cx="63.94" cy="205.46" r="2.5" fill="var(--gg-ink, #262626)"/><circle cx="426.24" cy="34.33" r="2.5" fill="var(--gg-ink, #262626)"/><circle cx="23.68" cy="261.05" r="2.5" fill="var(--gg-ink, #262626)"/><circle cx="203.06" cy="125.35" r="2.5" fill="var(--gg-ink, #262626)"/><circle cx="268.77" cy="94.83" r="2.5" fill="var(--gg-ink, #262626)"/><circle cx="526.29" cy="111.72" r="2.5" fill="var(--gg-ink, #262626)"/><circle cx="433.34" cy="35.42" r="2.5" fill="var(--gg-ink, #262626)"/><circle cx="455.25" cy="68.67" r="2.5" fill="var(--gg-ink, #262626)"/><circle cx="368.82" cy="77.93" r="2.5" fill="var(--gg-ink, #262626)"/><circle cx="550.56" cy="149.33" r="2.5" fill="var(--gg-ink, #262626)"/><circle cx="448.74" cy="48.51" r="2.5" fill="var(--gg-ink, #262626)"/><circle cx="307.84" cy="25.07" r="2.5" fill="var(--gg-ink, #262626)"/><circle cx="418.54" cy="75.75" r="2.5" fill="var(--gg-ink, #262626)"/><circle cx="579.57" cy="190.21" r="2.5" fill="var(--gg-ink, #262626)"/><circle cx="137.94" cy="129.16" r="2.5" fill="var(--gg-ink, #262626)"/></g><g class="gg-batch gg-areas" data-layer="1" opacity="0.3"><path d="M0.59 267.6L8.06 259.69L15.53 251.83L23.01 244.02L30.48 236.24L37.95 228.49L45.42 220.78L52.89 213.11L60.36 205.47L67.83 197.88L75.3 190.35L82.78 182.9L90.25 175.54L97.72 168.29L105.19 161.18L112.66 154.22L120.13 147.43L127.6 140.82L135.07 134.39L142.54 128.16L150.02 122.14L157.49 116.3L164.96 110.67L172.43 105.22L179.9 99.94L187.37 94.82L194.84 89.83L202.31 84.94L209.79 80.14L217.26 75.45L224.73 71.07L232.2 67.63L239.67 64.58L247.14 61.59L254.61 59.48L262.08 57.09L269.55 54.78L277.03 53.22L284.5 51.76L291.97 50.39L299.44 49.06L306.91 47.86L314.38 46.73L321.85 45.77L329.32 44.97L336.8 44.31L344.27 43.86L351.74 43.54L359.21 43.21L366.68 43.41L374.15 43.85L381.62 44.49L389.09 45.1L396.57 46.09L404.04 47.1L411.51 48.47L418.98 50.22L426.45 52.33L433.92 54.8L441.39 57.63L448.86 60.81L456.33 64.36L463.81 68.26L471.28 72.51L478.75 77.1L486.22 82.03L493.69 87.29L501.16 92.86L508.63 98.71L516.1 104.83L523.58 111.21L531.05 117.81L538.52 124.62L545.99 131.65L553.46 138.88L560.93 146.33L568.4 153.99L575.87 161.88L583.34 170L590.82 178.35L590.82 213.66L583.34 202.09L575.87 191.04L568.4 180.52L560.93 170.53L553.46 161.07L545.99 152.15L538.52 143.76L531.05 135.89L523.58 128.52L516.1 121.65L508.63 115.25L501.16 109.29L493.69 103.74L486.22 98.59L478.75 93.8L471.28 89.37L463.81 85.27L456.33 81.5L448.86 78.05L441.39 74.93L433.92 72.13L426.45 69.68L418.98 67.58L411.51 65.87L404.04 64.54L396.57 63.56L389.09 62.24L381.62 61.64L374.15 60.87L366.68 60.28L359.21 60.03L351.74 60.93L344.27 61.61L336.8 62.14L329.32 62.92L321.85 63.7L314.38 64.67L306.91 65.87L299.44 67.41L291.97 68.83L284.5 70.4L277.03 72.11L269.55 73.99L262.08 76.32L254.61 78.89L247.14 81.54L239.67 84.74L232.2 88.19L224.73 92.07L217.26 96.37L209.79 100.9L202.31 105.58L194.84 110.39L187.37 115.32L179.9 120.37L172.43 125.56L164.96 130.89L157.49 136.36L150.02 141.99L142.54 147.77L135.07 153.73L127.6 159.86L120.13 166.17L112.66 172.68L105.19 179.4L97.72 186.34L90.25 193.53L82.78 200.97L75.3 208.68L67.83 216.68L60.36 224.99L52.89 233.6L45.42 242.53L37.95 251.78L30.48 261.34L23.01 271.2L15.53 281.37L8.06 291.83L0.59 302.58Z" fill="var(--gg-accent, #4385be)" stroke="none"/></g><g class="gg-batch gg-paths" data-layer="1"><path d="M0.59 285.09L8.06 275.76L15.53 266.6L23.01 257.61L30.48 248.79L37.95 240.14L45.42 231.66L52.89 223.36L60.36 215.23L67.83 207.28L75.3 199.51L82.78 191.93L90.25 184.53L97.72 177.32L105.19 170.29L112.66 163.45L120.13 156.8L127.6 150.34L135.07 144.06L142.54 137.97L150.02 132.06L157.49 126.33L164.96 120.78L172.43 115.39L179.9 110.16L187.37 105.07L194.84 100.11L202.31 95.26L209.79 90.52L217.26 85.91L224.73 81.57L232.2 77.91L239.67 74.66L247.14 71.57L254.61 69.18L262.08 66.71L269.55 64.39L277.03 62.67L284.5 61.08L291.97 59.61L299.44 58.23L306.91 56.87L314.38 55.7L321.85 54.73L329.32 53.94L336.8 53.23L344.27 52.74L351.74 52.23L359.21 51.62L366.68 51.84L374.15 52.36L381.62 53.07L389.09 53.67L396.57 54.83L404.04 55.82L411.51 57.17L418.98 58.9L426.45 61L433.92 63.46L441.39 66.28L448.86 69.43L456.33 72.93L463.81 76.76L471.28 80.94L478.75 85.45L486.22 90.31L493.69 95.51L501.16 101.07L508.63 106.98L516.1 113.24L523.58 119.87L531.05 126.85L538.52 134.19L545.99 141.9L553.46 149.98L560.93 158.43L568.4 167.25L575.87 176.46L583.34 186.04L590.82 196.01" fill="none" stroke="var(--gg-ink, #262626)" stroke-width="1" stroke-linejoin="round" stroke-linecap="round"/></g></g></g><g class="gg-axis gg-axis-x" transform="translate(36,360)"><g class="gg-tick" transform="translate(0,0)"><text y="3" dy="0.71em" text-anchor="middle" fill="var(--gg-axisText, #4d4d4d)" font-size="11.5" font-weight="300">0</text></g><g class="gg-tick" transform="translate(118.4,0)"><text y="3" dy="0.71em" text-anchor="middle" fill="var(--gg-axisText, #4d4d4d)" font-size="11.5" font-weight="300">20</text></g><g class="gg-tick" transform="translate(236.8,0)"><text y="3" dy="0.71em" text-anchor="middle" fill="var(--gg-axisText, #4d4d4d)" font-size="11.5" font-weight="300">40</text></g><g class="gg-tick" transform="translate(355.2,0)"><text y="3" dy="0.71em" text-anchor="middle" fill="var(--gg-axisText, #4d4d4d)" font-size="11.5" font-weight="300">60</text></g><g class="gg-tick" transform="translate(473.6,0)"><text y="3" dy="0.71em" text-anchor="middle" fill="var(--gg-axisText, #4d4d4d)" font-size="11.5" font-weight="300">80</text></g><g class="gg-tick" transform="translate(592,0)"><text y="3" dy="0.71em" text-anchor="middle" fill="var(--gg-axisText, #4d4d4d)" font-size="11.5" font-weight="300">100</text></g></g><g class="gg-axis gg-axis-y" transform="translate(36,33)"><g class="gg-tick" transform="translate(0,327)"><text x="-3" dy="0.32em" text-anchor="end" fill="var(--gg-axisText, #4d4d4d)" font-size="11.5" font-weight="300">10</text></g><g class="gg-tick" transform="translate(0,272.5)"><text x="-3" dy="0.32em" text-anchor="end" fill="var(--gg-axisText, #4d4d4d)" font-size="11.5" font-weight="300">20</text></g><g class="gg-tick" transform="translate(0,218)"><text x="-3" dy="0.32em" text-anchor="end" fill="var(--gg-axisText, #4d4d4d)" font-size="11.5" font-weight="300">30</text></g><g class="gg-tick" transform="translate(0,163.5)"><text x="-3" dy="0.32em" text-anchor="end" fill="var(--gg-axisText, #4d4d4d)" font-size="11.5" font-weight="300">40</text></g><g class="gg-tick" transform="translate(0,109)"><text x="-3" dy="0.32em" text-anchor="end" fill="var(--gg-axisText, #4d4d4d)" font-size="11.5" font-weight="300">50</text></g><g class="gg-tick" transform="translate(0,54.5)"><text x="-3" dy="0.32em" text-anchor="end" fill="var(--gg-axisText, #4d4d4d)" font-size="11.5" font-weight="300">60</text></g><g class="gg-tick" transform="translate(0,0)"><text x="-3" dy="0.32em" text-anchor="end" fill="var(--gg-axisText, #4d4d4d)" font-size="11.5" font-weight="300">70</text></g></g><text class="gg-axis-title" x="332" y="392" text-anchor="middle" fill="var(--gg-ink, #262626)" font-size="9" font-weight="400">Dose</text><text class="gg-axis-title" transform="translate(12,196.5) rotate(-90)" text-anchor="middle" fill="var(--gg-ink, #262626)" font-size="9" font-weight="400">Effect</text></svg>