<svg xmlns="http://www.w3.org/2000/svg" width="640" height="400" viewBox="0 0 640 400" role="img" aria-label="Support tickets by weekday" class="gg-plot" font-family="&quot;Roboto Condensed&quot;, &quot;Arial Narrow&quot;, Arial, sans-serif" font-size="11.5" font-weight="300" text-rendering="optimizeLegibility" shape-rendering="geometricPrecision"><title>Support tickets by weekday</title><style>
@font-face{font-family:"Roboto Condensed";src:url("../../../packages/svelte/src/lib/fonts/RobotoCondensed-Light.ttf") format("truetype");font-weight:300;font-style:normal}
@font-face{font-family:"Roboto Condensed";src:url("../../../packages/svelte/src/lib/fonts/RobotoCondensed-Regular.ttf") format("truetype");font-weight:400;font-style:normal}
@font-face{font-family:"Roboto Condensed";src:url("../../../packages/svelte/src/lib/fonts/RobotoCondensed-Bold.ttf") format("truetype");font-weight:700;font-style:normal}
</style><rect class="gg-paper" width="640" height="400" fill="var(--gg-paper, #ffffff)"/><text class="gg-title" x="36" y="18" font-size="18" font-weight="700" fill="var(--gg-ink, #262626)">Support tickets by weekday</text><defs><clipPath id="gg-clip-0"><rect width="528" height="327"/></clipPath></defs><g class="gg-panel" data-panel="0" transform="translate(36,33)"><rect class="gg-panel-background" width="528" height="327" fill="var(--gg-panel, #ffffff)"/><g class="gg-grid" stroke="var(--gg-grid, #cccccc)" stroke-width="0.4" vector-effect="non-scaling-stroke"><line x1="52.8" y1="0" x2="52.8" y2="327"/><line x1="158.4" y1="0" x2="158.4" y2="327"/><line x1="264" y1="0" x2="264" y2="327"/><line x1="369.6" y1="0" x2="369.6" y2="327"/><line x1="475.2" y1="0" x2="475.2" y2="327"/><line x1="0" y1="327" x2="528" y2="327"/><line x1="0" y1="280.29" x2="528" y2="280.29"/><line x1="0" y1="233.57" x2="528" y2="233.57"/><line x1="0" y1="186.86" x2="528" y2="186.86"/><line x1="0" y1="140.14" x2="528" y2="140.14"/><line x1="0" y1="93.43" x2="528" y2="93.43"/><line x1="0" y1="46.71" x2="528" y2="46.71"/><line x1="0" y1="0" x2="528" y2="0"/></g><g class="gg-marks" clip-path="url(#gg-clip-0)"><g class="gg-batch gg-rects" data-layer="0"><rect x="5.28" y="65.4" width="95.04" height="158.83" fill="#4269d0"/><rect x="5.28" y="224.23" width="95.04" height="28.03" fill="#efb118"/><rect x="5.28" y="252.26" width="95.04" height="74.74" fill="#ff725c"/><rect x="110.88" y="102.77" width="95.04" height="121.46" fill="#4269d0"/><rect x="110.88" y="224.23" width="95.04" height="93.43" fill="#ff725c"/><rect x="110.88" y="317.66" width="95.04" height="9.34" fill="#efb118"/><rect x="216.48" y="84.09" width="95.04" height="102.77" fill="#4269d0"/><rect x="216.48" y="186.86" width="95.04" height="65.4" fill="#efb118"/><rect x="216.48" y="252.26" width="95.04" height="74.74" fill="#ff725c"/><rect x="322.08" y="46.71" width="95.04" height="130.8" fill="#ff725c"/><rect x="322.08" y="177.51" width="95.04" height="112.11" fill="#4269d0"/><rect x="322.08" y="289.63" width="95.04" height="37.37" fill="#efb118"/><rect x="427.68" y="9.34" width="95.04" height="177.51" fill="#ff725c"/><rect x="427.68" y="186.86" width="95.04" height="84.09" fill="#4269d0"/><rect x="427.68" y="270.94" width="95.04" height="56.06" fill="#efb118"/></g></g></g><g class="gg-axis gg-axis-x" transform="translate(36,360)"><g class="gg-tick" transform="translate(52.8,0)"><text y="3" dy="0.71em" text-anchor="middle" fill="var(--gg-axisText, #4d4d4d)" font-size="11.5" font-weight="300">Mon</text></g><g class="gg-tick" transform="translate(158.4,0)"><text y="3" dy="0.71em" text-anchor="middle" fill="var(--gg-axisText, #4d4d4d)" font-size="11.5" font-weight="300">Tue</text></g><g class="gg-tick" transform="translate(264,0)"><text y="3" dy="0.71em" text-anchor="middle" fill="var(--gg-axisText, #4d4d4d)" font-size="11.5" font-weight="300">Wed</text></g><g class="gg-tick" transform="translate(369.6,0)"><text y="3" dy="0.71em" text-anchor="middle" fill="var(--gg-axisText, #4d4d4d)" font-size="11.5" font-weight="300">Thu</text></g><g class="gg-tick" transform="translate(475.2,0)"><text y="3" dy="0.71em" text-anchor="middle" fill="var(--gg-axisText, #4d4d4d)" font-size="11.5" font-weight="300">Fri</text></g></g><g class="gg-axis gg-axis-y" transform="translate(36,33)"><g class="gg-tick" transform="translate(0,327)"><text x="-3" dy="0.32em" text-anchor="end" fill="var(--gg-axisText, #4d4d4d)" font-size="11.5" font-weight="300">0</text></g><g class="gg-tick" transform="translate(0,280.29)"><text x="-3" dy="0.32em" text-anchor="end" fill="var(--gg-axisText, #4d4d4d)" font-size="11.5" font-weight="300">5</text></g><g class="gg-tick" transform="translate(0,233.57)"><text x="-3" dy="0.32em" text-anchor="end" fill="var(--gg-axisText, #4d4d4d)" font-size="11.5" font-weight="300">10</text></g><g class="gg-tick" transform="translate(0,186.86)"><text x="-3" dy="0.32em" text-anchor="end" fill="var(--gg-axisText, #4d4d4d)" font-size="11.5" font-weight="300">15</text></g><g class="gg-tick" transform="translate(0,140.14)"><text x="-3" dy="0.32em" text-anchor="end" fill="var(--gg-axisText, #4d4d4d)" font-size="11.5" font-weight="300">20</text></g><g class="gg-tick" transform="translate(0,93.43)"><text x="-3" dy="0.32em" text-anchor="end" fill="var(--gg-axisText, #4d4d4d)" font-size="11.5" font-weight="300">25</text></g><g class="gg-tick" transform="translate(0,46.71)"><text x="-3" dy="0.32em" text-anchor="end" fill="var(--gg-axisText, #4d4d4d)" font-size="11.5" font-weight="300">30</text></g><g class="gg-tick" transform="translate(0,0)"><text x="-3" dy="0.32em" text-anchor="end" fill="var(--gg-axisText, #4d4d4d)" font-size="11.5" font-weight="300">35</text></g></g><text class="gg-axis-title" x="300" y="392" text-anchor="middle" fill="var(--gg-ink, #262626)" font-size="9" font-weight="400">Weekday</text><text class="gg-axis-title" transform="translate(12,196.5) rotate(-90)" text-anchor="middle" fill="var(--gg-ink, #262626)" font-size="9" font-weight="400">Tickets</text><g class="gg-legend gg-legend-fill" transform="translate(583,33)"><text class="gg-legend-title" x="4" y="11" font-weight="bold" fill="var(--gg-ink, #262626)">Channel</text><rect class="gg-legend-swatch" x="4" y="22" width="10" height="10" fill="#4269d0"/><text class="gg-legend-label" x="20" y="27" dy="0.32em" fill="var(--gg-ink, #262626)">email</text><rect class="gg-legend-swatch" x="4" y="40" width="10" height="10" fill="#efb118"/><text class="gg-legend-label" x="20" y="45" dy="0.32em" fill="var(--gg-ink, #262626)">phone</text><rect class="gg-legend-swatch" x="4" y="58" width="10" height="10" fill="#ff725c"/><text class="gg-legend-label" x="20" y="63" dy="0.32em" fill="var(--gg-ink, #262626)">chat</text></g></svg>