<svg xmlns="http://www.w3.org/2000/svg" width="640" height="400" viewBox="0 0 640 400" role="img" aria-label="Livability vs median rent" class="gg-plot" font-family="&quot;Roboto Condensed&quot;, &quot;Arial Narrow&quot;, Arial, sans-serif" font-size="11.5" font-weight="300" text-rendering="optimizeLegibility" shape-rendering="geometricPrecision"><title>Livability vs median rent</title><style>
@font-face{font-family:"Roboto Condensed";src:url("../../../packages/svelte/src/lib/fonts/RobotoCondensed-Light.ttf") format("truetype");font-weight:300;font-style:normal}
@font-face{font-family:"Roboto Condensed";src:url("../../../packages/svelte/src/lib/fonts/RobotoCondensed-Regular.ttf") format("truetype");font-weight:400;font-style:normal}
@font-face{font-family:"Roboto Condensed";src:url("../../../packages/svelte/src/lib/fonts/RobotoCondensed-Bold.ttf") format("truetype");font-weight:700;font-style:normal}
</style><rect class="gg-paper" width="640" height="400" fill="var(--gg-paper, #ffffff)"/><text class="gg-title" x="36" y="18" font-size="18" font-weight="700" fill="var(--gg-ink, #262626)">Livability vs median rent</text><defs><clipPath id="gg-clip-0"><rect width="588" height="327"/></clipPath></defs><g class="gg-panel" data-panel="0" transform="translate(36,33)"><rect class="gg-panel-background" width="588" height="327" fill="var(--gg-panel, #ffffff)"/><g class="gg-grid" stroke="var(--gg-grid, #cccccc)" stroke-width="0.4" vector-effect="non-scaling-stroke"><line x1="0" y1="0" x2="0" y2="327"/><line x1="65.33" y1="0" x2="65.33" y2="327"/><line x1="130.67" y1="0" x2="130.67" y2="327"/><line x1="196" y1="0" x2="196" y2="327"/><line x1="261.33" y1="0" x2="261.33" y2="327"/><line x1="326.67" y1="0" x2="326.67" y2="327"/><line x1="392" y1="0" x2="392" y2="327"/><line x1="457.33" y1="0" x2="457.33" y2="327"/><line x1="522.67" y1="0" x2="522.67" y2="327"/><line x1="588" y1="0" x2="588" y2="327"/><line x1="0" y1="327" x2="588" y2="327"/><line x1="0" y1="286.13" x2="588" y2="286.13"/><line x1="0" y1="245.25" x2="588" y2="245.25"/><line x1="0" y1="204.38" x2="588" y2="204.38"/><line x1="0" y1="163.5" x2="588" y2="163.5"/><line x1="0" y1="122.63" x2="588" y2="122.63"/><line x1="0" y1="81.75" x2="588" y2="81.75"/><line x1="0" y1="40.88" x2="588" y2="40.88"/><line x1="0" y1="0" x2="588" y2="0"/></g><g class="gg-marks" clip-path="url(#gg-clip-0)"><g class="gg-batch gg-points" data-layer="0"><circle cx="127.4" cy="0" r="3" fill="var(--gg-ink, #262626)"/><circle cx="287.47" cy="20.44" r="3" fill="var(--gg-ink, #262626)"/><circle cx="539" cy="40.88" r="3" fill="var(--gg-ink, #262626)"/><circle cx="231.93" cy="61.31" r="3" fill="var(--gg-ink, #262626)"/><circle cx="398.53" cy="81.75" r="3" fill="var(--gg-ink, #262626)"/><circle cx="52.27" cy="102.19" r="3" fill="var(--gg-ink, #262626)"/><circle cx="356.07" cy="143.06" r="3" fill="var(--gg-ink, #262626)"/><circle cx="209.07" cy="163.5" r="3" fill="var(--gg-ink, #262626)"/><circle cx="179.67" cy="224.81" r="3" fill="var(--gg-ink, #262626)"/><circle cx="88.2" cy="245.25" r="3" fill="var(--gg-ink, #262626)"/><circle cx="320.13" cy="286.13" r="3" fill="var(--gg-ink, #262626)"/><circle cx="111.07" cy="327" r="3" fill="var(--gg-ink, #262626)"/></g><g class="gg-batch gg-glyphs" data-layer="1" font-size="10" text-anchor="middle"><text x="127.4" y="-9" dy="0.32em" fill="var(--gg-ink, #262626)">Vienna</text><text x="287.47" y="11.44" dy="0.32em" fill="var(--gg-ink, #262626)">Copenhagen</text><text x="539" y="31.88" dy="0.32em" fill="var(--gg-ink, #262626)">Zurich</text><text x="231.93" y="52.31" dy="0.32em" fill="var(--gg-ink, #262626)">Melbourne</text><text x="398.53" y="72.75" dy="0.32em" fill="var(--gg-ink, #262626)">Vancouver</text><text x="52.27" y="93.19" dy="0.32em" fill="var(--gg-ink, #262626)">Osaka</text><text x="356.07" y="134.06" dy="0.32em" fill="var(--gg-ink, #262626)">Amsterdam</text><text x="209.07" y="154.5" dy="0.32em" fill="var(--gg-ink, #262626)">Berlin</text><text x="179.67" y="215.81" dy="0.32em" fill="var(--gg-ink, #262626)">Lisbon</text><text x="88.2" y="236.25" dy="0.32em" fill="var(--gg-ink, #262626)">Prague</text><text x="320.13" y="277.13" dy="0.32em" fill="var(--gg-ink, #262626)">Austin</text><text x="111.07" y="318" dy="0.32em" fill="var(--gg-ink, #262626)">Warsaw</text></g></g></g><g class="gg-axis gg-axis-x" transform="translate(36,360)"><g class="gg-tick" transform="translate(0,0)"><text y="3" dy="0.71em" text-anchor="middle" fill="var(--gg-axisText, #4d4d4d)" font-size="11.5" font-weight="300">600</text></g><g class="gg-tick" transform="translate(65.33,0)"><text y="3" dy="0.71em" text-anchor="middle" fill="var(--gg-axisText, #4d4d4d)" font-size="11.5" font-weight="300">800</text></g><g class="gg-tick" transform="translate(130.67,0)"><text y="3" dy="0.71em" text-anchor="middle" fill="var(--gg-axisText, #4d4d4d)" font-size="11.5" font-weight="300">1,000</text></g><g class="gg-tick" transform="translate(196,0)"><text y="3" dy="0.71em" text-anchor="middle" fill="var(--gg-axisText, #4d4d4d)" font-size="11.5" font-weight="300">1,200</text></g><g class="gg-tick" transform="translate(261.33,0)"><text y="3" dy="0.71em" text-anchor="middle" fill="var(--gg-axisText, #4d4d4d)" font-size="11.5" font-weight="300">1,400</text></g><g class="gg-tick" transform="translate(326.67,0)"><text y="3" dy="0.71em" text-anchor="middle" fill="var(--gg-axisText, #4d4d4d)" font-size="11.5" font-weight="300">1,600</text></g><g class="gg-tick" transform="translate(392,0)"><text y="3" dy="0.71em" text-anchor="middle" fill="var(--gg-axisText, #4d4d4d)" font-size="11.5" font-weight="300">1,800</text></g><g class="gg-tick" transform="translate(457.33,0)"><text y="3" dy="0.71em" text-anchor="middle" fill="var(--gg-axisText, #4d4d4d)" font-size="11.5" font-weight="300">2,000</text></g><g class="gg-tick" transform="translate(522.67,0)"><text y="3" dy="0.71em" text-anchor="middle" fill="var(--gg-axisText, #4d4d4d)" font-size="11.5" font-weight="300">2,200</text></g><g class="gg-tick" transform="translate(588,0)"><text y="3" dy="0.71em" text-anchor="middle" fill="var(--gg-axisText, #4d4d4d)" font-size="11.5" font-weight="300">2,400</text></g></g><g class="gg-axis gg-axis-y" transform="translate(36,33)"><g class="gg-tick" transform="translate(0,327)"><text x="-3" dy="0.32em" text-anchor="end" fill="var(--gg-axisText, #4d4d4d)" font-size="11.5" font-weight="300">80</text></g><g class="gg-tick" transform="translate(0,286.13)"><text x="-3" dy="0.32em" text-anchor="end" fill="var(--gg-axisText, #4d4d4d)" font-size="11.5" font-weight="300">82</text></g><g class="gg-tick" transform="translate(0,245.25)"><text x="-3" dy="0.32em" text-anchor="end" fill="var(--gg-axisText, #4d4d4d)" font-size="11.5" font-weight="300">84</text></g><g class="gg-tick" transform="translate(0,204.38)"><text x="-3" dy="0.32em" text-anchor="end" fill="var(--gg-axisText, #4d4d4d)" font-size="11.5" font-weight="300">86</text></g><g class="gg-tick" transform="translate(0,163.5)"><text x="-3" dy="0.32em" text-anchor="end" fill="var(--gg-axisText, #4d4d4d)" font-size="11.5" font-weight="300">88</text></g><g class="gg-tick" transform="translate(0,122.63)"><text x="-3" dy="0.32em" text-anchor="end" fill="var(--gg-axisText, #4d4d4d)" font-size="11.5" font-weight="300">90</text></g><g class="gg-tick" transform="translate(0,81.75)"><text x="-3" dy="0.32em" text-anchor="end" fill="var(--gg-axisText, #4d4d4d)" font-size="11.5" font-weight="300">92</text></g><g class="gg-tick" transform="translate(0,40.88)"><text x="-3" dy="0.32em" text-anchor="end" fill="var(--gg-axisText, #4d4d4d)" font-size="11.5" font-weight="300">94</text></g><g class="gg-tick" transform="translate(0,0)"><text x="-3" dy="0.32em" text-anchor="end" fill="var(--gg-axisText, #4d4d4d)" font-size="11.5" font-weight="300">96</text></g></g><text class="gg-axis-title" x="330" y="392" text-anchor="middle" fill="var(--gg-ink, #262626)" font-size="9" font-weight="400">Median monthly rent (USD)</text><text class="gg-axis-title" transform="translate(12,196.5) rotate(-90)" text-anchor="middle" fill="var(--gg-ink, #262626)" font-size="9" font-weight="400">Livability index</text></svg>