<svg xmlns="http://www.w3.org/2000/svg" width="640" height="400" viewBox="0 0 640 400" role="img" aria-label="Daily active users, Q1 2026" class="gg-plot" font-family="&quot;Roboto Condensed&quot;, &quot;Arial Narrow&quot;, Arial, sans-serif" font-size="11.5" font-weight="300" text-rendering="optimizeLegibility" shape-rendering="geometricPrecision"><title>Daily active users, Q1 2026</title><style>
@font-face{font-family:"Roboto Condensed";src:url("../../../packages/svelte/src/lib/fonts/RobotoCondensed-Light.ttf") format("truetype");font-weight:300;font-style:normal}
@font-face{font-family:"Roboto Condensed";src:url("../../../packages/svelte/src/lib/fonts/RobotoCondensed-Regular.ttf") format("truetype");font-weight:400;font-style:normal}
@font-face{font-family:"Roboto Condensed";src:url("../../../packages/svelte/src/lib/fonts/RobotoCondensed-Bold.ttf") format("truetype");font-weight:700;font-style:normal}
</style><rect class="gg-paper" width="640" height="400" fill="var(--gg-paper, #ffffff)"/><text class="gg-title" x="52" y="18" font-size="18" font-weight="700" fill="var(--gg-ink, #262626)">Daily active users, Q1 2026</text><defs><clipPath id="gg-clip-0"><rect width="568" height="327"/></clipPath></defs><g class="gg-panel" data-panel="0" transform="translate(52,33)"><rect class="gg-panel-background" width="568" height="327" fill="var(--gg-panel, #ffffff)"/><g class="gg-grid" stroke="var(--gg-grid, #cccccc)" stroke-width="0.4" vector-effect="non-scaling-stroke"><line x1="25.53" y1="0" x2="25.53" y2="327"/><line x1="70.2" y1="0" x2="70.2" y2="327"/><line x1="114.88" y1="0" x2="114.88" y2="327"/><line x1="159.55" y1="0" x2="159.55" y2="327"/><line x1="204.22" y1="0" x2="204.22" y2="327"/><line x1="248.9" y1="0" x2="248.9" y2="327"/><line x1="293.57" y1="0" x2="293.57" y2="327"/><line x1="338.25" y1="0" x2="338.25" y2="327"/><line x1="382.92" y1="0" x2="382.92" y2="327"/><line x1="427.6" y1="0" x2="427.6" y2="327"/><line x1="472.27" y1="0" x2="472.27" y2="327"/><line x1="516.94" y1="0" x2="516.94" y2="327"/><line x1="561.62" y1="0" x2="561.62" y2="327"/><line x1="0" y1="327" x2="568" y2="327"/><line x1="0" y1="280.29" x2="568" y2="280.29"/><line x1="0" y1="233.57" x2="568" y2="233.57"/><line x1="0" y1="186.86" x2="568" y2="186.86"/><line x1="0" y1="140.14" x2="568" y2="140.14"/><line x1="0" y1="93.43" x2="568" y2="93.43"/><line x1="0" y1="46.71" x2="568" y2="46.71"/><line x1="0" y1="0" x2="568" y2="0"/></g><g class="gg-marks" clip-path="url(#gg-clip-0)"><g class="gg-batch gg-paths" data-layer="0"><path d="M0 49.05L6.38 46.48L12.76 121.22L19.15 115.62L25.53 29.2L31.91 33.4L38.29 33.87L44.67 35.04L51.06 39.71L57.44 121.92L63.82 124.03L70.2 39.24L76.58 44.85L82.97 46.95L89.35 41.81L95.73 46.01L102.11 125.43L108.49 126.6L114.88 42.51L121.26 45.78L127.64 38.77L134.02 39.24L140.4 34.33L146.79 110.95L153.17 114.68L159.55 29.43L165.93 24.29L172.31 25.23L178.7 18.22L185.08 18.92L191.46 107.21L197.84 109.31L204.22 26.16L210.61 19.39L216.99 22.42L223.37 24.76L229.75 25.23L236.13 108.38L242.52 111.18L248.9 33.17L255.28 33.87L261.66 28.73L268.04 29.66L274.43 31.77L280.81 117.49L287.19 120.06L293.57 35.5L299.96 40.41L306.34 38.77L312.72 32L319.1 35.97L325.48 118.19L331.87 120.52L338.25 42.98L344.63 47.88L351.01 50.22L357.39 44.85L363.78 48.58L370.16 128.46L376.54 131.73L382.92 48.82L389.3 48.35L395.69 47.88L402.07 53.72L408.45 57.93L414.83 128.7L421.21 124.96L427.6 40.88L433.98 38.77L440.36 30.83L446.74 28.26L453.12 28.03L459.51 111.65L465.89 112.11L472.27 22.19L478.65 18.92L485.03 19.62L491.42 12.61L497.8 18.22L504.18 107.44L510.56 104.41L516.94 18.69L523.33 16.35L529.71 15.18L536.09 8.64L542.47 2.8L548.85 90.63L555.24 92.26L561.62 4.44L568 8.88" fill="none" stroke="var(--gg-ink, #262626)" stroke-width="1.5" stroke-linejoin="round" stroke-linecap="round"/></g></g></g><g class="gg-axis gg-axis-x" transform="translate(52,360)"><g class="gg-tick" transform="translate(25.53,0)"><text y="3" dy="0.71em" text-anchor="middle" fill="var(--gg-axisText, #4d4d4d)" font-size="11.5" font-weight="300">Jan 05</text></g><g class="gg-tick" transform="translate(70.2,0)"><text y="3" dy="0.71em" text-anchor="middle" fill="var(--gg-axisText, #4d4d4d)" font-size="11.5" font-weight="300">Jan 12</text></g><g class="gg-tick" transform="translate(114.88,0)"><text y="3" dy="0.71em" text-anchor="middle" fill="var(--gg-axisText, #4d4d4d)" font-size="11.5" font-weight="300">Jan 19</text></g><g class="gg-tick" transform="translate(159.55,0)"><text y="3" dy="0.71em" text-anchor="middle" fill="var(--gg-axisText, #4d4d4d)" font-size="11.5" font-weight="300">Jan 26</text></g><g class="gg-tick" transform="translate(204.22,0)"><text y="3" dy="0.71em" text-anchor="middle" fill="var(--gg-axisText, #4d4d4d)" font-size="11.5" font-weight="300">Feb 02</text></g><g class="gg-tick" transform="translate(248.9,0)"><text y="3" dy="0.71em" text-anchor="middle" fill="var(--gg-axisText, #4d4d4d)" font-size="11.5" font-weight="300">Feb 09</text></g><g class="gg-tick" transform="translate(293.57,0)"><text y="3" dy="0.71em" text-anchor="middle" fill="var(--gg-axisText, #4d4d4d)" font-size="11.5" font-weight="300">Feb 16</text></g><g class="gg-tick" transform="translate(338.25,0)"><text y="3" dy="0.71em" text-anchor="middle" fill="var(--gg-axisText, #4d4d4d)" font-size="11.5" font-weight="300">Feb 23</text></g><g class="gg-tick" transform="translate(382.92,0)"><text y="3" dy="0.71em" text-anchor="middle" fill="var(--gg-axisText, #4d4d4d)" font-size="11.5" font-weight="300">Mar 02</text></g><g class="gg-tick" transform="translate(427.6,0)"><text y="3" dy="0.71em" text-anchor="middle" fill="var(--gg-axisText, #4d4d4d)" font-size="11.5" font-weight="300">Mar 09</text></g><g class="gg-tick" transform="translate(472.27,0)"><text y="3" dy="0.71em" text-anchor="middle" fill="var(--gg-axisText, #4d4d4d)" font-size="11.5" font-weight="300">Mar 16</text></g><g class="gg-tick" transform="translate(516.94,0)"><text y="3" dy="0.71em" text-anchor="middle" fill="var(--gg-axisText, #4d4d4d)" font-size="11.5" font-weight="300">Mar 23</text></g><g class="gg-tick" transform="translate(561.62,0)"><text y="3" dy="0.71em" text-anchor="middle" fill="var(--gg-axisText, #4d4d4d)" font-size="11.5" font-weight="300">Mar 30</text></g></g><g class="gg-axis gg-axis-y" transform="translate(52,33)"><g class="gg-tick" transform="translate(0,327)"><text x="-3" dy="0.32em" text-anchor="end" fill="var(--gg-axisText, #4d4d4d)" font-size="11.5" font-weight="300">0</text></g><g class="gg-tick" transform="translate(0,280.29)"><text x="-3" dy="0.32em" text-anchor="end" fill="var(--gg-axisText, #4d4d4d)" font-size="11.5" font-weight="300">200</text></g><g class="gg-tick" transform="translate(0,233.57)"><text x="-3" dy="0.32em" text-anchor="end" fill="var(--gg-axisText, #4d4d4d)" font-size="11.5" font-weight="300">400</text></g><g class="gg-tick" transform="translate(0,186.86)"><text x="-3" dy="0.32em" text-anchor="end" fill="var(--gg-axisText, #4d4d4d)" font-size="11.5" font-weight="300">600</text></g><g class="gg-tick" transform="translate(0,140.14)"><text x="-3" dy="0.32em" text-anchor="end" fill="var(--gg-axisText, #4d4d4d)" font-size="11.5" font-weight="300">800</text></g><g class="gg-tick" transform="translate(0,93.43)"><text x="-3" dy="0.32em" text-anchor="end" fill="var(--gg-axisText, #4d4d4d)" font-size="11.5" font-weight="300">1,000</text></g><g class="gg-tick" transform="translate(0,46.71)"><text x="-3" dy="0.32em" text-anchor="end" fill="var(--gg-axisText, #4d4d4d)" font-size="11.5" font-weight="300">1,200</text></g><g class="gg-tick" transform="translate(0,0)"><text x="-3" dy="0.32em" text-anchor="end" fill="var(--gg-axisText, #4d4d4d)" font-size="11.5" font-weight="300">1,400</text></g></g><text class="gg-axis-title" x="336" y="392" text-anchor="middle" fill="var(--gg-ink, #262626)" font-size="9" font-weight="400">Date</text><text class="gg-axis-title" transform="translate(12,196.5) rotate(-90)" text-anchor="middle" fill="var(--gg-ink, #262626)" font-size="9" font-weight="400">Users</text></svg>