<svg xmlns="http://www.w3.org/2000/svg" width="560" height="220" viewBox="0 0 560 220" role="img" aria-label="Bar chart of cold-mount time for a 3-series by 10,000-point line chart: ggsvelte 16 ms, LayerCake 26.5 ms, SveltePlot 1,143 ms. Lower is better." class="gg-plot" font-family="&quot;Roboto Condensed&quot;, &quot;Arial Narrow&quot;, Arial, sans-serif" font-size="11" font-weight="300" text-rendering="optimizeLegibility" shape-rendering="geometricPrecision"><title>Bar chart of cold-mount time for a 3-series by 10,000-point line chart: ggsvelte 16 ms, LayerCake 26.5 ms, SveltePlot 1,143 ms. Lower is better.</title><rect class="gg-paper" width="560" height="220" fill="var(--gg-paper, transparent)"/><defs><clipPath id="gg-clip-0"><rect width="488" height="196"/></clipPath></defs><g class="gg-panel" data-panel="0" transform="translate(68,8)"><rect class="gg-panel-background" width="488" height="196" fill="var(--gg-panel, transparent)"/><g class="gg-grid" stroke="var(--gg-grid, transparent)" stroke-width="0.25" vector-effect="non-scaling-stroke"><line x1="59.15" y1="0" x2="59.15" y2="196"/><line x1="120.77" y1="0" x2="120.77" y2="196"/><line x1="182.38" y1="0" x2="182.38" y2="196"/><line x1="244" y1="0" x2="244" y2="196"/><line x1="305.62" y1="0" x2="305.62" y2="196"/><line x1="367.23" y1="0" x2="367.23" y2="196"/><line x1="428.85" y1="0" x2="428.85" y2="196"/><line x1="0" y1="163.33" x2="488" y2="163.33"/><line x1="0" y1="98" x2="488" y2="98"/><line x1="0" y1="32.67" x2="488" y2="32.67"/></g><g class="gg-marks" clip-path="url(#gg-clip-0)"><g class="gg-batch gg-rects" data-layer="0"><rect x="59.15" y="12.41" width="4.93" height="40.51" fill="#7ea1f0"/><rect x="59.15" y="77.75" width="8.16" height="40.51" fill="#c9cfda"/><rect x="59.15" y="143.08" width="352.01" height="40.51" fill="#c9cfda"/></g><g class="gg-batch gg-glyphs" data-layer="1" font-size="12" text-anchor="start"><text x="70.08" y="32.67" dy="0.32em" fill="var(--gg-ink, #e9edf4)">16 ms</text><text x="73.32" y="98" dy="0.32em" fill="var(--gg-ink, #e9edf4)">26.5 ms</text><text x="417.16" y="163.33" dy="0.32em" fill="var(--gg-ink, #e9edf4)">1,143 ms</text></g></g><rect class="gg-panel-border" width="488" height="196" fill="none" stroke="var(--gg-panelBorder, transparent)" stroke-width="0.5" vector-effect="non-scaling-stroke"/></g><g class="gg-axis gg-axis-y" transform="translate(68,8)"><g class="gg-tick" transform="translate(0,163.33)"><title>SveltePlot</title><line x2="-3.67" stroke="var(--gg-tickColor, #e9edf4)" stroke-width="0.25" vector-effect="non-scaling-stroke"/><text x="-6.67" dy="0.32em" text-anchor="end" fill="var(--gg-axisText, #aab4c4)" font-size="12" font-weight="300">SveltePlot</text></g><g class="gg-tick" transform="translate(0,98)"><title>LayerCake</title><line x2="-3.67" stroke="var(--gg-tickColor, #e9edf4)" stroke-width="0.25" vector-effect="non-scaling-stroke"/><text x="-6.67" dy="0.32em" text-anchor="end" fill="var(--gg-axisText, #aab4c4)" font-size="12" font-weight="300">LayerCake</text></g><g class="gg-tick" transform="translate(0,32.67)"><title>ggsvelte</title><line x2="-3.67" stroke="var(--gg-tickColor, #e9edf4)" stroke-width="0.25" vector-effect="non-scaling-stroke"/><text x="-6.67" dy="0.32em" text-anchor="end" fill="var(--gg-axisText, #aab4c4)" font-size="12" font-weight="300">ggsvelte</text></g></g></svg>