<svg xmlns="http://www.w3.org/2000/svg" width="1200" height="720" viewBox="0 0 1200 720" role="img" aria-label="Plot of response by dose" class="gg-plot" font-family="&quot;Roboto Condensed&quot;, &quot;Arial Narrow&quot;, Arial, sans-serif" font-size="11.5" font-weight="300" text-rendering="optimizeLegibility" shape-rendering="geometricPrecision"><title>Plot of response by dose</title><rect class="gg-paper" width="1200" height="720" fill="var(--gg-paper, #ffffff)"/><defs><clipPath id="gg-clip-0"><rect width="1140" height="672"/></clipPath></defs><g class="gg-panel" data-panel="0" transform="translate(36,8)"><rect class="gg-panel-background" width="1140" height="672" fill="var(--gg-panel, #ffffff)"/><g class="gg-grid" stroke="var(--gg-grid, #cccccc)" stroke-width="0.4" vector-effect="non-scaling-stroke"><line x1="131.54" y1="0" x2="131.54" y2="672"/><line x1="290.98" y1="0" x2="290.98" y2="672"/><line x1="450.42" y1="0" x2="450.42" y2="672"/><line x1="609.86" y1="0" x2="609.86" y2="672"/><line x1="769.3" y1="0" x2="769.3" y2="672"/><line x1="928.74" y1="0" x2="928.74" y2="672"/><line x1="1088.18" y1="0" x2="1088.18" y2="672"/><line x1="0" y1="641.45" x2="1140" y2="641.45"/><line x1="0" y1="590.55" x2="1140" y2="590.55"/><line x1="0" y1="539.64" x2="1140" y2="539.64"/><line x1="0" y1="488.73" x2="1140" y2="488.73"/><line x1="0" y1="437.82" x2="1140" y2="437.82"/><line x1="0" y1="386.91" x2="1140" y2="386.91"/><line x1="0" y1="336" x2="1140" y2="336"/><line x1="0" y1="285.09" x2="1140" y2="285.09"/><line x1="0" y1="234.18" x2="1140" y2="234.18"/><line x1="0" y1="183.27" x2="1140" y2="183.27"/><line x1="0" y1="132.36" x2="1140" y2="132.36"/><line x1="0" y1="81.45" x2="1140" y2="81.45"/><line x1="0" y1="30.55" x2="1140" y2="30.55"/></g><g class="gg-marks" clip-path="url(#gg-clip-0)"><g class="gg-batch gg-paths" data-layer="0"><path d="M290.98 387.91L297.37 383.82L303.76 379.73L310.15 375.63L316.54 371.54L322.93 367.45L329.33 363.35L335.72 359.26L342.11 355.16L348.5 351.07L354.89 346.98L361.28 342.88L367.67 338.79L374.06 334.7L380.45 330.6L386.85 326.51L393.24 322.41L399.63 318.32L406.02 314.23L412.41 310.13L418.8 306.04L425.19 301.95L431.58 297.85L437.97 293.76L444.36 289.66L450.76 285.57L457.15 281.48L463.54 277.38L469.93 273.29L476.32 269.19L482.71 265.1L489.1 261.01L495.49 256.91L501.88 252.82L508.28 248.73L514.67 244.63L521.06 240.54L527.45 236.44L533.84 232.35L540.23 228.26L546.62 224.16L553.01 220.07L559.4 215.98L565.8 211.88L572.19 207.79L578.58 203.69L584.97 199.6L591.36 195.51L597.75 191.41L604.14 187.32L610.53 183.23L616.92 179.13L623.32 175.04L629.71 170.94L636.1 166.85L642.49 162.76L648.88 158.66L655.27 154.57L661.66 150.47L668.05 146.38L674.44 142.29L680.83 138.19L687.23 134.1L693.62 130.01L700.01 125.91L706.4 121.82L712.79 117.72L719.18 113.63L725.57 109.54L731.96 105.44L738.35 101.35L744.75 97.26L751.14 93.16L757.53 89.07L763.92 84.97L770.31 80.88L776.7 76.79L783.09 72.69L789.48 68.6L795.87 64.51" fill="none" stroke="var(--gg-ink, #262626)" stroke-width="1" stroke-linejoin="round" stroke-linecap="round"/></g><g class="gg-batch gg-rects" data-layer="1"><rect x="290.98" y="437.82" width="79.72" height="203.64" fill="var(--gg-accent, #4385be)"/><rect x="370.7" y="488.73" width="79.72" height="152.73" fill="var(--gg-accent, #4385be)"/><rect x="450.42" y="488.73" width="79.72" height="152.73" fill="var(--gg-accent, #4385be)"/><rect x="530.14" y="488.73" width="79.72" height="152.73" fill="var(--gg-accent, #4385be)"/><rect x="609.86" y="539.64" width="79.72" height="101.82" fill="var(--gg-accent, #4385be)"/><rect x="689.58" y="437.82" width="79.72" height="203.64" fill="var(--gg-accent, #4385be)"/><rect x="769.3" y="590.55" width="79.72" height="50.91" fill="var(--gg-accent, #4385be)"/></g><g class="gg-batch gg-areas" data-layer="2"><path d="M57.82 641.42L59.72 641.42L61.62 641.41L63.52 641.41L65.42 641.41L67.32 641.4L69.22 641.4L71.12 641.4L73.02 641.39L74.92 641.39L76.82 641.38L78.72 641.38L80.62 641.37L82.52 641.37L84.43 641.36L86.33 641.35L88.23 641.35L90.13 641.34L92.03 641.33L93.93 641.32L95.83 641.31L97.73 641.3L99.63 641.29L101.53 641.28L103.43 641.27L105.33 641.26L107.23 641.24L109.13 641.23L111.03 641.22L112.93 641.2L114.84 641.19L116.74 641.17L118.64 641.15L120.54 641.13L122.44 641.11L124.34 641.09L126.24 641.07L128.14 641.05L130.04 641.03L131.94 641L133.84 640.97L135.74 640.95L137.64 640.92L139.54 640.89L141.44 640.86L143.34 640.83L145.25 640.79L147.15 640.76L149.05 640.72L150.95 640.68L152.85 640.64L154.75 640.6L156.65 640.56L158.55 640.51L160.45 640.47L162.35 640.42L164.25 640.37L166.15 640.31L168.05 640.26L169.95 640.21L171.85 640.15L173.75 640.09L175.66 640.03L177.56 639.96L179.46 639.9L181.36 639.83L183.26 639.76L185.16 639.69L187.06 639.61L188.96 639.54L190.86 639.46L192.76 639.38L194.66 639.29L196.56 639.21L198.46 639.12L200.36 639.03L202.26 638.94L204.16 638.84L206.07 638.75L207.97 638.65L209.87 638.55L211.77 638.45L213.67 638.34L215.57 638.23L217.47 638.12L219.37 638.01L221.27 637.9L223.17 637.78L225.07 637.66L226.97 637.54L228.87 637.42L230.77 637.3L232.67 637.17L234.57 637.05L236.48 636.92L238.38 636.79L240.28 636.65L242.18 636.52L244.08 636.38L245.98 636.25L247.88 636.11L249.78 635.97L251.68 635.83L253.58 635.69L255.48 635.54L257.38 635.4L259.28 635.25L261.18 635.11L263.08 634.96L264.98 634.81L266.89 634.66L268.79 634.52L270.69 634.37L272.59 634.22L274.49 634.07L276.39 633.92L278.29 633.77L280.19 633.62L282.09 633.47L283.99 633.32L285.89 633.17L287.79 633.02L289.69 632.87L291.59 632.73L293.49 632.58L295.39 632.43L297.3 632.29L299.2 632.14L301.1 632L303 631.86L304.9 631.72L306.8 631.58L308.7 631.44L310.6 631.3L312.5 631.16L314.4 631.03L316.3 630.9L318.2 630.76L320.1 630.63L322 630.51L323.9 630.38L325.8 630.26L327.71 630.13L329.61 630.01L331.51 629.89L333.41 629.78L335.31 629.66L337.21 629.55L339.11 629.44L341.01 629.33L342.91 629.23L344.81 629.12L346.71 629.02L348.61 628.92L350.51 628.83L352.41 628.73L354.31 628.64L356.21 628.55L358.12 628.46L360.02 628.37L361.92 628.29L363.82 628.21L365.72 628.13L367.62 628.05L369.52 627.98L371.42 627.9L373.32 627.83L375.22 627.76L377.12 627.7L379.02 627.63L380.92 627.57L382.82 627.51L384.72 627.45L386.62 627.4L388.53 627.34L390.43 627.29L392.33 627.24L394.23 627.19L396.13 627.14L398.03 627.1L399.93 627.05L401.83 627.01L403.73 626.97L405.63 626.93L407.53 626.89L409.43 626.86L411.33 626.82L413.23 626.79L415.13 626.76L417.03 626.73L418.94 626.7L420.84 626.67L422.74 626.65L424.64 626.62L426.54 626.6L428.44 626.58L430.34 626.55L432.24 626.53L434.14 626.51L436.04 626.49L437.94 626.48L439.84 626.46L441.74 626.44L443.64 626.43L445.54 626.41L447.44 626.4L449.35 626.39L451.25 626.37L453.15 626.36L455.05 626.35L456.95 626.34L458.85 626.33L460.75 626.32L462.65 626.31L464.55 626.3L466.45 626.3L468.35 626.29L470.25 626.28L472.15 626.28L474.05 626.27L475.95 626.26L477.85 626.26L479.76 626.25L481.66 626.25L483.56 626.24L485.46 626.24L487.36 626.24L489.26 626.23L491.16 626.23L493.06 626.23L494.96 626.22L496.86 626.22L498.76 626.22L500.66 626.21L502.56 626.21L504.46 626.21L506.36 626.21L508.27 626.21L510.17 626.2L512.07 626.2L513.97 626.2L515.87 626.2L517.77 626.2L519.67 626.2L521.57 626.2L523.47 626.2L525.37 626.2L527.27 626.19L529.17 626.19L531.07 626.19L532.97 626.19L534.87 626.19L536.77 626.19L538.68 626.19L540.58 626.19L542.48 626.19L544.38 626.19L546.28 626.19L548.18 626.19L550.08 626.19L551.98 626.19L553.88 626.19L555.78 626.19L557.68 626.19L559.58 626.19L561.48 626.19L563.38 626.2L565.28 626.2L567.18 626.2L569.09 626.2L570.99 626.2L572.89 626.2L574.79 626.2L576.69 626.2L578.59 626.21L580.49 626.21L582.39 626.21L584.29 626.21L586.19 626.21L588.09 626.22L589.99 626.22L591.89 626.22L593.79 626.22L595.69 626.23L597.59 626.23L599.5 626.23L601.4 626.24L603.3 626.24L605.2 626.25L607.1 626.25L609 626.26L610.9 626.26L612.8 626.27L614.7 626.27L616.6 626.28L618.5 626.29L620.4 626.29L622.3 626.3L624.2 626.31L626.1 626.32L628 626.33L629.91 626.34L631.81 626.35L633.71 626.36L635.61 626.37L637.51 626.38L639.41 626.4L641.31 626.41L643.21 626.43L645.11 626.44L647.01 626.46L648.91 626.47L650.81 626.49L652.71 626.51L654.61 626.53L656.51 626.55L658.41 626.57L660.32 626.6L662.22 626.62L664.12 626.65L666.02 626.67L667.92 626.7L669.82 626.73L671.72 626.76L673.62 626.79L675.52 626.82L677.42 626.86L679.32 626.89L681.22 626.93L683.12 626.97L685.02 627.01L686.92 627.05L688.82 627.1L690.73 627.14L692.63 627.19L694.53 627.24L696.43 627.29L698.33 627.34L700.23 627.4L702.13 627.45L704.03 627.51L705.93 627.57L707.83 627.63L709.73 627.7L711.63 627.76L713.53 627.83L715.43 627.9L717.33 627.98L719.23 628.05L721.14 628.13L723.04 628.21L724.94 628.29L726.84 628.37L728.74 628.46L730.64 628.55L732.54 628.64L734.44 628.73L736.34 628.83L738.24 628.92L740.14 629.02L742.04 629.13L743.94 629.23L745.84 629.34L747.74 629.44L749.64 629.55L751.55 629.67L753.45 629.78L755.35 629.9L757.25 630.02L759.15 630.14L761.05 630.26L762.95 630.38L764.85 630.51L766.75 630.64L768.65 630.77L770.55 630.9L772.45 631.03L774.35 631.17L776.25 631.3L778.15 631.44L780.05 631.58L781.96 631.72L783.86 631.86L785.76 632L787.66 632.15L789.56 632.29L791.46 632.44L793.36 632.58L795.26 632.73L797.16 632.88L799.06 633.02L800.96 633.17L802.86 633.32L804.76 633.47L806.66 633.62L808.56 633.77L810.46 633.92L812.37 634.07L814.27 634.22L816.17 634.37L818.07 634.52L819.97 634.67L821.87 634.81L823.77 634.96L825.67 635.11L827.57 635.25L829.47 635.4L831.37 635.54L833.27 635.69L835.17 635.83L837.07 635.97L838.97 636.11L840.87 636.25L842.78 636.39L844.68 636.52L846.58 636.65L848.48 636.79L850.38 636.92L852.28 637.05L854.18 637.17L856.08 637.3L857.98 637.42L859.88 637.55L861.78 637.66L863.68 637.78L865.58 637.9L867.48 638.01L869.38 638.12L871.28 638.23L873.19 638.34L875.09 638.45L876.99 638.55L878.89 638.65L880.79 638.75L882.69 638.84L884.59 638.94L886.49 639.03L888.39 639.12L890.29 639.21L892.19 639.29L894.09 639.38L895.99 639.46L897.89 639.54L899.79 639.61L901.69 639.69L903.6 639.76L905.5 639.83L907.4 639.9L909.3 639.96L911.2 640.03L913.1 640.09L915 640.15L916.9 640.21L918.8 640.26L920.7 640.31L922.6 640.37L924.5 640.42L926.4 640.47L928.3 640.51L930.2 640.56L932.1 640.6L934.01 640.64L935.91 640.68L937.81 640.72L939.71 640.76L941.61 640.79L943.51 640.83L945.41 640.86L947.31 640.89L949.21 640.92L951.11 640.95L953.01 640.97L954.91 641L956.81 641.03L958.71 641.05L960.61 641.07L962.51 641.09L964.42 641.11L966.32 641.13L968.22 641.15L970.12 641.17L972.02 641.19L973.92 641.2L975.82 641.22L977.72 641.23L979.62 641.24L981.52 641.26L983.42 641.27L985.32 641.28L987.22 641.29L989.12 641.3L991.02 641.31L992.92 641.32L994.83 641.33L996.73 641.34L998.63 641.35L1000.53 641.35L1002.43 641.36L1004.33 641.37L1006.23 641.37L1008.13 641.38L1010.03 641.38L1011.93 641.39L1013.83 641.39L1015.73 641.4L1017.63 641.4L1019.53 641.4L1021.43 641.41L1023.33 641.41L1025.24 641.41L1027.14 641.42L1029.04 641.42L1029.04 641.45L1027.14 641.45L1025.24 641.45L1023.33 641.45L1021.43 641.45L1019.53 641.45L1017.63 641.45L1015.73 641.45L1013.83 641.45L1011.93 641.45L1010.03 641.45L1008.13 641.45L1006.23 641.45L1004.33 641.45L1002.43 641.45L1000.53 641.45L998.63 641.45L996.73 641.45L994.83 641.45L992.92 641.45L991.02 641.45L989.12 641.45L987.22 641.45L985.32 641.45L983.42 641.45L981.52 641.45L979.62 641.45L977.72 641.45L975.82 641.45L973.92 641.45L972.02 641.45L970.12 641.45L968.22 641.45L966.32 641.45L964.42 641.45L962.51 641.45L960.61 641.45L958.71 641.45L956.81 641.45L954.91 641.45L953.01 641.45L951.11 641.45L949.21 641.45L947.31 641.45L945.41 641.45L943.51 641.45L941.61 641.45L939.71 641.45L937.81 641.45L935.91 641.45L934.01 641.45L932.1 641.45L930.2 641.45L928.3 641.45L926.4 641.45L924.5 641.45L922.6 641.45L920.7 641.45L918.8 641.45L916.9 641.45L915 641.45L913.1 641.45L911.2 641.45L909.3 641.45L907.4 641.45L905.5 641.45L903.6 641.45L901.69 641.45L899.79 641.45L897.89 641.45L895.99 641.45L894.09 641.45L892.19 641.45L890.29 641.45L888.39 641.45L886.49 641.45L884.59 641.45L882.69 641.45L880.79 641.45L878.89 641.45L876.99 641.45L875.09 641.45L873.19 641.45L871.28 641.45L869.38 641.45L867.48 641.45L865.58 641.45L863.68 641.45L861.78 641.45L859.88 641.45L857.98 641.45L856.08 641.45L854.18 641.45L852.28 641.45L850.38 641.45L848.48 641.45L846.58 641.45L844.68 641.45L842.78 641.45L840.87 641.45L838.97 641.45L837.07 641.45L835.17 641.45L833.27 641.45L831.37 641.45L829.47 641.45L827.57 641.45L825.67 641.45L823.77 641.45L821.87 641.45L819.97 641.45L818.07 641.45L816.17 641.45L814.27 641.45L812.37 641.45L810.46 641.45L808.56 641.45L806.66 641.45L804.76 641.45L802.86 641.45L800.96 641.45L799.06 641.45L797.16 641.45L795.26 641.45L793.36 641.45L791.46 641.45L789.56 641.45L787.66 641.45L785.76 641.45L783.86 641.45L781.96 641.45L780.05 641.45L778.15 641.45L776.25 641.45L774.35 641.45L772.45 641.45L770.55 641.45L768.65 641.45L766.75 641.45L764.85 641.45L762.95 641.45L761.05 641.45L759.15 641.45L757.25 641.45L755.35 641.45L753.45 641.45L751.55 641.45L749.64 641.45L747.74 641.45L745.84 641.45L743.94 641.45L742.04 641.45L740.14 641.45L738.24 641.45L736.34 641.45L734.44 641.45L732.54 641.45L730.64 641.45L728.74 641.45L726.84 641.45L724.94 641.45L723.04 641.45L721.14 641.45L719.23 641.45L717.33 641.45L715.43 641.45L713.53 641.45L711.63 641.45L709.73 641.45L707.83 641.45L705.93 641.45L704.03 641.45L702.13 641.45L700.23 641.45L698.33 641.45L696.43 641.45L694.53 641.45L692.63 641.45L690.73 641.45L688.82 641.45L686.92 641.45L685.02 641.45L683.12 641.45L681.22 641.45L679.32 641.45L677.42 641.45L675.52 641.45L673.62 641.45L671.72 641.45L669.82 641.45L667.92 641.45L666.02 641.45L664.12 641.45L662.22 641.45L660.32 641.45L658.41 641.45L656.51 641.45L654.61 641.45L652.71 641.45L650.81 641.45L648.91 641.45L647.01 641.45L645.11 641.45L643.21 641.45L641.31 641.45L639.41 641.45L637.51 641.45L635.61 641.45L633.71 641.45L631.81 641.45L629.91 641.45L628 641.45L626.1 641.45L624.2 641.45L622.3 641.45L620.4 641.45L618.5 641.45L616.6 641.45L614.7 641.45L612.8 641.45L610.9 641.45L609 641.45L607.1 641.45L605.2 641.45L603.3 641.45L601.4 641.45L599.5 641.45L597.59 641.45L595.69 641.45L593.79 641.45L591.89 641.45L589.99 641.45L588.09 641.45L586.19 641.45L584.29 641.45L582.39 641.45L580.49 641.45L578.59 641.45L576.69 641.45L574.79 641.45L572.89 641.45L570.99 641.45L569.09 641.45L567.18 641.45L565.28 641.45L563.38 641.45L561.48 641.45L559.58 641.45L557.68 641.45L555.78 641.45L553.88 641.45L551.98 641.45L550.08 641.45L548.18 641.45L546.28 641.45L544.38 641.45L542.48 641.45L540.58 641.45L538.68 641.45L536.77 641.45L534.87 641.45L532.97 641.45L531.07 641.45L529.17 641.45L527.27 641.45L525.37 641.45L523.47 641.45L521.57 641.45L519.67 641.45L517.77 641.45L515.87 641.45L513.97 641.45L512.07 641.45L510.17 641.45L508.27 641.45L506.36 641.45L504.46 641.45L502.56 641.45L500.66 641.45L498.76 641.45L496.86 641.45L494.96 641.45L493.06 641.45L491.16 641.45L489.26 641.45L487.36 641.45L485.46 641.45L483.56 641.45L481.66 641.45L479.76 641.45L477.85 641.45L475.95 641.45L474.05 641.45L472.15 641.45L470.25 641.45L468.35 641.45L466.45 641.45L464.55 641.45L462.65 641.45L460.75 641.45L458.85 641.45L456.95 641.45L455.05 641.45L453.15 641.45L451.25 641.45L449.35 641.45L447.44 641.45L445.54 641.45L443.64 641.45L441.74 641.45L439.84 641.45L437.94 641.45L436.04 641.45L434.14 641.45L432.24 641.45L430.34 641.45L428.44 641.45L426.54 641.45L424.64 641.45L422.74 641.45L420.84 641.45L418.94 641.45L417.03 641.45L415.13 641.45L413.23 641.45L411.33 641.45L409.43 641.45L407.53 641.45L405.63 641.45L403.73 641.45L401.83 641.45L399.93 641.45L398.03 641.45L396.13 641.45L394.23 641.45L392.33 641.45L390.43 641.45L388.53 641.45L386.62 641.45L384.72 641.45L382.82 641.45L380.92 641.45L379.02 641.45L377.12 641.45L375.22 641.45L373.32 641.45L371.42 641.45L369.52 641.45L367.62 641.45L365.72 641.45L363.82 641.45L361.92 641.45L360.02 641.45L358.12 641.45L356.21 641.45L354.31 641.45L352.41 641.45L350.51 641.45L348.61 641.45L346.71 641.45L344.81 641.45L342.91 641.45L341.01 641.45L339.11 641.45L337.21 641.45L335.31 641.45L333.41 641.45L331.51 641.45L329.61 641.45L327.71 641.45L325.8 641.45L323.9 641.45L322 641.45L320.1 641.45L318.2 641.45L316.3 641.45L314.4 641.45L312.5 641.45L310.6 641.45L308.7 641.45L306.8 641.45L304.9 641.45L303 641.45L301.1 641.45L299.2 641.45L297.3 641.45L295.39 641.45L293.49 641.45L291.59 641.45L289.69 641.45L287.79 641.45L285.89 641.45L283.99 641.45L282.09 641.45L280.19 641.45L278.29 641.45L276.39 641.45L274.49 641.45L272.59 641.45L270.69 641.45L268.79 641.45L266.89 641.45L264.98 641.45L263.08 641.45L261.18 641.45L259.28 641.45L257.38 641.45L255.48 641.45L253.58 641.45L251.68 641.45L249.78 641.45L247.88 641.45L245.98 641.45L244.08 641.45L242.18 641.45L240.28 641.45L238.38 641.45L236.48 641.45L234.57 641.45L232.67 641.45L230.77 641.45L228.87 641.45L226.97 641.45L225.07 641.45L223.17 641.45L221.27 641.45L219.37 641.45L217.47 641.45L215.57 641.45L213.67 641.45L211.77 641.45L209.87 641.45L207.97 641.45L206.07 641.45L204.16 641.45L202.26 641.45L200.36 641.45L198.46 641.45L196.56 641.45L194.66 641.45L192.76 641.45L190.86 641.45L188.96 641.45L187.06 641.45L185.16 641.45L183.26 641.45L181.36 641.45L179.46 641.45L177.56 641.45L175.66 641.45L173.75 641.45L171.85 641.45L169.95 641.45L168.05 641.45L166.15 641.45L164.25 641.45L162.35 641.45L160.45 641.45L158.55 641.45L156.65 641.45L154.75 641.45L152.85 641.45L150.95 641.45L149.05 641.45L147.15 641.45L145.25 641.45L143.34 641.45L141.44 641.45L139.54 641.45L137.64 641.45L135.74 641.45L133.84 641.45L131.94 641.45L130.04 641.45L128.14 641.45L126.24 641.45L124.34 641.45L122.44 641.45L120.54 641.45L118.64 641.45L116.74 641.45L114.84 641.45L112.93 641.45L111.03 641.45L109.13 641.45L107.23 641.45L105.33 641.45L103.43 641.45L101.53 641.45L99.63 641.45L97.73 641.45L95.83 641.45L93.93 641.45L92.03 641.45L90.13 641.45L88.23 641.45L86.33 641.45L84.43 641.45L82.52 641.45L80.62 641.45L78.72 641.45L76.82 641.45L74.92 641.45L73.02 641.45L71.12 641.45L69.22 641.45L67.32 641.45L65.42 641.45L63.52 641.45L61.62 641.45L59.72 641.45L57.82 641.45Z" fill="var(--gg-accent, #4385be)" stroke="none"/></g></g></g><g class="gg-axis gg-axis-x" transform="translate(36,680)"><g class="gg-tick" transform="translate(131.54,0)"><title>0.1</title><text y="3" dy="0.71em" text-anchor="middle" fill="var(--gg-axisText, #4d4d4d)" font-size="11.5" font-weight="300">0.1</text></g><g class="gg-tick" transform="translate(290.98,0)"><title>1</title><text y="3" dy="0.71em" text-anchor="middle" fill="var(--gg-axisText, #4d4d4d)" font-size="11.5" font-weight="300">1</text></g><g class="gg-tick" transform="translate(450.42,0)"><title>10</title><text y="3" dy="0.71em" text-anchor="middle" fill="var(--gg-axisText, #4d4d4d)" font-size="11.5" font-weight="300">10</text></g><g class="gg-tick" transform="translate(609.86,0)"><title>100</title><text y="3" dy="0.71em" text-anchor="middle" fill="var(--gg-axisText, #4d4d4d)" font-size="11.5" font-weight="300">100</text></g><g class="gg-tick" transform="translate(769.3,0)"><title>1,000</title><text y="3" dy="0.71em" text-anchor="middle" fill="var(--gg-axisText, #4d4d4d)" font-size="11.5" font-weight="300">1,000</text></g><g class="gg-tick" transform="translate(928.74,0)"><title>10,000</title><text y="3" dy="0.71em" text-anchor="middle" fill="var(--gg-axisText, #4d4d4d)" font-size="11.5" font-weight="300">10,000</text></g><g class="gg-tick" transform="translate(1088.18,0)"><title>100,000</title><text y="3" dy="0.71em" text-anchor="middle" fill="var(--gg-axisText, #4d4d4d)" font-size="11.5" font-weight="300">100,000</text></g></g><g class="gg-axis gg-axis-y" transform="translate(36,8)"><g class="gg-tick" transform="translate(0,641.45)"><title>0</title><text x="-3" dy="0.32em" text-anchor="end" fill="var(--gg-axisText, #4d4d4d)" font-size="11.5" font-weight="300">0</text></g><g class="gg-tick" transform="translate(0,590.55)"><title>1</title><text x="-3" dy="0.32em" text-anchor="end" fill="var(--gg-axisText, #4d4d4d)" font-size="11.5" font-weight="300">1</text></g><g class="gg-tick" transform="translate(0,539.64)"><title>2</title><text x="-3" dy="0.32em" text-anchor="end" fill="var(--gg-axisText, #4d4d4d)" font-size="11.5" font-weight="300">2</text></g><g class="gg-tick" transform="translate(0,488.73)"><title>3</title><text x="-3" dy="0.32em" text-anchor="end" fill="var(--gg-axisText, #4d4d4d)" font-size="11.5" font-weight="300">3</text></g><g class="gg-tick" transform="translate(0,437.82)"><title>4</title><text x="-3" dy="0.32em" text-anchor="end" fill="var(--gg-axisText, #4d4d4d)" font-size="11.5" font-weight="300">4</text></g><g class="gg-tick" transform="translate(0,386.91)"><title>5</title><text x="-3" dy="0.32em" text-anchor="end" fill="var(--gg-axisText, #4d4d4d)" font-size="11.5" font-weight="300">5</text></g><g class="gg-tick" transform="translate(0,336)"><title>6</title><text x="-3" dy="0.32em" text-anchor="end" fill="var(--gg-axisText, #4d4d4d)" font-size="11.5" font-weight="300">6</text></g><g class="gg-tick" transform="translate(0,285.09)"><title>7</title><text x="-3" dy="0.32em" text-anchor="end" fill="var(--gg-axisText, #4d4d4d)" font-size="11.5" font-weight="300">7</text></g><g class="gg-tick" transform="translate(0,234.18)"><title>8</title><text x="-3" dy="0.32em" text-anchor="end" fill="var(--gg-axisText, #4d4d4d)" font-size="11.5" font-weight="300">8</text></g><g class="gg-tick" transform="translate(0,183.27)"><title>9</title><text x="-3" dy="0.32em" text-anchor="end" fill="var(--gg-axisText, #4d4d4d)" font-size="11.5" font-weight="300">9</text></g><g class="gg-tick" transform="translate(0,132.36)"><title>10</title><text x="-3" dy="0.32em" text-anchor="end" fill="var(--gg-axisText, #4d4d4d)" font-size="11.5" font-weight="300">10</text></g><g class="gg-tick" transform="translate(0,81.45)"><title>11</title><text x="-3" dy="0.32em" text-anchor="end" fill="var(--gg-axisText, #4d4d4d)" font-size="11.5" font-weight="300">11</text></g><g class="gg-tick" transform="translate(0,30.55)"><title>12</title><text x="-3" dy="0.32em" text-anchor="end" fill="var(--gg-axisText, #4d4d4d)" font-size="11.5" font-weight="300">12</text></g></g><text class="gg-axis-title" x="606" y="712" text-anchor="middle" fill="var(--gg-ink, #262626)" font-size="9" font-weight="400">dose</text><text class="gg-axis-title" transform="translate(12,344) rotate(-90)" text-anchor="middle" fill="var(--gg-ink, #262626)" font-size="9" font-weight="400">response</text></svg>