<svg xmlns="http://www.w3.org/2000/svg" width="832" height="380" viewBox="0 0 832 380" role="img" aria-label="Crimean deaths by cause, 1854–56" class="gg-plot" font-family="&quot;Roboto Condensed&quot;, &quot;Arial Narrow&quot;, Arial, sans-serif" font-size="12" font-weight="400" text-rendering="optimizeLegibility" shape-rendering="geometricPrecision"><title>Crimean deaths by cause, 1854–56</title><rect class="gg-paper" width="832" height="380" fill="var(--gg-paper, #2a2a2b)"/><text class="gg-title" x="52" y="14.4" font-size="14.4" font-weight="700" fill="var(--gg-ink, #A0A0A3)">Crimean deaths by cause, 1854–56</text><defs><clipPath id="shcdark_generation-area_hc_dark_832x380-gg-clip-0"><rect width="688" height="310"/></clipPath></defs><g class="gg-panel" data-panel="0" transform="translate(52,30)"><rect class="gg-panel-background" width="688" height="310" fill="var(--gg-panel, #2a2a2b)"/><g class="gg-grid" stroke="var(--gg-grid, #707073)" stroke-width="0.5" vector-effect="non-scaling-stroke"><line x1="0" y1="295.91" x2="688" y2="295.91"/><line x1="0" y1="248.94" x2="688" y2="248.94"/><line x1="0" y1="201.97" x2="688" y2="201.97"/><line x1="0" y1="155" x2="688" y2="155"/><line x1="0" y1="108.03" x2="688" y2="108.03"/><line x1="0" y1="61.06" x2="688" y2="61.06"/><line x1="0" y1="14.09" x2="688" y2="14.09"/></g><g class="gg-marks" clip-path="url(#shcdark_generation-area_hc_dark_832x380-gg-clip-0)"><g class="gg-batch gg-areas" data-layer="0"><path d="M31.27 293.94L58.35 293.37L85.76 294.22L112.84 258.43L139.92 215.87L167.33 208.55L194.41 225.74L221.49 178.67L248.89 126.54L275.97 20.31L303.05 65.95L330.46 163.99L357.54 245.04L384.62 248.73L412.03 220.36L439.11 259.63L466.19 253.47L493.59 267.28L520.67 283.93L547.75 277.83L575.16 286.96L602.24 290.06L629.32 293.14L656.73 292.86L656.73 293.77L629.32 294.69L602.24 292.74L575.16 292.9L547.75 291.07L520.67 291.63L493.59 278.44L466.19 283.98L439.11 284.87L412.03 278.51L384.62 289.08L357.54 286.73L330.46 276.79L303.05 259.18L275.97 260.52L248.89 274.84L221.49 258.66L194.41 272L167.33 281.87L139.92 293.02L112.84 293.65L85.76 295.32L58.35 294.83L31.27 294.27Z" fill="#2b908f" stroke="none" opacity="0.9"/><path d="M31.27 294.27L58.35 294.83L85.76 295.32L112.84 293.65L139.92 293.02L167.33 281.87L194.41 272L221.49 258.66L248.89 274.84L275.97 260.52L303.05 259.18L330.46 276.79L357.54 286.73L384.62 289.08L412.03 278.51L439.11 284.87L466.19 283.98L493.59 278.44L520.67 291.63L547.75 291.07L575.16 292.9L602.24 292.74L629.32 294.69L656.73 293.77L656.73 293.77L629.32 294.69L602.24 292.86L575.16 294.08L547.75 293.54L520.67 294.83L493.59 294.73L466.19 294.34L439.11 293.73L412.03 293.65L384.62 292.97L357.54 290.93L330.46 279.8L303.05 263.01L275.97 267.73L248.89 284.64L221.49 285.86L194.41 284.14L167.33 289.4L139.92 293.11L112.84 293.65L85.76 295.32L58.35 294.83L31.27 294.27Z" fill="#90ee7e" stroke="none" opacity="0.9"/><path d="M31.27 294.27L58.35 294.83L85.76 295.32L112.84 293.65L139.92 293.11L167.33 289.4L194.41 284.14L221.49 285.86L248.89 284.64L275.97 267.73L303.05 263.01L330.46 279.8L357.54 290.93L384.62 292.97L412.03 293.65L439.11 293.73L466.19 294.34L493.59 294.73L520.67 294.83L547.75 293.54L575.16 294.08L602.24 292.86L629.32 294.69L656.73 293.77L656.73 295.91L629.32 295.91L602.24 295.91L575.16 295.91L547.75 295.91L520.67 295.91L493.59 295.91L466.19 295.91L439.11 295.91L412.03 295.91L384.62 295.91L357.54 295.91L330.46 295.91L303.05 295.91L275.97 295.91L248.89 295.91L221.49 295.91L194.41 295.91L167.33 295.91L139.92 295.91L112.84 295.91L85.76 295.91L58.35 295.91L31.27 295.91Z" fill="#f45b5b" stroke="none" opacity="0.9"/></g></g></g><g class="gg-axis gg-axis-x" transform="translate(52,340)"><g class="gg-tick" transform="translate(14.96,0)"><title>1854.2</title><line y2="3.67" stroke="var(--gg-tickColor, #A0A0A3)" stroke-width="0.5" vector-effect="non-scaling-stroke"/><text y="6.67" dy="0.71em" text-anchor="middle" fill="var(--gg-axisText, #A0A0A3)" font-size="9.6" font-weight="400">1854.2</text></g><g class="gg-tick" transform="translate(80.21,0)"><title>1854.4</title><line y2="3.67" stroke="var(--gg-tickColor, #A0A0A3)" stroke-width="0.5" vector-effect="non-scaling-stroke"/><text y="6.67" dy="0.71em" text-anchor="middle" fill="var(--gg-axisText, #A0A0A3)" font-size="9.6" font-weight="400">1854.4</text></g><g class="gg-tick" transform="translate(145.47,0)"><title>1854.6</title><line y2="3.67" stroke="var(--gg-tickColor, #A0A0A3)" stroke-width="0.5" vector-effect="non-scaling-stroke"/><text y="6.67" dy="0.71em" text-anchor="middle" fill="var(--gg-axisText, #A0A0A3)" font-size="9.6" font-weight="400">1854.6</text></g><g class="gg-tick" transform="translate(210.72,0)"><title>1854.8</title><line y2="3.67" stroke="var(--gg-tickColor, #A0A0A3)" stroke-width="0.5" vector-effect="non-scaling-stroke"/><text y="6.67" dy="0.71em" text-anchor="middle" fill="var(--gg-axisText, #A0A0A3)" font-size="9.6" font-weight="400">1854.8</text></g><g class="gg-tick" transform="translate(275.97,0)"><title>1855.0</title><line y2="3.67" stroke="var(--gg-tickColor, #A0A0A3)" stroke-width="0.5" vector-effect="non-scaling-stroke"/><text y="6.67" dy="0.71em" text-anchor="middle" fill="var(--gg-axisText, #A0A0A3)" font-size="9.6" font-weight="400">1855.0</text></g><g class="gg-tick" transform="translate(341.23,0)"><title>1855.2</title><line y2="3.67" stroke="var(--gg-tickColor, #A0A0A3)" stroke-width="0.5" vector-effect="non-scaling-stroke"/><text y="6.67" dy="0.71em" text-anchor="middle" fill="var(--gg-axisText, #A0A0A3)" font-size="9.6" font-weight="400">1855.2</text></g><g class="gg-tick" transform="translate(406.48,0)"><title>1855.4</title><line y2="3.67" stroke="var(--gg-tickColor, #A0A0A3)" stroke-width="0.5" vector-effect="non-scaling-stroke"/><text y="6.67" dy="0.71em" text-anchor="middle" fill="var(--gg-axisText, #A0A0A3)" font-size="9.6" font-weight="400">1855.4</text></g><g class="gg-tick" transform="translate(471.73,0)"><title>1855.6</title><line y2="3.67" stroke="var(--gg-tickColor, #A0A0A3)" stroke-width="0.5" vector-effect="non-scaling-stroke"/><text y="6.67" dy="0.71em" text-anchor="middle" fill="var(--gg-axisText, #A0A0A3)" font-size="9.6" font-weight="400">1855.6</text></g><g class="gg-tick" transform="translate(536.99,0)"><title>1855.8</title><line y2="3.67" stroke="var(--gg-tickColor, #A0A0A3)" stroke-width="0.5" vector-effect="non-scaling-stroke"/><text y="6.67" dy="0.71em" text-anchor="middle" fill="var(--gg-axisText, #A0A0A3)" font-size="9.6" font-weight="400">1855.8</text></g><g class="gg-tick" transform="translate(602.24,0)"><title>1856.0</title><line y2="3.67" stroke="var(--gg-tickColor, #A0A0A3)" stroke-width="0.5" vector-effect="non-scaling-stroke"/><text y="6.67" dy="0.71em" text-anchor="middle" fill="var(--gg-axisText, #A0A0A3)" font-size="9.6" font-weight="400">1856.0</text></g><g class="gg-tick" transform="translate(667.49,0)"><title>1856.2</title><line y2="3.67" stroke="var(--gg-tickColor, #A0A0A3)" stroke-width="0.5" vector-effect="non-scaling-stroke"/><text y="6.67" dy="0.71em" text-anchor="middle" fill="var(--gg-axisText, #A0A0A3)" font-size="9.6" font-weight="400">1856.2</text></g></g><g class="gg-axis gg-axis-y" transform="translate(52,30)"><g class="gg-tick" transform="translate(0,295.91)"><title>0</title><line x2="-3.67" stroke="var(--gg-tickColor, #A0A0A3)" stroke-width="0.5" vector-effect="non-scaling-stroke"/><text x="-6.67" dy="0.32em" text-anchor="end" fill="var(--gg-axisText, #A0A0A3)" font-size="9.6" font-weight="400">0</text></g><g class="gg-tick" transform="translate(0,248.94)"><title>200</title><line x2="-3.67" stroke="var(--gg-tickColor, #A0A0A3)" stroke-width="0.5" vector-effect="non-scaling-stroke"/><text x="-6.67" dy="0.32em" text-anchor="end" fill="var(--gg-axisText, #A0A0A3)" font-size="9.6" font-weight="400">200</text></g><g class="gg-tick" transform="translate(0,201.97)"><title>400</title><line x2="-3.67" stroke="var(--gg-tickColor, #A0A0A3)" stroke-width="0.5" vector-effect="non-scaling-stroke"/><text x="-6.67" dy="0.32em" text-anchor="end" fill="var(--gg-axisText, #A0A0A3)" font-size="9.6" font-weight="400">400</text></g><g class="gg-tick" transform="translate(0,155)"><title>600</title><line x2="-3.67" stroke="var(--gg-tickColor, #A0A0A3)" stroke-width="0.5" vector-effect="non-scaling-stroke"/><text x="-6.67" dy="0.32em" text-anchor="end" fill="var(--gg-axisText, #A0A0A3)" font-size="9.6" font-weight="400">600</text></g><g class="gg-tick" transform="translate(0,108.03)"><title>800</title><line x2="-3.67" stroke="var(--gg-tickColor, #A0A0A3)" stroke-width="0.5" vector-effect="non-scaling-stroke"/><text x="-6.67" dy="0.32em" text-anchor="end" fill="var(--gg-axisText, #A0A0A3)" font-size="9.6" font-weight="400">800</text></g><g class="gg-tick" transform="translate(0,61.06)"><title>1000</title><line x2="-3.67" stroke="var(--gg-tickColor, #A0A0A3)" stroke-width="0.5" vector-effect="non-scaling-stroke"/><text x="-6.67" dy="0.32em" text-anchor="end" fill="var(--gg-axisText, #A0A0A3)" font-size="9.6" font-weight="400">1000</text></g><g class="gg-tick" transform="translate(0,14.09)"><title>1200</title><line x2="-3.67" stroke="var(--gg-tickColor, #A0A0A3)" stroke-width="0.5" vector-effect="non-scaling-stroke"/><text x="-6.67" dy="0.32em" text-anchor="end" fill="var(--gg-axisText, #A0A0A3)" font-size="9.6" font-weight="400">1200</text></g></g><text class="gg-axis-title" x="396" y="372" text-anchor="middle" fill="var(--gg-ink, #A0A0A3)" font-size="12" font-weight="400">Year</text><text class="gg-axis-title" transform="translate(12,185) rotate(-90)" text-anchor="middle" fill="var(--gg-ink, #A0A0A3)" font-size="12" font-weight="400">Deaths per 1,000 per year</text><g class="gg-legend gg-legend-fill gg-legend-right gg-legend-vertical" transform="translate(770,30)"><text class="gg-legend-title" x="4" y="11" font-size="11" font-weight="bold" fill="var(--gg-ink, #A0A0A3)">Cause</text><rect class="gg-legend-swatch" x="4" y="25" width="10" height="10" fill="#2b908f"/><text class="gg-legend-label" x="20" y="30" dy="0.32em" font-size="9.6" fill="var(--gg-ink, #A0A0A3)">Disease</text><rect class="gg-legend-swatch" x="4" y="49" width="10" height="10" fill="#90ee7e"/><text class="gg-legend-label" x="20" y="54" dy="0.32em" font-size="9.6" fill="var(--gg-ink, #A0A0A3)">Wounds</text><rect class="gg-legend-swatch" x="4" y="73" width="10" height="10" fill="#f45b5b"/><text class="gg-legend-label" x="20" y="78" dy="0.32em" font-size="9.6" fill="var(--gg-ink, #A0A0A3)">Other</text></g></svg>