<svg xmlns="http://www.w3.org/2000/svg" width="832" height="380" viewBox="0 0 832 380" role="img" aria-label="Wheat price and a mechanic's weekly wage" class="gg-plot" font-family="&quot;Roboto Condensed&quot;, &quot;Arial Narrow&quot;, Arial, sans-serif" font-size="12" font-weight="400" text-rendering="optimizeLegibility" shape-rendering="geometricPrecision"><title>Wheat price and a mechanic's weekly wage</title><text class="gg-title" x="48" y="14.4" font-size="14.4" font-weight="700" fill="var(--gg-ink, #586e75)">Wheat price and a mechanic's weekly wage</text><text class="gg-subtitle" x="48" y="29.4" font-size="12" font-weight="300" fill="var(--gg-ink, #586e75)">One quarter of wheat (~8 bushels) vs a week's pay — both in shillings</text><defs><clipPath id="ssolarizeddark_ridership-line_solarized_832x380-gg-clip-0"><rect width="648" height="290"/></clipPath></defs><g class="gg-panel" data-panel="0" transform="translate(48,46)"><rect class="gg-panel-background" width="648" height="290" fill="var(--gg-panel, #002b36)"/><g class="gg-grid" stroke="var(--gg-grid, #073642)" stroke-width="0.5" vector-effect="non-scaling-stroke"><line x1="8.42" y1="0" x2="8.42" y2="290"/><line x1="113.61" y1="0" x2="113.61" y2="290"/><line x1="218.81" y1="0" x2="218.81" y2="290"/><line x1="324" y1="0" x2="324" y2="290"/><line x1="429.19" y1="0" x2="429.19" y2="290"/><line x1="534.39" y1="0" x2="534.39" y2="290"/><line x1="639.58" y1="0" x2="639.58" y2="290"/><line x1="0" y1="276.82" x2="648" y2="276.82"/><line x1="0" y1="224.09" x2="648" y2="224.09"/><line x1="0" y1="171.36" x2="648" y2="171.36"/><line x1="0" y1="118.64" x2="648" y2="118.64"/><line x1="0" y1="65.91" x2="648" y2="65.91"/><line x1="0" y1="13.18" x2="648" y2="13.18"/></g><g class="gg-marks" clip-path="url(#ssolarizeddark_ridership-line_solarized_832x380-gg-clip-0)"><g class="gg-batch gg-paths" data-layer="0"><path d="M39.97 168.73L50.49 158.18L61.01 166.09L71.53 147.64L82.05 167.41L92.57 152.91L103.09 108.09L113.61 205.64L124.13 189.82L134.65 192.45L145.17 189.82L155.69 184.55L166.21 189.82L176.73 158.18L187.25 189.82L197.77 174L208.29 137.09L218.81 166.09L229.32 170.05L239.84 154.23L250.36 192.45L260.88 179.27L271.4 163.45L281.92 184.55L292.44 205.64L302.96 171.36L313.48 145L324 197.73L334.52 192.45L345.04 160.82L355.56 189.82L366.08 200.36L376.6 174L387.12 208.27L397.64 192.45L408.16 205.64L418.68 204.32L429.19 195.09L439.71 183.23L450.23 195.09L460.75 163.45L471.27 152.91L481.79 160.82L492.31 155.55L502.83 166.09L513.35 151.59L523.87 76.45L534.39 68.55L544.91 63.27L555.43 15.82L565.95 71.18L576.47 134.45L578.57 134.45" fill="none" stroke="#268bd2" stroke-width="2" stroke-linejoin="round" stroke-linecap="round"/><path d="M39.97 263.64L50.49 263.5L61.01 263.43L71.53 263.32L82.05 263.24L92.57 262.98L103.09 262.21L113.61 262.03L124.13 261.82L134.65 261.58L145.17 261.16L155.69 260.97L166.21 260.68L176.73 260.42L187.25 260.21L197.77 260.02L208.29 259.81L218.81 259.68L229.32 259.42L239.84 259.02L250.36 258.89L260.88 258.63L271.4 258.36L281.92 257.57L292.44 256.78L302.96 255.73L313.48 254.41L324 253.09L334.52 250.45L345.04 247.82L355.56 245.84L366.08 243.86L376.6 242.55L387.12 241.75L397.64 240.96L408.16 239.91L418.68 238.59L429.19 237.27L439.71 235.43L450.23 233.32L460.75 230.42L471.27 228.05L481.79 225.41L492.31 221.45L502.83 216.18L513.35 209.59L523.87 204.32L534.39 201.68L544.91 199.05L555.43 197.73" fill="none" stroke="#b58900" stroke-width="2" stroke-linejoin="round" stroke-linecap="round"/></g><g class="gg-batch gg-points" data-layer="1"><circle class="gg-shape-circle" cx="39.97" cy="168.73" r="2.8" fill="#268bd2"/><circle class="gg-shape-circle" cx="39.97" cy="263.64" r="2.8" fill="#b58900"/><circle class="gg-shape-circle" cx="50.49" cy="158.18" r="2.8" fill="#268bd2"/><circle class="gg-shape-circle" cx="50.49" cy="263.5" r="2.8" fill="#b58900"/><circle class="gg-shape-circle" cx="61.01" cy="166.09" r="2.8" fill="#268bd2"/><circle class="gg-shape-circle" cx="61.01" cy="263.43" r="2.8" fill="#b58900"/><circle class="gg-shape-circle" cx="71.53" cy="147.64" r="2.8" fill="#268bd2"/><circle class="gg-shape-circle" cx="71.53" cy="263.32" r="2.8" fill="#b58900"/><circle class="gg-shape-circle" cx="82.05" cy="167.41" r="2.8" fill="#268bd2"/><circle class="gg-shape-circle" cx="82.05" cy="263.24" r="2.8" fill="#b58900"/><circle class="gg-shape-circle" cx="92.57" cy="152.91" r="2.8" fill="#268bd2"/><circle class="gg-shape-circle" cx="92.57" cy="262.98" r="2.8" fill="#b58900"/><circle class="gg-shape-circle" cx="103.09" cy="108.09" r="2.8" fill="#268bd2"/><circle class="gg-shape-circle" cx="103.09" cy="262.21" r="2.8" fill="#b58900"/><circle class="gg-shape-circle" cx="113.61" cy="205.64" r="2.8" fill="#268bd2"/><circle class="gg-shape-circle" cx="113.61" cy="262.03" r="2.8" fill="#b58900"/><circle class="gg-shape-circle" cx="124.13" cy="189.82" r="2.8" fill="#268bd2"/><circle class="gg-shape-circle" cx="124.13" cy="261.82" r="2.8" fill="#b58900"/><circle class="gg-shape-circle" cx="134.65" cy="192.45" r="2.8" fill="#268bd2"/><circle class="gg-shape-circle" cx="134.65" cy="261.58" r="2.8" fill="#b58900"/><circle class="gg-shape-circle" cx="145.17" cy="189.82" r="2.8" fill="#268bd2"/><circle class="gg-shape-circle" cx="145.17" cy="261.16" r="2.8" fill="#b58900"/><circle class="gg-shape-circle" cx="155.69" cy="184.55" r="2.8" fill="#268bd2"/><circle class="gg-shape-circle" cx="155.69" cy="260.97" r="2.8" fill="#b58900"/><circle class="gg-shape-circle" cx="166.21" cy="189.82" r="2.8" fill="#268bd2"/><circle class="gg-shape-circle" cx="166.21" cy="260.68" r="2.8" fill="#b58900"/><circle class="gg-shape-circle" cx="176.73" cy="158.18" r="2.8" fill="#268bd2"/><circle class="gg-shape-circle" cx="176.73" cy="260.42" r="2.8" fill="#b58900"/><circle class="gg-shape-circle" cx="187.25" cy="189.82" r="2.8" fill="#268bd2"/><circle class="gg-shape-circle" cx="187.25" cy="260.21" r="2.8" fill="#b58900"/><circle class="gg-shape-circle" cx="197.77" cy="174" r="2.8" fill="#268bd2"/><circle class="gg-shape-circle" cx="197.77" cy="260.02" r="2.8" fill="#b58900"/><circle class="gg-shape-circle" cx="208.29" cy="137.09" r="2.8" fill="#268bd2"/><circle class="gg-shape-circle" cx="208.29" cy="259.81" r="2.8" fill="#b58900"/><circle class="gg-shape-circle" cx="218.81" cy="166.09" r="2.8" fill="#268bd2"/><circle class="gg-shape-circle" cx="218.81" cy="259.68" r="2.8" fill="#b58900"/><circle class="gg-shape-circle" cx="229.32" cy="170.05" r="2.8" fill="#268bd2"/><circle class="gg-shape-circle" cx="229.32" cy="259.42" r="2.8" fill="#b58900"/><circle class="gg-shape-circle" cx="239.84" cy="154.23" r="2.8" fill="#268bd2"/><circle class="gg-shape-circle" cx="239.84" cy="259.02" r="2.8" fill="#b58900"/><circle class="gg-shape-circle" cx="250.36" cy="192.45" r="2.8" fill="#268bd2"/><circle class="gg-shape-circle" cx="250.36" cy="258.89" r="2.8" fill="#b58900"/><circle class="gg-shape-circle" cx="260.88" cy="179.27" r="2.8" fill="#268bd2"/><circle class="gg-shape-circle" cx="260.88" cy="258.63" r="2.8" fill="#b58900"/><circle class="gg-shape-circle" cx="271.4" cy="163.45" r="2.8" fill="#268bd2"/><circle class="gg-shape-circle" cx="271.4" cy="258.36" r="2.8" fill="#b58900"/><circle class="gg-shape-circle" cx="281.92" cy="184.55" r="2.8" fill="#268bd2"/><circle class="gg-shape-circle" cx="281.92" cy="257.57" r="2.8" fill="#b58900"/><circle class="gg-shape-circle" cx="292.44" cy="205.64" r="2.8" fill="#268bd2"/><circle class="gg-shape-circle" cx="292.44" cy="256.78" r="2.8" fill="#b58900"/><circle class="gg-shape-circle" cx="302.96" cy="171.36" r="2.8" fill="#268bd2"/><circle class="gg-shape-circle" cx="302.96" cy="255.73" r="2.8" fill="#b58900"/><circle class="gg-shape-circle" cx="313.48" cy="145" r="2.8" fill="#268bd2"/><circle class="gg-shape-circle" cx="313.48" cy="254.41" r="2.8" fill="#b58900"/><circle class="gg-shape-circle" cx="324" cy="197.73" r="2.8" fill="#268bd2"/><circle class="gg-shape-circle" cx="324" cy="253.09" r="2.8" fill="#b58900"/><circle class="gg-shape-circle" cx="334.52" cy="192.45" r="2.8" fill="#268bd2"/><circle class="gg-shape-circle" cx="334.52" cy="250.45" r="2.8" fill="#b58900"/><circle class="gg-shape-circle" cx="345.04" cy="160.82" r="2.8" fill="#268bd2"/><circle class="gg-shape-circle" cx="345.04" cy="247.82" r="2.8" fill="#b58900"/><circle class="gg-shape-circle" cx="355.56" cy="189.82" r="2.8" fill="#268bd2"/><circle class="gg-shape-circle" cx="355.56" cy="245.84" r="2.8" fill="#b58900"/><circle class="gg-shape-circle" cx="366.08" cy="200.36" r="2.8" fill="#268bd2"/><circle class="gg-shape-circle" cx="366.08" cy="243.86" r="2.8" fill="#b58900"/><circle class="gg-shape-circle" cx="376.6" cy="174" r="2.8" fill="#268bd2"/><circle class="gg-shape-circle" cx="376.6" cy="242.55" r="2.8" fill="#b58900"/><circle class="gg-shape-circle" cx="387.12" cy="208.27" r="2.8" fill="#268bd2"/><circle class="gg-shape-circle" cx="387.12" cy="241.75" r="2.8" fill="#b58900"/><circle class="gg-shape-circle" cx="397.64" cy="192.45" r="2.8" fill="#268bd2"/><circle class="gg-shape-circle" cx="397.64" cy="240.96" r="2.8" fill="#b58900"/><circle class="gg-shape-circle" cx="408.16" cy="205.64" r="2.8" fill="#268bd2"/><circle class="gg-shape-circle" cx="408.16" cy="239.91" r="2.8" fill="#b58900"/><circle class="gg-shape-circle" cx="418.68" cy="204.32" r="2.8" fill="#268bd2"/><circle class="gg-shape-circle" cx="418.68" cy="238.59" r="2.8" fill="#b58900"/><circle class="gg-shape-circle" cx="429.19" cy="195.09" r="2.8" fill="#268bd2"/><circle class="gg-shape-circle" cx="429.19" cy="237.27" r="2.8" fill="#b58900"/><circle class="gg-shape-circle" cx="439.71" cy="183.23" r="2.8" fill="#268bd2"/><circle class="gg-shape-circle" cx="439.71" cy="235.43" r="2.8" fill="#b58900"/><circle class="gg-shape-circle" cx="450.23" cy="195.09" r="2.8" fill="#268bd2"/><circle class="gg-shape-circle" cx="450.23" cy="233.32" r="2.8" fill="#b58900"/><circle class="gg-shape-circle" cx="460.75" cy="163.45" r="2.8" fill="#268bd2"/><circle class="gg-shape-circle" cx="460.75" cy="230.42" r="2.8" fill="#b58900"/><circle class="gg-shape-circle" cx="471.27" cy="152.91" r="2.8" fill="#268bd2"/><circle class="gg-shape-circle" cx="471.27" cy="228.05" r="2.8" fill="#b58900"/><circle class="gg-shape-circle" cx="481.79" cy="160.82" r="2.8" fill="#268bd2"/><circle class="gg-shape-circle" cx="481.79" cy="225.41" r="2.8" fill="#b58900"/><circle class="gg-shape-circle" cx="492.31" cy="155.55" r="2.8" fill="#268bd2"/><circle class="gg-shape-circle" cx="492.31" cy="221.45" r="2.8" fill="#b58900"/><circle class="gg-shape-circle" cx="502.83" cy="166.09" r="2.8" fill="#268bd2"/><circle class="gg-shape-circle" cx="502.83" cy="216.18" r="2.8" fill="#b58900"/><circle class="gg-shape-circle" cx="513.35" cy="151.59" r="2.8" fill="#268bd2"/><circle class="gg-shape-circle" cx="513.35" cy="209.59" r="2.8" fill="#b58900"/><circle class="gg-shape-circle" cx="523.87" cy="76.45" r="2.8" fill="#268bd2"/><circle class="gg-shape-circle" cx="523.87" cy="204.32" r="2.8" fill="#b58900"/><circle class="gg-shape-circle" cx="534.39" cy="68.55" r="2.8" fill="#268bd2"/><circle class="gg-shape-circle" cx="534.39" cy="201.68" r="2.8" fill="#b58900"/><circle class="gg-shape-circle" cx="544.91" cy="63.27" r="2.8" fill="#268bd2"/><circle class="gg-shape-circle" cx="544.91" cy="199.05" r="2.8" fill="#b58900"/><circle class="gg-shape-circle" cx="555.43" cy="15.82" r="2.8" fill="#268bd2"/><circle class="gg-shape-circle" cx="555.43" cy="197.73" r="2.8" fill="#b58900"/><circle class="gg-shape-circle" cx="565.95" cy="71.18" r="2.8" fill="#268bd2"/><circle class="gg-shape-circle" cx="576.47" cy="134.45" r="2.8" fill="#268bd2"/><circle class="gg-shape-circle" cx="578.57" cy="134.45" r="2.8" fill="#268bd2"/></g></g><rect class="gg-panel-border" width="648" height="290" fill="none" stroke="var(--gg-panelBorder, #586e75)" stroke-width="0.5" vector-effect="non-scaling-stroke"/></g><g class="gg-axis gg-axis-x" transform="translate(48,336)"><g class="gg-tick" transform="translate(8.42,0)"><title>1550</title><line y2="3.67" stroke="var(--gg-tickColor, #586e75)" stroke-width="0.5" vector-effect="non-scaling-stroke"/><text y="6.67" dy="0.71em" text-anchor="middle" fill="var(--gg-axisText, #586e75)" font-size="12" font-weight="400">1550</text></g><g class="gg-tick" transform="translate(113.61,0)"><title>1600</title><line y2="3.67" stroke="var(--gg-tickColor, #586e75)" stroke-width="0.5" vector-effect="non-scaling-stroke"/><text y="6.67" dy="0.71em" text-anchor="middle" fill="var(--gg-axisText, #586e75)" font-size="12" font-weight="400">1600</text></g><g class="gg-tick" transform="translate(218.81,0)"><title>1650</title><line y2="3.67" stroke="var(--gg-tickColor, #586e75)" stroke-width="0.5" vector-effect="non-scaling-stroke"/><text y="6.67" dy="0.71em" text-anchor="middle" fill="var(--gg-axisText, #586e75)" font-size="12" font-weight="400">1650</text></g><g class="gg-tick" transform="translate(324,0)"><title>1700</title><line y2="3.67" stroke="var(--gg-tickColor, #586e75)" stroke-width="0.5" vector-effect="non-scaling-stroke"/><text y="6.67" dy="0.71em" text-anchor="middle" fill="var(--gg-axisText, #586e75)" font-size="12" font-weight="400">1700</text></g><g class="gg-tick" transform="translate(429.19,0)"><title>1750</title><line y2="3.67" stroke="var(--gg-tickColor, #586e75)" stroke-width="0.5" vector-effect="non-scaling-stroke"/><text y="6.67" dy="0.71em" text-anchor="middle" fill="var(--gg-axisText, #586e75)" font-size="12" font-weight="400">1750</text></g><g class="gg-tick" transform="translate(534.39,0)"><title>1800</title><line y2="3.67" stroke="var(--gg-tickColor, #586e75)" stroke-width="0.5" vector-effect="non-scaling-stroke"/><text y="6.67" dy="0.71em" text-anchor="middle" fill="var(--gg-axisText, #586e75)" font-size="12" font-weight="400">1800</text></g><g class="gg-tick" transform="translate(639.58,0)"><title>1850</title><line y2="3.67" stroke="var(--gg-tickColor, #586e75)" stroke-width="0.5" vector-effect="non-scaling-stroke"/><text y="6.67" dy="0.71em" text-anchor="middle" fill="var(--gg-axisText, #586e75)" font-size="12" font-weight="400">1850</text></g></g><g class="gg-axis gg-axis-y" transform="translate(48,46)"><g class="gg-tick" transform="translate(0,276.82)"><title>0</title><line x2="-3.67" stroke="var(--gg-tickColor, #586e75)" stroke-width="0.5" vector-effect="non-scaling-stroke"/><text x="-6.67" dy="0.32em" text-anchor="end" fill="var(--gg-axisText, #586e75)" font-size="12" font-weight="400">0</text></g><g class="gg-tick" transform="translate(0,224.09)"><title>20</title><line x2="-3.67" stroke="var(--gg-tickColor, #586e75)" stroke-width="0.5" vector-effect="non-scaling-stroke"/><text x="-6.67" dy="0.32em" text-anchor="end" fill="var(--gg-axisText, #586e75)" font-size="12" font-weight="400">20</text></g><g class="gg-tick" transform="translate(0,171.36)"><title>40</title><line x2="-3.67" stroke="var(--gg-tickColor, #586e75)" stroke-width="0.5" vector-effect="non-scaling-stroke"/><text x="-6.67" dy="0.32em" text-anchor="end" fill="var(--gg-axisText, #586e75)" font-size="12" font-weight="400">40</text></g><g class="gg-tick" transform="translate(0,118.64)"><title>60</title><line x2="-3.67" stroke="var(--gg-tickColor, #586e75)" stroke-width="0.5" vector-effect="non-scaling-stroke"/><text x="-6.67" dy="0.32em" text-anchor="end" fill="var(--gg-axisText, #586e75)" font-size="12" font-weight="400">60</text></g><g class="gg-tick" transform="translate(0,65.91)"><title>80</title><line x2="-3.67" stroke="var(--gg-tickColor, #586e75)" stroke-width="0.5" vector-effect="non-scaling-stroke"/><text x="-6.67" dy="0.32em" text-anchor="end" fill="var(--gg-axisText, #586e75)" font-size="12" font-weight="400">80</text></g><g class="gg-tick" transform="translate(0,13.18)"><title>100</title><line x2="-3.67" stroke="var(--gg-tickColor, #586e75)" stroke-width="0.5" vector-effect="non-scaling-stroke"/><text x="-6.67" dy="0.32em" text-anchor="end" fill="var(--gg-axisText, #586e75)" font-size="12" font-weight="400">100</text></g></g><text class="gg-axis-title" x="372" y="368" text-anchor="middle" fill="var(--gg-ink, #586e75)" font-size="12" font-weight="400">Year</text><text class="gg-axis-title" transform="translate(11.31,191) rotate(-90)" text-anchor="middle" fill="var(--gg-ink, #586e75)" font-size="12" font-weight="400">Shillings</text><g class="gg-legend gg-legend-color gg-legend-right gg-legend-vertical" transform="translate(723,46)"><text class="gg-legend-title" x="4" y="11" font-size="11" font-weight="bold" fill="var(--gg-ink, #586e75)">Series</text><g class="gg-legend-key"><circle class="gg-shape-circle" cx="9" cy="30" r="5" fill="#268bd2"/></g><text class="gg-legend-label" x="20" y="30" dy="0.32em" font-size="12" fill="var(--gg-ink, #586e75)">Wheat / quarter</text><g class="gg-legend-key"><circle class="gg-shape-circle" cx="9" cy="54" r="5" fill="#b58900"/></g><text class="gg-legend-label" x="20" y="54" dy="0.32em" font-size="12" fill="var(--gg-ink, #586e75)">Wage / week</text></g></svg>