<svg xmlns="http://www.w3.org/2000/svg" width="720" height="480" viewBox="0 0 720 480" role="img" aria-label="Matched theme reference" class="gg-plot" font-family="&quot;Roboto Condensed&quot;, &quot;Arial Narrow&quot;, Arial, sans-serif" font-size="11.5" font-weight="300" text-rendering="optimizeLegibility" shape-rendering="geometricPrecision"><title>Matched theme reference</title><style>
@font-face{font-family:"Roboto Condensed";src:url("../../../packages/svelte/src/lib/fonts/RobotoCondensed-Light.ttf") format("truetype");font-weight:300}
@font-face{font-family:"Roboto Condensed";src:url("../../../packages/svelte/src/lib/fonts/RobotoCondensed-Regular.ttf") format("truetype");font-weight:400}
@font-face{font-family:"Roboto Condensed";src:url("../../../packages/svelte/src/lib/fonts/RobotoCondensed-Bold.ttf") format("truetype");font-weight:700}
</style><rect class="gg-paper" width="720" height="480" fill="var(--gg-paper, #d5e4eb)"/><text class="gg-title" x="40" y="18" font-size="18" font-weight="700" fill="var(--gg-ink, #014d64)">Matched theme reference</text><text class="gg-subtitle" x="40" y="34" font-size="13" font-weight="300" fill="var(--gg-ink, #014d64)">Same data, domains, breaks, colors, and logical viewport</text><defs><clipPath id="gg-clip-0"><rect width="596" height="390"/></clipPath></defs><g class="gg-panel" data-panel="0" transform="translate(40,50)"><rect class="gg-panel-background" width="596" height="390" fill="var(--gg-panel, #d5e4eb)"/><g class="gg-grid" stroke="var(--gg-grid, #ffffff)" stroke-width="0.5" vector-effect="non-scaling-stroke"><line x1="85.14" y1="0" x2="85.14" y2="390"/><line x1="170.29" y1="0" x2="170.29" y2="390"/><line x1="255.43" y1="0" x2="255.43" y2="390"/><line x1="340.57" y1="0" x2="340.57" y2="390"/><line x1="425.71" y1="0" x2="425.71" y2="390"/><line x1="510.86" y1="0" x2="510.86" y2="390"/><line x1="0" y1="390" x2="596" y2="390"/><line x1="0" y1="312" x2="596" y2="312"/><line x1="0" y1="234" x2="596" y2="234"/><line x1="0" y1="156" x2="596" y2="156"/><line x1="0" y1="78" x2="596" y2="78"/><line x1="0" y1="0" x2="596" y2="0"/></g><g class="gg-marks" clip-path="url(#gg-clip-0)"><g class="gg-batch gg-paths" data-layer="0"><path d="M85.14 304.2L170.29 269.1L255.43 206.7L340.57 179.4L425.71 109.2L510.86 74.1" fill="none" stroke="#5da5da" stroke-width="1.2" stroke-linejoin="round" stroke-linecap="round"/><path d="M85.14 97.5L170.29 124.8L255.43 148.2L340.57 191.1L425.71 218.4L510.86 261.3" fill="none" stroke="#f17cb0" stroke-width="1.2" stroke-linejoin="round" stroke-linecap="round"/><path d="M85.14 230.1L170.29 202.8L255.43 183.3L340.57 140.4L425.71 152.1L510.86 117" fill="none" stroke="#60bd68" stroke-width="1.2" stroke-linejoin="round" stroke-linecap="round"/></g><g class="gg-batch gg-points" data-layer="1"><circle cx="85.14" cy="304.2" r="3" fill="#5da5da"/><circle cx="170.29" cy="269.1" r="3" fill="#5da5da"/><circle cx="255.43" cy="206.7" r="3" fill="#5da5da"/><circle cx="340.57" cy="179.4" r="3" fill="#5da5da"/><circle cx="425.71" cy="109.2" r="3" fill="#5da5da"/><circle cx="510.86" cy="74.1" r="3" fill="#5da5da"/><circle cx="85.14" cy="97.5" r="3" fill="#f17cb0"/><circle cx="170.29" cy="124.8" r="3" fill="#f17cb0"/><circle cx="255.43" cy="148.2" r="3" fill="#f17cb0"/><circle cx="340.57" cy="191.1" r="3" fill="#f17cb0"/><circle cx="425.71" cy="218.4" r="3" fill="#f17cb0"/><circle cx="510.86" cy="261.3" r="3" fill="#f17cb0"/><circle cx="85.14" cy="230.1" r="3" fill="#60bd68"/><circle cx="170.29" cy="202.8" r="3" fill="#60bd68"/><circle cx="255.43" cy="183.3" r="3" fill="#60bd68"/><circle cx="340.57" cy="140.4" r="3" fill="#60bd68"/><circle cx="425.71" cy="152.1" r="3" fill="#60bd68"/><circle cx="510.86" cy="117" r="3" fill="#60bd68"/></g></g></g><g class="gg-axis gg-axis-x" transform="translate(40,440)"><g class="gg-tick" transform="translate(85.14,0)"><line y2="4" stroke="var(--gg-tickColor, #6794a7)" stroke-width="0.5" vector-effect="non-scaling-stroke"/><text y="7" dy="0.71em" text-anchor="middle" fill="var(--gg-axisText, #014d64)" font-size="11.5" font-weight="300">1</text></g><g class="gg-tick" transform="translate(170.29,0)"><line y2="4" stroke="var(--gg-tickColor, #6794a7)" stroke-width="0.5" vector-effect="non-scaling-stroke"/><text y="7" dy="0.71em" text-anchor="middle" fill="var(--gg-axisText, #014d64)" font-size="11.5" font-weight="300">2</text></g><g class="gg-tick" transform="translate(255.43,0)"><line y2="4" stroke="var(--gg-tickColor, #6794a7)" stroke-width="0.5" vector-effect="non-scaling-stroke"/><text y="7" dy="0.71em" text-anchor="middle" fill="var(--gg-axisText, #014d64)" font-size="11.5" font-weight="300">3</text></g><g class="gg-tick" transform="translate(340.57,0)"><line y2="4" stroke="var(--gg-tickColor, #6794a7)" stroke-width="0.5" vector-effect="non-scaling-stroke"/><text y="7" dy="0.71em" text-anchor="middle" fill="var(--gg-axisText, #014d64)" font-size="11.5" font-weight="300">4</text></g><g class="gg-tick" transform="translate(425.71,0)"><line y2="4" stroke="var(--gg-tickColor, #6794a7)" stroke-width="0.5" vector-effect="non-scaling-stroke"/><text y="7" dy="0.71em" text-anchor="middle" fill="var(--gg-axisText, #014d64)" font-size="11.5" font-weight="300">5</text></g><g class="gg-tick" transform="translate(510.86,0)"><line y2="4" stroke="var(--gg-tickColor, #6794a7)" stroke-width="0.5" vector-effect="non-scaling-stroke"/><text y="7" dy="0.71em" text-anchor="middle" fill="var(--gg-axisText, #014d64)" font-size="11.5" font-weight="300">6</text></g></g><g class="gg-axis gg-axis-y" transform="translate(40,50)"><g class="gg-tick" transform="translate(0,390)"><text x="-3" dy="0.32em" text-anchor="end" fill="var(--gg-axisText, #014d64)" font-size="11.5" font-weight="300">0</text></g><g class="gg-tick" transform="translate(0,312)"><text x="-3" dy="0.32em" text-anchor="end" fill="var(--gg-axisText, #014d64)" font-size="11.5" font-weight="300">2</text></g><g class="gg-tick" transform="translate(0,234)"><text x="-3" dy="0.32em" text-anchor="end" fill="var(--gg-axisText, #014d64)" font-size="11.5" font-weight="300">4</text></g><g class="gg-tick" transform="translate(0,156)"><text x="-3" dy="0.32em" text-anchor="end" fill="var(--gg-axisText, #014d64)" font-size="11.5" font-weight="300">6</text></g><g class="gg-tick" transform="translate(0,78)"><text x="-3" dy="0.32em" text-anchor="end" fill="var(--gg-axisText, #014d64)" font-size="11.5" font-weight="300">8</text></g><g class="gg-tick" transform="translate(0,0)"><text x="-3" dy="0.32em" text-anchor="end" fill="var(--gg-axisText, #014d64)" font-size="11.5" font-weight="300">10</text></g></g><text class="gg-axis-title" x="338" y="472" text-anchor="middle" fill="var(--gg-ink, #014d64)" font-size="9" font-weight="400">Measurement</text><text class="gg-axis-title" transform="translate(12,245) rotate(-90)" text-anchor="middle" fill="var(--gg-ink, #014d64)" font-size="9" font-weight="400">Value</text><g class="gg-legend gg-legend-color" transform="translate(654,50)"><text class="gg-legend-title" x="4" y="11" font-weight="bold" fill="var(--gg-ink, #014d64)">Series</text><rect class="gg-legend-swatch" x="4" y="25" width="10" height="10" fill="#5da5da"/><text class="gg-legend-label" x="20" y="30" dy="0.32em" fill="var(--gg-ink, #014d64)">Alpha</text><rect class="gg-legend-swatch" x="4" y="49" width="10" height="10" fill="#f17cb0"/><text class="gg-legend-label" x="20" y="54" dy="0.32em" fill="var(--gg-ink, #014d64)">Beta</text><rect class="gg-legend-swatch" x="4" y="73" width="10" height="10" fill="#60bd68"/><text class="gg-legend-label" x="20" y="78" dy="0.32em" fill="var(--gg-ink, #014d64)">Gamma</text></g></svg>