<svg xmlns="http://www.w3.org/2000/svg" width="720" height="480" viewBox="0 0 720 480" role="img" aria-label="Matched theme reference" class="gg-plot" font-family="&quot;Roboto Condensed&quot;, &quot;Arial Narrow&quot;, Arial, sans-serif" font-size="11" font-weight="400" text-rendering="optimizeLegibility" shape-rendering="geometricPrecision"><title>Matched theme reference</title><style>
@font-face{font-family:"Roboto Condensed";src:url("../../../packages/svelte/src/lib/fonts/RobotoCondensed-Light.ttf") format("truetype");font-weight:300}
@font-face{font-family:"Roboto Condensed";src:url("../../../packages/svelte/src/lib/fonts/RobotoCondensed-Regular.ttf") format("truetype");font-weight:400}
@font-face{font-family:"Roboto Condensed";src:url("../../../packages/svelte/src/lib/fonts/RobotoCondensed-Bold.ttf") format("truetype");font-weight:700}
</style><rect class="gg-paper" width="720" height="480" fill="var(--gg-paper, #ffffff)"/><text class="gg-title" x="40" y="13.2" font-size="13.2" font-weight="700" fill="var(--gg-ink, #333333)">Matched theme reference</text><text class="gg-subtitle" x="40" y="27.2" font-size="11" font-weight="300" fill="var(--gg-ink, #333333)">Same data, domains, breaks, colors, and logical viewport</text><defs><clipPath id="gg-clip-0"><rect width="596" height="394"/></clipPath></defs><g class="gg-panel" data-panel="0" transform="translate(40,46)"><rect class="gg-panel-background" width="596" height="394" fill="var(--gg-panel, #ebebeb)"/><g class="gg-grid" stroke="var(--gg-grid, #ffffff)" stroke-width="0.5" vector-effect="non-scaling-stroke"><line x1="85.14" y1="0" x2="85.14" y2="394"/><line x1="170.29" y1="0" x2="170.29" y2="394"/><line x1="255.43" y1="0" x2="255.43" y2="394"/><line x1="340.57" y1="0" x2="340.57" y2="394"/><line x1="425.71" y1="0" x2="425.71" y2="394"/><line x1="510.86" y1="0" x2="510.86" y2="394"/><line x1="0" y1="394" x2="596" y2="394"/><line x1="0" y1="315.2" x2="596" y2="315.2"/><line x1="0" y1="236.4" x2="596" y2="236.4"/><line x1="0" y1="157.6" x2="596" y2="157.6"/><line x1="0" y1="78.8" x2="596" y2="78.8"/><line x1="0" y1="0" x2="596" y2="0"/></g><g class="gg-marks" clip-path="url(#gg-clip-0)"><g class="gg-batch gg-paths" data-layer="0"><path d="M85.14 307.32L170.29 271.86L255.43 208.82L340.57 181.24L425.71 110.32L510.86 74.86" fill="none" stroke="#5da5da" stroke-width="1.2" stroke-linejoin="round" stroke-linecap="round"/><path d="M85.14 98.5L170.29 126.08L255.43 149.72L340.57 193.06L425.71 220.64L510.86 263.98" fill="none" stroke="#f17cb0" stroke-width="1.2" stroke-linejoin="round" stroke-linecap="round"/><path d="M85.14 232.46L170.29 204.88L255.43 185.18L340.57 141.84L425.71 153.66L510.86 118.2" fill="none" stroke="#60bd68" stroke-width="1.2" stroke-linejoin="round" stroke-linecap="round"/></g><g class="gg-batch gg-points" data-layer="1"><circle cx="85.14" cy="307.32" r="3" fill="#5da5da"/><circle cx="170.29" cy="271.86" r="3" fill="#5da5da"/><circle cx="255.43" cy="208.82" r="3" fill="#5da5da"/><circle cx="340.57" cy="181.24" r="3" fill="#5da5da"/><circle cx="425.71" cy="110.32" r="3" fill="#5da5da"/><circle cx="510.86" cy="74.86" r="3" fill="#5da5da"/><circle cx="85.14" cy="98.5" r="3" fill="#f17cb0"/><circle cx="170.29" cy="126.08" r="3" fill="#f17cb0"/><circle cx="255.43" cy="149.72" r="3" fill="#f17cb0"/><circle cx="340.57" cy="193.06" r="3" fill="#f17cb0"/><circle cx="425.71" cy="220.64" r="3" fill="#f17cb0"/><circle cx="510.86" cy="263.98" r="3" fill="#f17cb0"/><circle cx="85.14" cy="232.46" r="3" fill="#60bd68"/><circle cx="170.29" cy="204.88" r="3" fill="#60bd68"/><circle cx="255.43" cy="185.18" r="3" fill="#60bd68"/><circle cx="340.57" cy="141.84" r="3" fill="#60bd68"/><circle cx="425.71" cy="153.66" r="3" fill="#60bd68"/><circle cx="510.86" cy="118.2" r="3" fill="#60bd68"/></g></g></g><g class="gg-axis gg-axis-x" transform="translate(40,440)"><g class="gg-tick" transform="translate(85.14,0)"><line y2="3.67" stroke="var(--gg-tickColor, #333333)" stroke-width="0.5" vector-effect="non-scaling-stroke"/><text y="6.67" dy="0.71em" text-anchor="middle" fill="var(--gg-axisText, #4d4d4d)" font-size="8.8" font-weight="400">1</text></g><g class="gg-tick" transform="translate(170.29,0)"><line y2="3.67" stroke="var(--gg-tickColor, #333333)" stroke-width="0.5" vector-effect="non-scaling-stroke"/><text y="6.67" dy="0.71em" text-anchor="middle" fill="var(--gg-axisText, #4d4d4d)" font-size="8.8" font-weight="400">2</text></g><g class="gg-tick" transform="translate(255.43,0)"><line y2="3.67" stroke="var(--gg-tickColor, #333333)" stroke-width="0.5" vector-effect="non-scaling-stroke"/><text y="6.67" dy="0.71em" text-anchor="middle" fill="var(--gg-axisText, #4d4d4d)" font-size="8.8" font-weight="400">3</text></g><g class="gg-tick" transform="translate(340.57,0)"><line y2="3.67" stroke="var(--gg-tickColor, #333333)" stroke-width="0.5" vector-effect="non-scaling-stroke"/><text y="6.67" dy="0.71em" text-anchor="middle" fill="var(--gg-axisText, #4d4d4d)" font-size="8.8" font-weight="400">4</text></g><g class="gg-tick" transform="translate(425.71,0)"><line y2="3.67" stroke="var(--gg-tickColor, #333333)" stroke-width="0.5" vector-effect="non-scaling-stroke"/><text y="6.67" dy="0.71em" text-anchor="middle" fill="var(--gg-axisText, #4d4d4d)" font-size="8.8" font-weight="400">5</text></g><g class="gg-tick" transform="translate(510.86,0)"><line y2="3.67" stroke="var(--gg-tickColor, #333333)" stroke-width="0.5" vector-effect="non-scaling-stroke"/><text y="6.67" dy="0.71em" text-anchor="middle" fill="var(--gg-axisText, #4d4d4d)" font-size="8.8" font-weight="400">6</text></g></g><g class="gg-axis gg-axis-y" transform="translate(40,46)"><g class="gg-tick" transform="translate(0,394)"><line x2="-3.67" stroke="var(--gg-tickColor, #333333)" stroke-width="0.5" vector-effect="non-scaling-stroke"/><text x="-6.67" dy="0.32em" text-anchor="end" fill="var(--gg-axisText, #4d4d4d)" font-size="8.8" font-weight="400">0</text></g><g class="gg-tick" transform="translate(0,315.2)"><line x2="-3.67" stroke="var(--gg-tickColor, #333333)" stroke-width="0.5" vector-effect="non-scaling-stroke"/><text x="-6.67" dy="0.32em" text-anchor="end" fill="var(--gg-axisText, #4d4d4d)" font-size="8.8" font-weight="400">2</text></g><g class="gg-tick" transform="translate(0,236.4)"><line x2="-3.67" stroke="var(--gg-tickColor, #333333)" stroke-width="0.5" vector-effect="non-scaling-stroke"/><text x="-6.67" dy="0.32em" text-anchor="end" fill="var(--gg-axisText, #4d4d4d)" font-size="8.8" font-weight="400">4</text></g><g class="gg-tick" transform="translate(0,157.6)"><line x2="-3.67" stroke="var(--gg-tickColor, #333333)" stroke-width="0.5" vector-effect="non-scaling-stroke"/><text x="-6.67" dy="0.32em" text-anchor="end" fill="var(--gg-axisText, #4d4d4d)" font-size="8.8" font-weight="400">6</text></g><g class="gg-tick" transform="translate(0,78.8)"><line x2="-3.67" stroke="var(--gg-tickColor, #333333)" stroke-width="0.5" vector-effect="non-scaling-stroke"/><text x="-6.67" dy="0.32em" text-anchor="end" fill="var(--gg-axisText, #4d4d4d)" font-size="8.8" font-weight="400">8</text></g><g class="gg-tick" transform="translate(0,0)"><line x2="-3.67" stroke="var(--gg-tickColor, #333333)" stroke-width="0.5" vector-effect="non-scaling-stroke"/><text x="-6.67" dy="0.32em" text-anchor="end" fill="var(--gg-axisText, #4d4d4d)" font-size="8.8" font-weight="400">10</text></g></g><text class="gg-axis-title" x="338" y="472" text-anchor="middle" fill="var(--gg-ink, #333333)" font-size="11" font-weight="400">Measurement</text><text class="gg-axis-title" transform="translate(12,243) rotate(-90)" text-anchor="middle" fill="var(--gg-ink, #333333)" font-size="11" font-weight="400">Value</text><g class="gg-legend gg-legend-color" transform="translate(654,46)"><text class="gg-legend-title" x="4" y="11" font-weight="bold" fill="var(--gg-ink, #333333)">Series</text><rect class="gg-legend-swatch" x="4" y="25" width="10" height="10" fill="#5da5da"/><text class="gg-legend-label" x="20" y="30" dy="0.32em" fill="var(--gg-ink, #333333)">Alpha</text><rect class="gg-legend-swatch" x="4" y="49" width="10" height="10" fill="#f17cb0"/><text class="gg-legend-label" x="20" y="54" dy="0.32em" fill="var(--gg-ink, #333333)">Beta</text><rect class="gg-legend-swatch" x="4" y="73" width="10" height="10" fill="#60bd68"/><text class="gg-legend-label" x="20" y="78" dy="0.32em" fill="var(--gg-ink, #333333)">Gamma</text></g></svg>