<svg xmlns="http://www.w3.org/2000/svg" width="720" height="480" viewBox="0 0 720 480" role="img" aria-label="Matched theme reference" class="gg-plot" font-family="&quot;Roboto Condensed&quot;, &quot;Arial Narrow&quot;, Arial, sans-serif" font-size="11" font-weight="300" text-rendering="optimizeLegibility" shape-rendering="geometricPrecision"><title>Matched theme reference</title><style>
@font-face{font-family:"Roboto Condensed";src:url("../../../packages/svelte/src/lib/fonts/RobotoCondensed-Light.ttf") format("truetype");font-weight:300}
@font-face{font-family:"Roboto Condensed";src:url("../../../packages/svelte/src/lib/fonts/RobotoCondensed-Regular.ttf") format("truetype");font-weight:400}
@font-face{font-family:"Roboto Condensed";src:url("../../../packages/svelte/src/lib/fonts/RobotoCondensed-Bold.ttf") format("truetype");font-weight:700}
</style><rect class="gg-paper" width="720" height="480" fill="var(--gg-paper, #ffffff)"/><text class="gg-title" x="36" y="15" font-size="15" font-weight="700" fill="var(--gg-ink, #333333)">Matched theme reference</text><text class="gg-subtitle" x="36" y="30" font-size="12" font-weight="300" fill="var(--gg-ink, #333333)">Same data, domains, breaks, colors, and logical viewport</text><defs><clipPath id="gg-clip-0"><rect width="600" height="398"/></clipPath></defs><g class="gg-panel" data-panel="0" transform="translate(36,46)"><rect class="gg-panel-background" width="600" height="398" fill="var(--gg-panel, #ffffff)"/><g class="gg-grid" stroke="var(--gg-grid, #dedede)" stroke-width="0.25" vector-effect="non-scaling-stroke"><line x1="85.71" y1="0" x2="85.71" y2="398"/><line x1="171.43" y1="0" x2="171.43" y2="398"/><line x1="257.14" y1="0" x2="257.14" y2="398"/><line x1="342.86" y1="0" x2="342.86" y2="398"/><line x1="428.57" y1="0" x2="428.57" y2="398"/><line x1="514.29" y1="0" x2="514.29" y2="398"/><line x1="0" y1="398" x2="600" y2="398"/><line x1="0" y1="318.4" x2="600" y2="318.4"/><line x1="0" y1="238.8" x2="600" y2="238.8"/><line x1="0" y1="159.2" x2="600" y2="159.2"/><line x1="0" y1="79.6" x2="600" y2="79.6"/><line x1="0" y1="0" x2="600" y2="0"/></g><g class="gg-marks" clip-path="url(#gg-clip-0)"><g class="gg-batch gg-paths" data-layer="0"><path d="M85.71 310.44L171.43 274.62L257.14 210.94L342.86 183.08L428.57 111.44L514.29 75.62" fill="none" stroke="#5da5da" stroke-width="1.2" stroke-linejoin="round" stroke-linecap="round"/><path d="M85.71 99.5L171.43 127.36L257.14 151.24L342.86 195.02L428.57 222.88L514.29 266.66" fill="none" stroke="#f17cb0" stroke-width="1.2" stroke-linejoin="round" stroke-linecap="round"/><path d="M85.71 234.82L171.43 206.96L257.14 187.06L342.86 143.28L428.57 155.22L514.29 119.4" fill="none" stroke="#60bd68" stroke-width="1.2" stroke-linejoin="round" stroke-linecap="round"/></g><g class="gg-batch gg-points" data-layer="1"><circle cx="85.71" cy="310.44" r="3" fill="#5da5da"/><circle cx="171.43" cy="274.62" r="3" fill="#5da5da"/><circle cx="257.14" cy="210.94" r="3" fill="#5da5da"/><circle cx="342.86" cy="183.08" r="3" fill="#5da5da"/><circle cx="428.57" cy="111.44" r="3" fill="#5da5da"/><circle cx="514.29" cy="75.62" r="3" fill="#5da5da"/><circle cx="85.71" cy="99.5" r="3" fill="#f17cb0"/><circle cx="171.43" cy="127.36" r="3" fill="#f17cb0"/><circle cx="257.14" cy="151.24" r="3" fill="#f17cb0"/><circle cx="342.86" cy="195.02" r="3" fill="#f17cb0"/><circle cx="428.57" cy="222.88" r="3" fill="#f17cb0"/><circle cx="514.29" cy="266.66" r="3" fill="#f17cb0"/><circle cx="85.71" cy="234.82" r="3" fill="#60bd68"/><circle cx="171.43" cy="206.96" r="3" fill="#60bd68"/><circle cx="257.14" cy="187.06" r="3" fill="#60bd68"/><circle cx="342.86" cy="143.28" r="3" fill="#60bd68"/><circle cx="428.57" cy="155.22" r="3" fill="#60bd68"/><circle cx="514.29" cy="119.4" r="3" fill="#60bd68"/></g></g><rect class="gg-panel-border" width="600" height="398" fill="none" stroke="var(--gg-panelBorder, #cccccc)" stroke-width="0.5" vector-effect="non-scaling-stroke"/></g><g class="gg-axis gg-axis-x" transform="translate(36,444)"><g class="gg-tick" transform="translate(85.71,0)"><line y2="3.67" stroke="var(--gg-tickColor, #b3b3b3)" stroke-width="0.25" vector-effect="non-scaling-stroke"/><text y="6.67" dy="0.71em" text-anchor="middle" fill="var(--gg-axisText, #4d4d4d)" font-size="8.8" font-weight="300">1</text></g><g class="gg-tick" transform="translate(171.43,0)"><line y2="3.67" stroke="var(--gg-tickColor, #b3b3b3)" stroke-width="0.25" vector-effect="non-scaling-stroke"/><text y="6.67" dy="0.71em" text-anchor="middle" fill="var(--gg-axisText, #4d4d4d)" font-size="8.8" font-weight="300">2</text></g><g class="gg-tick" transform="translate(257.14,0)"><line y2="3.67" stroke="var(--gg-tickColor, #b3b3b3)" stroke-width="0.25" vector-effect="non-scaling-stroke"/><text y="6.67" dy="0.71em" text-anchor="middle" fill="var(--gg-axisText, #4d4d4d)" font-size="8.8" font-weight="300">3</text></g><g class="gg-tick" transform="translate(342.86,0)"><line y2="3.67" stroke="var(--gg-tickColor, #b3b3b3)" stroke-width="0.25" vector-effect="non-scaling-stroke"/><text y="6.67" dy="0.71em" text-anchor="middle" fill="var(--gg-axisText, #4d4d4d)" font-size="8.8" font-weight="300">4</text></g><g class="gg-tick" transform="translate(428.57,0)"><line y2="3.67" stroke="var(--gg-tickColor, #b3b3b3)" stroke-width="0.25" vector-effect="non-scaling-stroke"/><text y="6.67" dy="0.71em" text-anchor="middle" fill="var(--gg-axisText, #4d4d4d)" font-size="8.8" font-weight="300">5</text></g><g class="gg-tick" transform="translate(514.29,0)"><line y2="3.67" stroke="var(--gg-tickColor, #b3b3b3)" stroke-width="0.25" vector-effect="non-scaling-stroke"/><text y="6.67" dy="0.71em" text-anchor="middle" fill="var(--gg-axisText, #4d4d4d)" font-size="8.8" font-weight="300">6</text></g></g><g class="gg-axis gg-axis-y" transform="translate(36,46)"><g class="gg-tick" transform="translate(0,398)"><line x2="-3.67" stroke="var(--gg-tickColor, #b3b3b3)" stroke-width="0.25" vector-effect="non-scaling-stroke"/><text x="-6.67" dy="0.32em" text-anchor="end" fill="var(--gg-axisText, #4d4d4d)" font-size="8.8" font-weight="300">0</text></g><g class="gg-tick" transform="translate(0,318.4)"><line x2="-3.67" stroke="var(--gg-tickColor, #b3b3b3)" stroke-width="0.25" vector-effect="non-scaling-stroke"/><text x="-6.67" dy="0.32em" text-anchor="end" fill="var(--gg-axisText, #4d4d4d)" font-size="8.8" font-weight="300">2</text></g><g class="gg-tick" transform="translate(0,238.8)"><line x2="-3.67" stroke="var(--gg-tickColor, #b3b3b3)" stroke-width="0.25" vector-effect="non-scaling-stroke"/><text x="-6.67" dy="0.32em" text-anchor="end" fill="var(--gg-axisText, #4d4d4d)" font-size="8.8" font-weight="300">4</text></g><g class="gg-tick" transform="translate(0,159.2)"><line x2="-3.67" stroke="var(--gg-tickColor, #b3b3b3)" stroke-width="0.25" vector-effect="non-scaling-stroke"/><text x="-6.67" dy="0.32em" text-anchor="end" fill="var(--gg-axisText, #4d4d4d)" font-size="8.8" font-weight="300">6</text></g><g class="gg-tick" transform="translate(0,79.6)"><line x2="-3.67" stroke="var(--gg-tickColor, #b3b3b3)" stroke-width="0.25" vector-effect="non-scaling-stroke"/><text x="-6.67" dy="0.32em" text-anchor="end" fill="var(--gg-axisText, #4d4d4d)" font-size="8.8" font-weight="300">8</text></g><g class="gg-tick" transform="translate(0,0)"><line x2="-3.67" stroke="var(--gg-tickColor, #b3b3b3)" stroke-width="0.25" vector-effect="non-scaling-stroke"/><text x="-6.67" dy="0.32em" text-anchor="end" fill="var(--gg-axisText, #4d4d4d)" font-size="8.8" font-weight="300">10</text></g></g><text class="gg-axis-title" x="336" y="476" text-anchor="middle" fill="var(--gg-ink, #333333)" font-size="9" font-weight="400">Measurement</text><text class="gg-axis-title" transform="translate(12,245) rotate(-90)" text-anchor="middle" fill="var(--gg-ink, #333333)" font-size="9" font-weight="400">Value</text><g class="gg-legend gg-legend-color" transform="translate(654,46)"><text class="gg-legend-title" x="4" y="11" font-weight="bold" fill="var(--gg-ink, #333333)">Series</text><rect class="gg-legend-swatch" x="4" y="25" width="10" height="10" fill="#5da5da"/><text class="gg-legend-label" x="20" y="30" dy="0.32em" fill="var(--gg-ink, #333333)">Alpha</text><rect class="gg-legend-swatch" x="4" y="49" width="10" height="10" fill="#f17cb0"/><text class="gg-legend-label" x="20" y="54" dy="0.32em" fill="var(--gg-ink, #333333)">Beta</text><rect class="gg-legend-swatch" x="4" y="73" width="10" height="10" fill="#60bd68"/><text class="gg-legend-label" x="20" y="78" dy="0.32em" fill="var(--gg-ink, #333333)">Gamma</text></g></svg>