<svg xmlns="http://www.w3.org/2000/svg" width="720" height="480" viewBox="0 0 720 480" role="img" aria-label="Matched theme reference" class="gg-plot" font-family="&quot;Roboto Condensed&quot;, &quot;Arial Narrow&quot;, Arial, sans-serif" font-size="11.5" font-weight="300" text-rendering="optimizeLegibility" shape-rendering="geometricPrecision"><title>Matched theme reference</title><style>
@font-face{font-family:"Roboto Condensed";src:url("../../../packages/svelte/src/lib/fonts/RobotoCondensed-Light.ttf") format("truetype");font-weight:300}
@font-face{font-family:"Roboto Condensed";src:url("../../../packages/svelte/src/lib/fonts/RobotoCondensed-Regular.ttf") format("truetype");font-weight:400}
@font-face{font-family:"Roboto Condensed";src:url("../../../packages/svelte/src/lib/fonts/RobotoCondensed-Bold.ttf") format("truetype");font-weight:700}
</style><rect class="gg-paper" width="720" height="480" fill="var(--gg-paper, #ffffff)"/><text class="gg-title" x="36" y="18" font-size="18" font-weight="700" fill="var(--gg-ink, #111111)">Matched theme reference</text><text class="gg-subtitle" x="36" y="34" font-size="13" font-weight="300" fill="var(--gg-ink, #111111)">Same data, domains, breaks, colors, and logical viewport</text><defs><clipPath id="gg-clip-0"><rect width="600" height="390"/></clipPath></defs><g class="gg-panel" data-panel="0" transform="translate(36,50)"><rect class="gg-panel-background" width="600" height="390" fill="var(--gg-panel, #ffffff)"/><g class="gg-grid" stroke="var(--gg-grid, none)" stroke-width="0" vector-effect="non-scaling-stroke"></g><g class="gg-marks" clip-path="url(#gg-clip-0)"><g class="gg-batch gg-paths" data-layer="0"><path d="M85.71 304.2L171.43 269.1L257.14 206.7L342.86 179.4L428.57 109.2L514.29 74.1" fill="none" stroke="#5da5da" stroke-width="1.2" stroke-linejoin="round" stroke-linecap="round"/><path d="M85.71 97.5L171.43 124.8L257.14 148.2L342.86 191.1L428.57 218.4L514.29 261.3" fill="none" stroke="#f17cb0" stroke-width="1.2" stroke-linejoin="round" stroke-linecap="round"/><path d="M85.71 230.1L171.43 202.8L257.14 183.3L342.86 140.4L428.57 152.1L514.29 117" fill="none" stroke="#60bd68" stroke-width="1.2" stroke-linejoin="round" stroke-linecap="round"/></g><g class="gg-batch gg-points" data-layer="1"><circle cx="85.71" cy="304.2" r="3" fill="#5da5da"/><circle cx="171.43" cy="269.1" r="3" fill="#5da5da"/><circle cx="257.14" cy="206.7" r="3" fill="#5da5da"/><circle cx="342.86" cy="179.4" r="3" fill="#5da5da"/><circle cx="428.57" cy="109.2" r="3" fill="#5da5da"/><circle cx="514.29" cy="74.1" r="3" fill="#5da5da"/><circle cx="85.71" cy="97.5" r="3" fill="#f17cb0"/><circle cx="171.43" cy="124.8" r="3" fill="#f17cb0"/><circle cx="257.14" cy="148.2" r="3" fill="#f17cb0"/><circle cx="342.86" cy="191.1" r="3" fill="#f17cb0"/><circle cx="428.57" cy="218.4" r="3" fill="#f17cb0"/><circle cx="514.29" cy="261.3" r="3" fill="#f17cb0"/><circle cx="85.71" cy="230.1" r="3" fill="#60bd68"/><circle cx="171.43" cy="202.8" r="3" fill="#60bd68"/><circle cx="257.14" cy="183.3" r="3" fill="#60bd68"/><circle cx="342.86" cy="140.4" r="3" fill="#60bd68"/><circle cx="428.57" cy="152.1" r="3" fill="#60bd68"/><circle cx="514.29" cy="117" r="3" fill="#60bd68"/></g></g></g><g class="gg-axis gg-axis-x" transform="translate(36,440)"><g class="gg-tick" transform="translate(85.71,0)"><text y="3" dy="0.71em" text-anchor="middle" fill="var(--gg-axisText, #4d4d4d)" font-size="11.5" font-weight="300">1</text></g><g class="gg-tick" transform="translate(171.43,0)"><text y="3" dy="0.71em" text-anchor="middle" fill="var(--gg-axisText, #4d4d4d)" font-size="11.5" font-weight="300">2</text></g><g class="gg-tick" transform="translate(257.14,0)"><text y="3" dy="0.71em" text-anchor="middle" fill="var(--gg-axisText, #4d4d4d)" font-size="11.5" font-weight="300">3</text></g><g class="gg-tick" transform="translate(342.86,0)"><text y="3" dy="0.71em" text-anchor="middle" fill="var(--gg-axisText, #4d4d4d)" font-size="11.5" font-weight="300">4</text></g><g class="gg-tick" transform="translate(428.57,0)"><text y="3" dy="0.71em" text-anchor="middle" fill="var(--gg-axisText, #4d4d4d)" font-size="11.5" font-weight="300">5</text></g><g class="gg-tick" transform="translate(514.29,0)"><text y="3" dy="0.71em" text-anchor="middle" fill="var(--gg-axisText, #4d4d4d)" font-size="11.5" font-weight="300">6</text></g></g><g class="gg-axis gg-axis-y" transform="translate(36,50)"><g class="gg-tick" transform="translate(0,390)"><text x="-3" dy="0.32em" text-anchor="end" fill="var(--gg-axisText, #4d4d4d)" font-size="11.5" font-weight="300">0</text></g><g class="gg-tick" transform="translate(0,312)"><text x="-3" dy="0.32em" text-anchor="end" fill="var(--gg-axisText, #4d4d4d)" font-size="11.5" font-weight="300">2</text></g><g class="gg-tick" transform="translate(0,234)"><text x="-3" dy="0.32em" text-anchor="end" fill="var(--gg-axisText, #4d4d4d)" font-size="11.5" font-weight="300">4</text></g><g class="gg-tick" transform="translate(0,156)"><text x="-3" dy="0.32em" text-anchor="end" fill="var(--gg-axisText, #4d4d4d)" font-size="11.5" font-weight="300">6</text></g><g class="gg-tick" transform="translate(0,78)"><text x="-3" dy="0.32em" text-anchor="end" fill="var(--gg-axisText, #4d4d4d)" font-size="11.5" font-weight="300">8</text></g><g class="gg-tick" transform="translate(0,0)"><text x="-3" dy="0.32em" text-anchor="end" fill="var(--gg-axisText, #4d4d4d)" font-size="11.5" font-weight="300">10</text></g></g><text class="gg-axis-title" x="336" y="472" text-anchor="middle" fill="var(--gg-ink, #111111)" font-size="9" font-weight="400">Measurement</text><text class="gg-axis-title" transform="translate(12,245) rotate(-90)" text-anchor="middle" fill="var(--gg-ink, #111111)" font-size="9" font-weight="400">Value</text><g class="gg-legend gg-legend-color" transform="translate(654,50)"><text class="gg-legend-title" x="4" y="11" font-weight="bold" fill="var(--gg-ink, #111111)">Series</text><rect class="gg-legend-swatch" x="4" y="25" width="10" height="10" fill="#5da5da"/><text class="gg-legend-label" x="20" y="30" dy="0.32em" fill="var(--gg-ink, #111111)">Alpha</text><rect class="gg-legend-swatch" x="4" y="49" width="10" height="10" fill="#f17cb0"/><text class="gg-legend-label" x="20" y="54" dy="0.32em" fill="var(--gg-ink, #111111)">Beta</text><rect class="gg-legend-swatch" x="4" y="73" width="10" height="10" fill="#60bd68"/><text class="gg-legend-label" x="20" y="78" dy="0.32em" fill="var(--gg-ink, #111111)">Gamma</text></g></svg>